<svg xmlns="http://www.w3.org/2000/svg" viewBox="0 0 901.84 795.21"><defs><style>.cls-1{isolation:isolate;}.cls-2{fill:#346fb7;}.cls-3{fill:#fffef3;}.cls-4{fill:#ff5252;}.cls-5{fill:#594444;}.cls-6{fill:#ffb640;}.cls-7{fill:#47aad1;}.cls-8{fill:#4880aa;}.cls-9{fill:#c7d14a;}.cls-10{fill:#f4f789;}.cls-11{fill:#2e90b7;}.cls-11,.cls-13,.cls-48{opacity:0.5;}.cls-11,.cls-16,.cls-48{mix-blend-mode:multiply;}.cls-12{fill:#77d1ed;}.cls-13{fill:#aaf2f2;}.cls-13,.cls-44,.cls-45{mix-blend-mode:overlay;}.cls-14{fill:#fff4c5;}.cls-15{fill:#efdf9e;}.cls-16{fill:#efc79c;}.cls-17{fill:#f7946d;}.cls-18{fill:#ffbb83;}.cls-19{fill:#eada98;}.cls-20{fill:#f7eab5;}.cls-21{fill:#ffaa39;}.cls-22{fill:#ff822e;}.cls-23{fill:#dd2f51;}.cls-24,.cls-44{fill:#ffebd4;}.cls-25{fill:#5a4763;}.cls-26{fill:#4a3854;}.cls-27{fill:#aa9d8f;}.cls-28{fill:#c42047;}.cls-29{fill:#eac5a2;}.cls-30{fill:#9b902c;}.cls-31{fill:#c4c439;}.cls-32{fill:#b5b133;}.cls-33{fill:#ff9945;}.cls-34{fill:#ffb255;}.cls-35{fill:#ffc05a;}.cls-36{fill:#ffb048;}.cls-37{fill:#f2535b;}.cls-38{fill:#ea3f50;}.cls-39{fill:#d83d4c;}.cls-40{fill:#af37af;}.cls-41{fill:#d35bcb;}.cls-42{fill:#c44bc1;}.cls-43{fill:#b73eb7;}.cls-46{fill:#ffe3bb;}.cls-47{fill:#dbd749;}.cls-48{fill:#68475b;}.cls-49{fill:#605050;}.cls-50{fill:#423030;}.cls-51{fill:#705757;}.cls-52{fill:#70c3e0;}.cls-53{fill:#4a9aaf;}.cls-54{fill:#d8bda7;}.cls-55{fill:#847164;}.cls-56{fill:#66584f;}.cls-57{fill:#c4a791;}.cls-58{fill:#efd6bd;}.cls-59{fill:#847474;}.cls-60{fill:#4c3a3a;}.cls-61{fill:#755a5a;}</style></defs><g class="cls-1"><g id="_1" data-name="1"><rect class="cls-2" x="702.74" y="234.5" width="136.21" height="90.13" transform="translate(128.71 -333.42) rotate(23.74)"/><polygon class="cls-3" points="802.25 219 788.55 212.97 743.41 219.5 753.13 197.39 731.99 188.09 722.36 209.99 697.61 172.97 677.57 164.16 672.53 175.61 694.27 208.11 664.08 194.83 655.23 214.96 684.8 227.97 647.11 233.42 641.28 246.66 658.63 254.29 705.88 247.46 695.71 270.59 716.85 279.89 726.93 256.96 752.84 295.72 765.97 301.5 772.94 285.64 755.03 258.86 779.91 269.8 788.76 249.67 764.46 238.99 795.43 234.51 802.25 219"/><polygon class="cls-4" points="802.25 219 800 218 731.64 227.89 746.37 194.41 738.76 191.07 723.93 224.78 685.83 167.79 677.57 164.16 675.85 168.07 713.38 224.21 661.24 201.27 658.06 208.52 709.41 231.11 643.96 240.57 641.28 246.66 647.21 249.26 717.64 239.07 702.47 273.57 710.08 276.92 725.37 242.14 764.67 300.93 765.97 301.5 769.64 293.14 735.97 242.79 782.74 263.36 785.93 256.11 739.88 235.86 798.57 227.37 802.25 219"/><polygon class="cls-5" points="677.94 161.29 606.12 313.11 611.73 317.51 680.95 162.16 677.94 161.29"/><rect class="cls-6" x="342.75" y="640.84" width="8.3" height="24.73" transform="translate(644.73 1259.67) rotate(180)"/><polygon class="cls-6" points="230.38 633.06 297.83 617.17 365.27 633.06 365.27 639.21 230.38 639.21 230.38 633.06"/><polygon class="cls-6" points="364.75 632.94 365.27 633.06 365.27 639.21 230.38 639.21 230.38 633.06 230.91 632.94 364.75 632.94"/><path class="cls-6" d="M210.67,391.05l6.21,6.77a155.34,155.34,0,0,0-26.43,81.44C187.66,566.11,259,636.51,349.73,636.51A173,173,0,0,0,421.39,621l6.2,6.77a164.29,164.29,0,0,1-216.92-236.7Z" transform="translate(-49.08 -46.74)"/><circle class="cls-7" cx="299.3" cy="431.77" r="151.03"/><path class="cls-8" d="M313.13,612.19a6.21,6.21,0,0,1-4.26-2.93c-1.37-2.34-1-5.5-.56-8.85a21.23,21.23,0,0,0,.29-3.86,29.1,29.1,0,0,0-2.68-8c-2.09-4.52-5.08-10.09-9.65-13.09a32.56,32.56,0,0,0-6.94-3.08c-1-.35-2-.7-2.94-1.08a53.91,53.91,0,0,1-16.71-10.39,7.62,7.62,0,0,1-2.52-3.77,8.58,8.58,0,0,1,.26-4.31,49.28,49.28,0,0,0-.84-27.05c-.4-1.25-1.16-3.56,0-5.78a5.92,5.92,0,0,1,1-1.35,3.69,3.69,0,0,0-.49-.51c-1.09-.93-4-3.41-3.24-7a7,7,0,0,1,2.88-4.07,40.1,40.1,0,0,1,9-4.68,52.48,52.48,0,0,0,5.39-2.47,54.61,54.61,0,0,0,4.62-3c1.59-1.12,3.18-2.23,4.83-3.18a61,61,0,0,1,10.5-4.44l9.74-3.4a46.23,46.23,0,0,1,10-2.65c6.07-.68,12,.95,17.21,2.4a24.76,24.76,0,0,1,6.54,2.57,26.08,26.08,0,0,1,2.19,1.6c.53.4,1.05.82,1.61,1.18,1.67,1,3.83,1.48,7,1.45l3.42-.33v.17c.25,0,.51,0,.77,0l.42,6.41-1,.06a6.82,6.82,0,0,0-4,2.07,18.83,18.83,0,0,0-1.68,2.14l-2.2,3.06c2.27,5.07,3.85,10.72,1.13,15.79a17.46,17.46,0,0,1-5,5.37,14.81,14.81,0,0,0-3.1,2.92,19.32,19.32,0,0,0-1.15,2c-.94,1.84-2.13,4.12-4.49,5.41-.26.14-.53.26-1.05.49a5.94,5.94,0,0,0,1.1,1.74l5.19,6-7.22-.56c-.24.4-.55,1-.76,1.5a18.38,18.38,0,0,1-1.53,2.75,12.39,12.39,0,0,1-2.19,2.25c-.31.27-.62.53-.91.82a10,10,0,0,0-2,4.44c-1.82,7.17-.83,15.05.14,22.68l.47,3.83a47.73,47.73,0,0,1,.11,13.33c-.91,5.42-3.32,9.92-6.81,12.67-1.81,1.42-6,3.4-9.59,2.83Zm19.14-78.56a8.17,8.17,0,0,1,3-1.82,7.35,7.35,0,0,0,1.87-2.73,25,25,0,0,1,1.59-2.73,20.45,20.45,0,0,1,4.37-4.24,12.26,12.26,0,0,0,3.39-3.4c1.69-3.15-.08-7.7-2-11.74l-.83-1.71,4.51-6.26c.21-.28.42-.58.64-.86a15.58,15.58,0,0,1-3.88-1.71c-.76-.48-1.48-1-2.2-1.6-.53-.4-1.05-.82-1.61-1.18a18.54,18.54,0,0,0-4.82-1.8c-4.82-1.34-9.84-2.74-14.63-2.19A41.77,41.77,0,0,0,313,492l-9.8,3.42a53.42,53.42,0,0,0-9.33,3.93c-1.5.86-2.92,1.86-4.34,2.87a61.42,61.42,0,0,1-5.19,3.38,57.45,57.45,0,0,1-6.07,2.81,34.62,34.62,0,0,0-7.55,3.88c-.1.07-.18.14-.25.18a9.1,9.1,0,0,0,.89.83c2.72,2.35,3.66,5.37,2.45,7.88a3.34,3.34,0,0,1-1.26,1.5,6.17,6.17,0,0,0,.31,1.19,55.94,55.94,0,0,1,1,30.65,8.65,8.65,0,0,1-.28,1,5.57,5.57,0,0,0,.59.6,47.31,47.31,0,0,0,14.62,9.09c.9.35,1.82.67,2.73,1a37.63,37.63,0,0,1,8.38,3.8c6,3.92,9.59,10.52,12,15.85a34.63,34.63,0,0,1,3.23,9.83,22.66,22.66,0,0,1-.26,5.58c-.19,1.51-.51,4.05-.62,4.4.72.28,3.28-.51,4.52-1.48,2.18-1.71,3.78-4.84,4.41-8.6a42.18,42.18,0,0,0-.14-11.52l-.46-3.77c-1-8.23-2.09-16.73,0-25.08a15.91,15.91,0,0,1,3.6-7.26c.45-.46.92-.87,1.4-1.28a7.27,7.27,0,0,0,1.15-1.12,11.49,11.49,0,0,0,.95-1.78,15.29,15.29,0,0,1,1.74-3C330.28,538.1,330.51,535.47,332.27,533.63Z" transform="translate(-49.08 -46.74)"/><path class="cls-8" d="M352.23,496.36l-.06-.81a2.64,2.64,0,0,0-.71-1.83c-.22-.23-.45-.4-.63-.36l-6-.12,13.26-20.09,2.54,1.14c.76.3,2.49.28,6.42-3.7a6.69,6.69,0,0,0,1.82-2.45,1.63,1.63,0,0,0-.4-1.46,3.76,3.76,0,0,0-2.56-1.35,16.15,16.15,0,0,0-5,1,35.28,35.28,0,0,1-4.1,1.06l-10.67,1.87L353.9,462a2.72,2.72,0,0,0,.16-2.49,9.39,9.39,0,0,0-2.81-3.38,45.59,45.59,0,0,0-7.54-5.23,7.1,7.1,0,0,1-3.65-3.76,8.8,8.8,0,0,1-.34-3.18c-.07-.75-1.11-1.39-2-1.61a18.34,18.34,0,0,0-2.47-.33,19,19,0,0,1-4.31-.71c-4.52-1.42-7.57-5.36-9.8-8.25l-5.89-7.6a6.08,6.08,0,0,1-1.49-3.85,6,6,0,0,1,1.73-3.76L325,406.9c5.84-6.65,11.73-12.7,19.69-13.91a18.58,18.58,0,0,1,16.16,5.59l1,1-.53,8.33c2.75,1,4.87,1.11,6.3.28a3.72,3.72,0,0,0,1.48-2.59,1.63,1.63,0,0,0-.22-1.24l-9.77-9.85,11.81,4.32a8.22,8.22,0,0,0-1.24-2.5c-.28-.45-.56-.9-.82-1.35-1.39-2.46-2.16-6-.18-8.71l1.06-1.41,1.81.19c6.71.71,13.64,1.45,20.41,3.67,3.27,1.09,6.45,2.51,9.53,3.89,6.33,2.82,12.3,5.5,18.45,5.1.68,0,1.38-.11,2.09-.17,4-.39,9.24-.89,12.75,2.75a134,134,0,0,1,29.08,7.06l.93.34.6.78a139.81,139.81,0,0,1,15.21,25.18l1.28,2.73-2.64,1.3-1.9,1a12.55,12.55,0,0,1-3.05,1.71,11.32,11.32,0,0,1-7.18-.28,35.05,35.05,0,0,1-9.22-4.51l-1-.7c-2-1.42-4.12-2.89-5.53-2.5a8.4,8.4,0,0,0-2.74,1.91l-.81.71a56.23,56.23,0,0,1-6.31,4.42c-3.67,2.33-7.15,4.52-9.1,8-.33.61-.63,1.26-.92,1.9s-.72,1.57-1.14,2.3a31.77,31.77,0,0,1-4.12,5.54L409,477c-1.83,2.12-4.11,4.75-7.3,6-.45.18-.92.34-1.39.49a4.77,4.77,0,0,0-1.49.63,6.43,6.43,0,0,0-1,1.73,12.76,12.76,0,0,1-1.73,3.06c-3.17,3.87-8.21,3.15-11.85,2.63a34.52,34.52,0,0,0-18,2.34,22.61,22.61,0,0,1-7.49,4.72,21.6,21.6,0,0,1-2.44.78l-4.81,1.78Zm108.23-66.49.93.65a27.88,27.88,0,0,0,7.42,3.62,5.15,5.15,0,0,0,3.1.34h0a7.72,7.72,0,0,0,1.58-1l.09-.06a132,132,0,0,0-12.64-20.63,126.56,126.56,0,0,0-28-6.53l-1.53-.17-.87-1.27c-1.12-1.66-3.74-1.53-7.65-1.14-.78.07-1.55.15-2.29.2-7.78.49-14.81-2.65-21.61-5.68-3.07-1.37-6-2.66-8.92-3.64a77.55,77.55,0,0,0-15.87-3,5.43,5.43,0,0,0,.27.54l.66,1.1a12.72,12.72,0,0,1,2.16,5.09,6.79,6.79,0,0,1-1.87,5.6,8.53,8.53,0,0,1,.07,2.58,9.58,9.58,0,0,1-4.43,7.1c-3.21,1.88-7.26,1.92-12.06.11a6.05,6.05,0,0,1-3.52-2.87,6.5,6.5,0,0,1-.53-3.35l.3-5.61a12,12,0,0,0-9.34-2.71c-5.85.9-10.85,6.13-15.9,11.88l-9.48,10.85,5.73,7.41c1.79,2.3,4,5.17,6.5,5.94a15.21,15.21,0,0,0,2.87.44,24.48,24.48,0,0,1,3.42.48c3.29.77,6.77,3.34,7.14,7.35a3.42,3.42,0,0,1-.15,1.38,6.2,6.2,0,0,0,.77.47,51.59,51.59,0,0,1,8.65,6,15.4,15.4,0,0,1,4.66,6,9.91,9.91,0,0,1,.59,2.37,17.42,17.42,0,0,1,5.34-.74,10.68,10.68,0,0,1,7.58,3.93,8,8,0,0,1,1.59,6.87,11.5,11.5,0,0,1-3.4,5.3c-1.76,1.78-6,6.05-10.91,5.72l-5.3,8.05c.17.16.35.32.51.49a9.17,9.17,0,0,1,1.78,2.58,16.68,16.68,0,0,0,4.11-3l1-.67a41.36,41.36,0,0,1,22.37-3c2.79.4,4.83.6,5.69-.44a8.6,8.6,0,0,0,.88-1.66,10.6,10.6,0,0,1,2.42-3.76,9.61,9.61,0,0,1,3.79-2c.32-.1.64-.2,1-.32,1.8-.73,3.48-2.67,5-4.38L421.3,453a27.8,27.8,0,0,0,3.37-4.46c.34-.61.63-1.26.93-1.9s.72-1.56,1.14-2.31c2.7-4.84,7-7.55,11.14-10.17a50.78,50.78,0,0,0,5.63-3.92l.73-.64a13,13,0,0,1,5.2-3.22,8.42,8.42,0,0,1,3.62-.15C455.93,426.68,458.46,428.46,460.46,429.87Z" transform="translate(-49.08 -46.74)"/><path class="cls-8" d="M292,391.19c-1.23-1.05-2.44-2.08-3.66-3s-2.71-1.83-4.1-2.7c-3.83-2.39-7.8-4.85-10.32-9.05l-1.5-2.48,2.4-1.62a135.11,135.11,0,0,1,41.28-18.53l.82-.21.83.21c7.36,1.82,44.44,11.16,52.87,15.58l7,3.67-7.48,2a102.17,102.17,0,0,1-11.88,2.48h0c-1.87.28-3.76.5-5.64.72-6,.7-11.65,1.37-16.84,3.67l-.83.38a15.81,15.81,0,0,1-5.49,1.72,16.65,16.65,0,0,1-2.34,0,5.88,5.88,0,0,0-1.72,0c-1,.34-1.74,2.11-2.46,3.82a28,28,0,0,1-1.31,2.8c-2.77,4.9-7.28,6.6-11.33,7.62a13.73,13.73,0,0,1-5.67.24C299.55,397.7,295.44,394.18,292,391.19Zm65.09-19.75,1-.16c-10.22-3.26-26.16-7.56-41-11.25a128.88,128.88,0,0,0-35.78,15.67,36.29,36.29,0,0,0,6.31,4.56c1.54,1,3.09,1.93,4.53,3s2.69,2.14,4,3.29c4.94,4.22,8.22,6.71,12.28,5.68,3.34-.83,5.86-1.94,7.4-4.66a20.09,20.09,0,0,0,1-2.18c1.13-2.66,2.53-6,6.18-7.22a10.72,10.72,0,0,1,4.28-.35,9,9,0,0,0,1.37,0,10.77,10.77,0,0,0,3.27-1.14l.91-.41c6.08-2.69,12.5-3.44,18.7-4.17,1.82-.21,3.64-.43,5.45-.69Z" transform="translate(-49.08 -46.74)"/><path class="cls-9" d="M356.13,494.5c.73,0,1.46-.07,2.18-.13a10.36,10.36,0,0,0-7.32,3.24,23.11,23.11,0,0,0-2.08,2.63L345.47,505c2.31,4.76,4.62,10.66,2.08,15.38-1.93,3.59-6,5.06-8.36,8.36-1.61,2.29-2.42,5.49-4.77,6.76a8.06,8.06,0,0,0-2.28,1.26c-1.61,1.7-.09,4.56,1.42,6.3-2.49-.2-3.19,3.73-4.77,5.92a28.76,28.76,0,0,1-3,2.87,13.8,13.8,0,0,0-3,6.15c-2.39,9.45-.57,19.4.55,29.09a46.83,46.83,0,0,1,.14,13.06c-.72,4.33-2.65,8.61-5.9,11.17-2,1.61-7.86,3.87-9.63.85-1.41-2.42.59-9,.16-12.07a33.37,33.37,0,0,0-3.11-9.36c-2.76-6-6.22-11.81-11.4-15.21-3.39-2.22-7.3-3.25-11-4.7a53.61,53.61,0,0,1-16.46-10.24,4.7,4.7,0,0,1-1.61-2.24,5.92,5.92,0,0,1,.27-2.88,55.22,55.22,0,0,0-1-30.29c-.37-1.13-.77-2.43-.22-3.5.35-.69,1-1.13,1.38-1.83.74-1.52-.5-3.21-1.71-4.24s-2.62-2.38-2.28-4.05a4.12,4.12,0,0,1,1.75-2.27c4.47-3.35,9.91-4.6,14.71-7.28,3.46-1.93,6.55-4.57,10-6.55a60.67,60.67,0,0,1,10.44-4.4l10.24-3.57a45.65,45.65,0,0,1,9.76-2.63c5.65-.64,11.25.89,16.71,2.41a22.26,22.26,0,0,1,6,2.31c1.39.87,2.61,2,4,2.91,2.79,1.74,6,2.11,9.3,2.06a4.54,4.54,0,0,1,0,.63A17.56,17.56,0,0,0,356.13,494.5Z" transform="translate(-49.08 -46.74)"/><path class="cls-9" d="M477.59,433.35a8.61,8.61,0,0,1-5.41-.33,33.26,33.26,0,0,1-8.74-4.27c-3-2.07-6.28-4.79-9.72-3.87-1.91.51-3.42,2.07-5,3.4-5.62,4.76-13.17,7.26-16.9,14-.8,1.43-1.38,3-2.17,4.43a30.49,30.49,0,0,1-4,5.25l-18.07,20.78c-1.89,2.17-3.88,4.42-6.44,5.46-1.36.56-2.89.77-4,1.8-1.49,1.36-1.84,3.77-3.14,5.36-2.23,2.71-6.11,2.06-9.38,1.6a40,40,0,0,0-21.35,2.92,20.15,20.15,0,0,1-7.19,4.67,17.56,17.56,0,0,1-2.16.7,4.54,4.54,0,0,0,0-.63c.07-2.94-2.14-5.77-4.84-5.82q4.5-6.83,9-13.63c3.69,1.66,7.63-1.57,10.59-4.57a9.15,9.15,0,0,0,2.75-4.07c.91-3.74-2.87-7-6.37-7.16s-6.84,1.62-10.3,2.23c1.54-1.46,1.73-4.12.93-6.16a12.67,12.67,0,0,0-3.93-4.91,50.63,50.63,0,0,0-8.49-5.91,4.3,4.3,0,0,1-2.25-2.09,10.56,10.56,0,0,1-.18-2.53c-.24-2.52-2.57-4.18-4.83-4.71s-4.64-.33-6.86-1c-3.58-1.12-6.18-4.36-8.57-7.45l-6.18-8a3.21,3.21,0,0,1-.87-1.92,3.27,3.27,0,0,1,1-1.94l10.07-11.47c5.3-6,11.18-12.41,18.71-13.56a16.11,16.11,0,0,1,13.9,4.84c-.13,2.47-.26,4.95-.4,7.42A3.82,3.82,0,0,0,357,404a3,3,0,0,0,1.81,1.32c3.14,1.19,6.75,1.83,9.69.11s4.36-6.64,1.93-9.1c1.75.65,3.36-1.79,3.1-3.8S372,389,371,387.23s-1.55-4.1-.38-5.68c7,.74,14,1.48,20.72,3.7,10.29,3.41,20,10.31,30.74,9.62,4.81-.31,10.68-1.71,13.57,2.52a136.15,136.15,0,0,1,31.2,7.4,141.94,141.94,0,0,1,15.61,25.86,12.91,12.91,0,0,0-1.52.69A17.88,17.88,0,0,1,477.59,433.35Z" transform="translate(-49.08 -46.74)"/><path class="cls-10" d="M358.4,371.18c-8.24,1.21-16.77,1.44-24.51,4.87-1.79.79-3.58,1.77-5.5,1.91-1.71.14-3.48-.39-5.12.16-3.35,1.14-4.12,5.54-5.75,8.42-2.23,3.94-5.86,5.45-9.84,6.45-8.16,2.05-14-5.52-20.1-10-4.91-3.62-11.09-6.11-14.25-11.35a138.76,138.76,0,0,1,42.37-19c17.6,4.37,47.67,12.35,54.78,16.08A102,102,0,0,1,358.4,371.18Z" transform="translate(-49.08 -46.74)"/><path class="cls-10" d="M477.58,433.35a8.65,8.65,0,0,1-5.4-.33,33.26,33.26,0,0,1-8.74-4.27c-3-2.07-6.28-4.79-9.72-3.87-1.91.51-3.42,2.07-5,3.4-3,2.58-6.63,4.5-9.89,6.78-12.38,4.92-37,9.29-54.66-1.54-17.21-10.54-49.84-18-70.49-17.27a4.82,4.82,0,0,1,.83-1.35l10.07-11.46c5.3-6,11.18-12.41,18.71-13.56a16.11,16.11,0,0,1,13.9,4.84c-.13,2.47-.26,4.95-.4,7.42A3.82,3.82,0,0,0,357,404a3,3,0,0,0,1.81,1.32c3.14,1.19,6.75,1.83,9.69.11s4.36-6.64,1.93-9.1c1.75.65,3.36-1.79,3.1-3.8S372,389,371,387.23s-1.55-4.1-.38-5.68c7,.74,14,1.48,20.72,3.7,10.29,3.41,20,10.31,30.74,9.62,4.81-.31,10.68-1.71,13.57,2.52a136.15,136.15,0,0,1,31.2,7.4,141.94,141.94,0,0,1,15.61,25.86,12.91,12.91,0,0,0-1.52.69A17.64,17.64,0,0,1,477.58,433.35Z" transform="translate(-49.08 -46.74)"/><path class="cls-11" d="M386.87,396.14c3.42-23.27,2.7-44.87-1.48-64.07A151,151,0,1,1,240.8,584.48C312,558.8,374.45,480.65,386.87,396.14Z" transform="translate(-49.08 -46.74)"/><path class="cls-11" d="M325.49,610.12a151,151,0,0,0,108.56-256,151,151,0,1,1-194.23,229.3A150.33,150.33,0,0,0,325.49,610.12Z" transform="translate(-49.08 -46.74)"/><path class="cls-11" d="M345.6,624A151,151,0,0,0,482.1,408.32,151,151,0,0,1,240.8,584.48c.71-.26,1.42-.55,2.13-.82A150.4,150.4,0,0,0,345.6,624Z" transform="translate(-49.08 -46.74)"/><path class="cls-12" d="M348.38,327.48a150.27,150.27,0,0,1,81.68,24A151,151,0,0,0,271.15,608.29a151,151,0,0,1,77.23-280.81Z" transform="translate(-49.08 -46.74)"/><path class="cls-13" d="M348.38,327.48a150.41,150.41,0,0,1,95.73,34.23A151,151,0,0,0,279.47,612.88a151,151,0,0,1,68.91-285.4Z" transform="translate(-49.08 -46.74)"/><rect class="cls-14" x="735.18" y="428.75" width="73.47" height="47.87" transform="translate(446.21 -445.08) rotate(41.6)"/><polygon class="cls-15" points="712.98 429.21 734.41 448.24 766.2 412.44 755.47 402.91 712.98 429.21"/><polygon class="cls-16" points="764.89 413.92 766.2 412.44 764.45 410.89 719.31 409.16 712.68 364.92 711.26 363.66 709.89 365.21 717.86 410.2 764.89 413.92"/><path class="cls-17" d="M838.63,481.22c-16.22-8.46-38.69,5.69-56.09,22.82l10.85,46.35c7.6-4.9,23.24-4.68,23.24-4.68S854.86,489.67,838.63,481.22Z" transform="translate(-49.08 -46.74)"/><path class="cls-18" d="M796.52,548.8c7.13-14.27-2.62-32.39-8.75-49.69l-26.16,24.54,18.66,38.78Z" transform="translate(-49.08 -46.74)"/><path class="cls-14" d="M936,465c-33.18-20.76-68.63-33.4-106.65-36.95L796.9,573.14c40.37-1.13,75.66,11.92,106.65,37Z" transform="translate(-49.08 -46.74)"/><path class="cls-19" d="M872.94,540.34A216.38,216.38,0,0,1,907.88,558l.81-3.64a215.64,215.64,0,0,0-35.22-17.88Z" transform="translate(-49.08 -46.74)"/><path class="cls-20" d="M819.66,528.44c20.9-44.3,54.15-75.07,83.6-81A234,234,0,0,0,829.34,428L796.9,573.14q3.92-.1,7.75,0A197.57,197.57,0,0,1,819.66,528.44Z" transform="translate(-49.08 -46.74)"/><path class="cls-21" d="M889.91,589.17l-12.84-7.78c-7.18,27.05-10.83,28.59-20.25,43l17.71-12.92.53,19.67A166.65,166.65,0,0,0,889.91,589.17Z" transform="translate(-49.08 -46.74)"/><path class="cls-22" d="M887.36,599.58q1.42-5.15,2.55-10.41l-12.84-7.78c-3.86,14.55-6.71,21.71-10,27.47C874.17,603.13,881.66,599.84,887.36,599.58Z" transform="translate(-49.08 -46.74)"/><ellipse class="cls-23" cx="886.87" cy="574.88" rx="13.7" ry="16.01" transform="translate(-172.61 218.12) rotate(-15.89)"/><polygon class="cls-24" points="739.66 510.67 718.44 467.82 701.77 483.21 722.99 526.06 739.66 510.67"/><rect class="cls-14" x="691.75" y="481.63" width="51.77" height="33.73" transform="translate(362.16 -366.54) rotate(34.69)"/><polygon class="cls-15" points="670.37 432.5 666.82 471.07 680.24 480.35 699.43 452.62 670.37 432.5"/><polygon class="cls-16" points="656.39 423.85 665.64 456.38 698.25 454.33 699.43 452.62 698.55 452.01 666.73 455.35 658.78 424.48 656.87 423.16 656.39 423.85"/><path class="cls-25" d="M627,633l49.67,60.3L782.84,568,755.69,516.9S682.45,578.78,627,633Z" transform="translate(-49.08 -46.74)"/><path class="cls-26" d="M681.66,620.92c29.16-42.44,60.67-75.12,82.68-87.76l-8.65-16.26s-74.36,60.52-129.84,114.72l28.24,34.29A487.79,487.79,0,0,1,681.66,620.92Z" transform="translate(-49.08 -46.74)"/><path class="cls-18" d="M789.31,497.77c14.71-15.59,31.8-17.92,37.45-14.91s12.88,27.41,13.38,30.64c.67,4.25-11.55,8-13.85,2.82-2.4-5.35-6.43-14.54-6.43-14.54l-7.2,2.49s2,19.78-10,25.72S777.31,510.49,789.31,497.77Z" transform="translate(-49.08 -46.74)"/><rect class="cls-14" x="732.07" y="670.32" width="103.07" height="67.16" transform="translate(1089.27 -334.64) rotate(67.75)"/><path class="cls-26" d="M737.13,568.17a6,6,0,1,0-8.48-.82A6,6,0,0,0,737.13,568.17Z" transform="translate(-49.08 -46.74)"/><path class="cls-27" d="M737.25,566a4.26,4.26,0,1,0-6-.58A4.26,4.26,0,0,0,737.25,566Z" transform="translate(-49.08 -46.74)"/><circle class="cls-26" cx="746.61" cy="549.58" r="4.54" transform="translate(78.78 1193.21) rotate(-84.49)"/><path class="cls-27" d="M749.65,551.9a3.34,3.34,0,1,0-4.69-.45A3.32,3.32,0,0,0,749.65,551.9Z" transform="translate(-49.08 -46.74)"/><polygon class="cls-16" points="747.8 600.94 746.09 596.76 745.77 596.89 723.23 656.46 782.91 693.05 785.12 692.15 784.02 689.45 725.43 655.71 747.8 600.94"/><path class="cls-28" d="M893.33,568.52c3.85,5.57,3.26,13.28-1.31,17.23a9.35,9.35,0,0,1-2,1.32,9.22,9.22,0,0,0,4.2-2.07c4.57-4,5.16-11.67,1.31-17.23-3.32-4.81-8.86-6.43-13.25-4.25C886.2,562.7,890.55,564.49,893.33,568.52Z" transform="translate(-49.08 -46.74)"/><path class="cls-28" d="M891.89,579.05c1.55-2.06,1.12-5.4-.95-7.44s-5-2-6.54,0-1.12,5.4,1,7.44S890.35,581.11,891.89,579.05Z" transform="translate(-49.08 -46.74)"/><path class="cls-19" d="M917.57,494.07l.88-3.92c-24.14-15.1-49.93-24.3-77.59-26.88l-.87,3.87C867.59,469.94,893.39,479.13,917.57,494.07Z" transform="translate(-49.08 -46.74)"/><path class="cls-19" d="M915.89,502.62l.88-3.92c-24.14-15.1-49.93-24.3-77.59-26.88l-.86,3.87C865.91,478.48,891.71,487.68,915.89,502.62Z" transform="translate(-49.08 -46.74)"/><path class="cls-19" d="M914.21,511.17l.88-3.92C891,492.15,865.16,483,837.5,480.37l-.86,3.87C864.23,487,890,496.23,914.21,511.17Z" transform="translate(-49.08 -46.74)"/><path class="cls-19" d="M882.24,500a169.41,169.41,0,0,0-46.42-11.1l-.86,3.87A174.76,174.76,0,0,1,881.15,504Z" transform="translate(-49.08 -46.74)"/><path class="cls-19" d="M893.22,557.89q6.6,3.51,13,7.52l.82-3.65q-6.4-4-12.93-7.51Z" transform="translate(-49.08 -46.74)"/><path class="cls-23" d="M851.46,442.59c1.91.41,6.12,2.58,5.51,9.21-.57,6.15-6.35,5.17-7.13,5l-2.81-.56c-.33-.07-.36-.41-.33-.78,0-.18.06-.36.07-.53.05-.49.08-1.52.12-1.95s0-1.43.18-3.05.4-2.58.55-4.22.24-3,.28-3.48.91-.12,1.41,0l.74.11C850.49,442.41,851,442.49,851.46,442.59Zm.22,9.43a2.76,2.76,0,0,0,1.24-2.11,2.89,2.89,0,0,0-.79-2.28,3.46,3.46,0,0,0-.93-.69c0,.23,0,.46,0,.7-.07.72-.22,1.48-.28,2.13,0,.47-.12,1.12-.2,1.71-.05.34-.08.71-.12,1.06A3.18,3.18,0,0,0,851.68,452Z" transform="translate(-49.08 -46.74)"/><path class="cls-23" d="M860.65,447.71c-.13,1.09-.71,4.53-.83,5.57s-.49,4.63-.49,5.15a2.19,2.19,0,0,1,0,.29c0,.22-.11.24-.24.27a1.46,1.46,0,0,1-.65-.07c-.68-.16-.5,0-.39-1,.09-.77.75-5.57.91-6.91s.84-5.24.84-5.74c0-.14,0-.29,0-.43,0-.29.13-.52.39-.45s.45.13.76.2c.16,0,.19.18.17.34s-.08.31-.1.48C860.92,445.83,860.81,446.59,860.65,447.71Z" transform="translate(-49.08 -46.74)"/><path class="cls-23" d="M864.06,445.63c.51.14,1.79.27,2.71.52,2.74.75,4.5,1.23,5.25,2.55a4.39,4.39,0,0,1,.84,3c-.37,2.44-2.33,3.14-4.14,3.26a11.85,11.85,0,0,1-3.58-.39l-.37,2.19-.48,2.83c-.07.5-.33.53-.58.47s-.32-.13-.44-.17c-.33-.09-1.26-.25-1.59-.34s-.35-.37-.29-.76.58-3.26.75-4.33L863,449c0-.3.18-1,.34-1.73l.29-1.31C863.68,445.48,863.8,445.55,864.06,445.63Zm2.8,8.3a7.9,7.9,0,0,0,2.56.17,2.1,2.1,0,0,0,1.8-2.07,8.07,8.07,0,0,0,.08-1.64c0-1.27-1.26-2.1-2.46-2.6a10.25,10.25,0,0,0-1.29-.44l-1.12-.26-1.11,6.48A11.74,11.74,0,0,0,866.86,453.93Z" transform="translate(-49.08 -46.74)"/><path class="cls-23" d="M881.79,464.6h0c.22.08.12.17.09.31s-.06.47-.11.71-.3.11-.63,0-2.33-1-3-1.2-4.81-1.41-5.15-1.52-.41-.35-.36-.55.15-.73.32-1.54,1.37-6,1.5-6.61.81-4.68.93-5.23c0-.26.17-.3.33-.25s.44.27.7.36a13.84,13.84,0,0,0,1.34.53,10.35,10.35,0,0,0,1,.28c.83.17.39.6.29,1.08-.07.33-.69,2.59-.87,3.46s-.81,4.1-.89,4.48-.43,1.81-.5,2.14c0,.08-.07.23-.11.39s-.05.37-.1.56l-.11.71,2.88,1.06Z" transform="translate(-49.08 -46.74)"/><path class="cls-23" d="M895.54,463.5c-.38,1.31-2.43,6.93-7.78,4.76-2.69-1.09-3.47-3.47-3.62-5.63a13.27,13.27,0,0,1,.39-4c1-3.48,4.47-5.59,7.07-4.54a6.12,6.12,0,0,1,2.63,1.52C896.38,458.38,895.84,462.47,895.54,463.5Zm-1.65-.67c.91-3.15.17-6.49-2.2-7.45-.74-.3-1.28-.58-2-.21a6.16,6.16,0,0,0-3.94,4.16c-.88,3-.74,6.61,2.23,7.81S893,466,893.89,462.83Z" transform="translate(-49.08 -46.74)"/><path class="cls-23" d="M899.1,464.86c-.25.63-1.17,2.88-1.53,3.62-.12.25-.28.64-.44,1-.31.8-.65,1.71-.72,1.88,0,0,0,0,0,.06-.09.22-.22.26-.39.16a3.44,3.44,0,0,0-.6-.35c-.08,0-.08-.09,0-.18s.09-.18.15-.32c.16-.39,1.75-4.72,2.14-5.7s1.41-3.38,1.72-4,1-2.09,1.12-2.47l0-.08c.14-.35.23-.24.36-.15l.16.08a4.68,4.68,0,0,0,.49.22c.21.11.27.36.17.74a11.83,11.83,0,0,0-.28,2.52c0,.85,0,5.2,0,6.19,0,.51,0,1.4-.06,2.21l-.07,1.47.42-.3.94-.75c.72-.59,3.25-2.47,4.12-3.27s2.18-1.86,2.66-2.33,1.53-1.74,1.82-1.59c.11.05.09.24,0,.5s-.46.94-.73,1.5c-.44.93-1.12,2.65-1.46,3.52s-1.41,3.44-1.76,4.14l-1.21,3,0,.05c-.05.13-.15.15-.29.08s-.52-.26-.67-.36-.07-.1,0-.2.1-.17.15-.3c.13-.33,1.67-4,2.11-4.93.2-.44.51-1.22.76-1.87.16-.38.31-.77.45-1.19-.29.21-.57.4-.82.61-.47.32-.94.75-1.3,1-.63.5-2.53,2.08-3.08,2.52s-2.41,1.89-2.68,2.09-.63.41-.8.33-.16-.24-.15-.57.08-2.53,0-3.21-.11-3,0-3.75c0-.42.07-1.27.1-2.06,0-.46,0-1,.07-1.45l-.31.66C899.41,464.06,899.22,464.54,899.1,464.86Z" transform="translate(-49.08 -46.74)"/><path class="cls-23" d="M909.08,475.64c.2-.25.61-.69,1-1.08s1.27-1.22,1.62-1.68,1-1,1.33-1.39,1-1.07,1.42-1.52a11.06,11.06,0,0,1,1-1,17.71,17.71,0,0,0,1.45-1.39c.4-.41.72-.67,1.08-.46.17.1.1.57.06,1.19s-.37,2.24-.42,2.58-.32,2.91-.39,3.28-.24,2.57-.25,3.14-.25,2.08-.37,2.72a21.77,21.77,0,0,0-.22,2.38.63.63,0,0,1,0,.21c0,.05-.07,0-.24-.06l-1-.62c-.1-.06-.14-.11-.13-.29a7.28,7.28,0,0,1,.11-.76,5.58,5.58,0,0,1,.18-.93,6.93,6.93,0,0,0,.21-1.43c0-.21,0-.6.08-.94l.09-.62c0-.36,0-.38-.15-.46l-.59-.33-.82-.44c-.16-.08-.8-.46-1.4-.81l-1.14-.69,0,0c-.08-.05-.16,0-.27.09l-.13.16-.24.29c-.23.23-1.21,1.44-1.33,1.54a2.37,2.37,0,0,1-.46.49,4.13,4.13,0,0,0-.48.45c-.12.11-.24.25-.36.38s-.11.14-.28,0l-.38-.23c-.13-.07-.11-.16,0-.28a.18.18,0,0,1,.06-.08,1.19,1.19,0,0,1,.2-.2l.49-.55A6.77,6.77,0,0,0,909.08,475.64Zm6.8-.53a1.64,1.64,0,0,0,.07-.47c0-.4.27-1.74.33-2.4s.35-2.25.44-2.58a3.31,3.31,0,0,0,.1-1.16c-.08-.05-.4.36-.74.69s-1.55,1.64-1.91,2-1.35,1.47-1.68,1.76a.31.31,0,0,0-.1.1c-.12.23.26.39.43.49l1.1.61a5.76,5.76,0,0,1,.66.35c.37.22.79.5,1,.62S915.84,475.2,915.88,475.11Z" transform="translate(-49.08 -46.74)"/><path class="cls-29" d="M451.67,687.19H387c-14.52,0-14.52,31.12,0,31.12h64.68Z" transform="translate(-49.08 -46.74)"/><path class="cls-24" d="M440.46,693.17h-49c-11,0-11,19.89,0,19.89h49Z" transform="translate(-49.08 -46.74)"/><path class="cls-29" d="M391.89,714.88h49c11,0,5.06-23.77-5.94-23.77H386Z" transform="translate(-49.08 -46.74)"/><path class="cls-30" d="M389.23,717.29c-14.52,0-14.52-28.67,0-28.67h66.88v-4.48h-76.2c-16.14,0-16.14,37.22,0,37.22h76.2v-4.07Z" transform="translate(-49.08 -46.74)"/><path class="cls-31" d="M381.3,684.4l0-.26-189,0c-14.22,0-14.22,37.14,0,37.14h189v-.21C369.37,718.37,369.37,687.13,381.3,684.4Z" transform="translate(-49.08 -46.74)"/><path class="cls-32" d="M374.84,715.11H184.09c1.77,3.7,4.5,6.21,8.18,6.21h189v-.21C378.48,720.46,376.33,718.2,374.84,715.11Z" transform="translate(-49.08 -46.74)"/><path class="cls-29" d="M420.18,723.49H384.64c-18.09,0-18.09,44.77,0,44.77h35.54Z" transform="translate(-49.08 -46.74)"/><path class="cls-24" d="M430.24,730.08H394.7c-18.09,0-16.72,33.61,1.37,33.61h35.54Z" transform="translate(-49.08 -46.74)"/><path class="cls-29" d="M402.6,765.75h35.53c18.1,0,9.87-37.72-8.23-37.72H394.37Z" transform="translate(-49.08 -46.74)"/><polygon class="cls-29" points="336.2 702.66 361.04 704.26 391.51 702.66 336.2 702.66"/><path class="cls-33" d="M387.44,766.8c-18.1,0-18.1-41.27,0-41.27h43.09V719.1H375.81c-20.12,0-20.12,53.55,0,53.55h54.71V766.8Z" transform="translate(-49.08 -46.74)"/><path class="cls-34" d="M377.56,719.46l0-.36-235.64,0c-17.74,0-17.74,53.44,0,53.44H377.56v-.3C360.42,772.29,360.42,719.46,377.56,719.46Z" transform="translate(-49.08 -46.74)"/><path class="cls-35" d="M332.55,719.11l-190.66,0c-17.74,0-17.74,53.44,0,53.44H216.5C230.72,747.13,276.46,725,332.55,719.11Z" transform="translate(-49.08 -46.74)"/><path class="cls-36" d="M371,769.06H134.85a9.16,9.16,0,0,0,7,3.53H377.56v-.3A8.64,8.64,0,0,1,371,769.06Z" transform="translate(-49.08 -46.74)"/><path class="cls-29" d="M449.65,777.2H274.55c-18.5,0-18.5,47,0,47h175.1Z" transform="translate(-49.08 -46.74)"/><path class="cls-24" d="M449.65,786.43H288.13c-17.06,0-17.06,33.14,0,33.14H449.65Z" transform="translate(-49.08 -46.74)"/><polygon class="cls-29" points="398.6 732.24 347.86 732.24 357.91 776.76 408.66 776.76 398.6 732.24"/><path class="cls-37" d="M276,772.28H153.59c-20.57,0-20.57,56.21,0,56.21H276C253.7,809.38,256.58,790.7,276,772.28Z" transform="translate(-49.08 -46.74)"/><path class="cls-38" d="M271.11,823.92H144.71a11.34,11.34,0,0,0,8.88,4.57H276C274.17,827,272.57,825.44,271.11,823.92Z" transform="translate(-49.08 -46.74)"/><path class="cls-39" d="M278.53,822.34c-18.5,0-18.5-43.3,0-43.3H464.8v-6.76H270.09c-20.57,0-20.57,56.21,0,56.21H464.8v-6.15Z" transform="translate(-49.08 -46.74)"/><polygon class="cls-40" points="426.19 602.42 340.48 602.42 383.51 779.98 469.22 779.98 426.19 602.42"/><polygon class="cls-40" points="423.34 604.19 337.62 604.19 380.65 781.75 466.37 781.75 469.14 779.98 423.34 604.19"/><polygon class="cls-29" points="428.49 601.27 342.78 601.27 385.81 778.84 463.36 778.84 488.43 765.98 428.49 601.27"/><polygon class="cls-40" points="450.8 590.95 365.08 590.95 406.54 768.51 491.06 768.51 494.46 766.51 450.8 590.95"/><path class="cls-40" d="M418.12,636.56c-12.55,2.4-21.91,5.78-28.22,13.18L433,827.93c6.46-6.32,14.39-11.58,26.16-13.37l1.52-9.83Z" transform="translate(-49.08 -46.74)"/><path class="cls-41" d="M414.79,635.68c-12.55,2.41-22.09,7.22-28.41,14.62l43.11,178.19a49.33,49.33,0,0,1,28.33-15.24l-.66-8Z" transform="translate(-49.08 -46.74)"/><polygon class="cls-42" points="451.43 588.95 365.71 588.95 408.74 766.51 494.46 766.51 451.43 588.95"/><polygon class="cls-43" points="451.43 588.95 365.71 588.95 448.09 595.23 494.46 766.51 451.43 588.95"/><polygon class="cls-44" points="446.32 600.42 377.4 600.42 381.52 617.42 450.44 617.42 446.32 600.42"/><g class="cls-45"><path class="cls-24" d="M540.25,810.43H459.3l-.16-.7L418.62,641h80.95l.17.7Zm-79.51-1.83h77.19l-39.8-165.8H421Z" transform="translate(-49.08 -46.74)"/></g><g class="cls-45"><path class="cls-24" d="M399.73,685.4,392.55,656l.28-.35a23.29,23.29,0,0,1,16.55-9l.79-.08L418,678.13l-1,.14c-6.76.9-12.18,3-16.12,6.21Zm-5.19-28.93,6.29,25.72a33.88,33.88,0,0,1,14.89-5.59l-7-28A21.48,21.48,0,0,0,394.54,656.47Z" transform="translate(-49.08 -46.74)"/><path class="cls-24" d="M430.81,812.64l-12.71-52,.29-.35c4-4.83,9.66-7.18,17.33-7.18h.82L449,803.36l-1,.12c-7.69.87-12.77,3.29-16,7.61Zm-10.72-51.58,11.61,47.5c3.37-3.67,8.22-5.85,15-6.77l-11.62-46.9C428.51,755,423.59,757,420.09,761.06Z" transform="translate(-49.08 -46.74)"/></g><path class="cls-46" d="M356.05,767.77H146.74l-.27-.34c-6.47-7.88-6.46-35.3,0-43.15l.28-.33,209.2,0,.13,1.79-.6.25c-1.78.75-3.63,7.43-3.73,18.76-.1,11.94,1.86,20.23,3.74,21l.55.24Zm-208.43-1.83H353.15c-3.25-5-3.23-19.4-3.22-21.23,0-3.72.38-14.74,3.22-19l-205.52,0C142,733.33,142,758.35,147.62,765.94Z" transform="translate(-49.08 -46.74)"/><polygon class="cls-29" points="250.48 759.58 287.74 761.18 333.46 759.58 250.48 759.58"/><polygon class="cls-29" points="283.17 746.55 320.43 748.15 366.14 746.55 283.17 746.55"/><g class="cls-45"><path class="cls-24" d="M255.57,826.44H158c-9.72,0-14.15-13.5-14.15-26.05s4.43-26.06,14.15-26.06h98.09l.15,1.82c-6.18,1-9.44,14.72-9,27.43.4,12.16,3.77,20.61,8.39,21ZM158,776.16c-8.09,0-12.32,12.19-12.32,24.23S150,824.61,158,824.61h93.53c-4.07-3.76-5.86-12.66-6.14-21-.37-11.22,1.92-23,6.92-27.48Z" transform="translate(-49.08 -46.74)"/></g><path class="cls-47" d="M259.94,691c42,0,78.81-2.77,99-6.89l-166.64,0a8.17,8.17,0,0,0-6.57,3.53C205.77,689.78,231.66,691,259.94,691Z" transform="translate(-49.08 -46.74)"/><g class="cls-45"><path class="cls-24" d="M442.72,699.13c.13.52.26.74.39,1.26l.71,2.66c.1.39.19.79.27,1.12s.08.39.13.57c.24,0,.48,0,.7,0,.4,0,.86,0,1.21,0,.68,0,1.3.05,2,.05s1.27-.07,1.77-.07,1,0,1.18,0,.24.12.3.36.08.45.14.7,0,.27-.31.27a1.42,1.42,0,0,1-.34,0c-.34,0-1.18-.06-2-.06-.46,0-.92,0-1.32,0s-.66,0-1,0c-1,0-2,0-2.42,0s-.46-.14-.51-.34,0-.22-.07-.36a1.73,1.73,0,0,0,0-.2c0-.16-.11-.29-.36-1.28-.36-1.37-.9-3.11-1.29-4.62s-.81-3.72-1-4.64-.67-2.6-.94-3.43.77-.45,1.34-.45,2.06-.13,3.05-.13,2.84.07,3.22.07.41.36.47.6l.07.25c.05.22.13.51.05.51s-.25-.06-.6-.06h-2.95l-2.28,0c-.28,0-.58,0-.81.06l-.42,0,.12.6c.07.34.17.72.26,1.06.16.62.38,1.21.52,1.72l.23.9a4.84,4.84,0,0,0,.16.56,4.26,4.26,0,0,0,.5,0h.74c.31,0,.68-.09,1.25-.09s1.23.09,1.46.09.49-.07.93-.07.92.07,1.29.07a1.06,1.06,0,0,0,.27,0l.11,0a.31.31,0,0,1,.29.29c0,.11.15.63.17.81s.07.24-.21.24-1.9-.24-2.6-.24-1.57,0-2.28.06a5.77,5.77,0,0,1-1.08.05,4.43,4.43,0,0,1-.52,0l0,.35A5.46,5.46,0,0,0,442.72,699.13Z" transform="translate(-49.08 -46.74)"/><path class="cls-24" d="M454.52,690.48c-.17-.65.4-.61.78-.61a11.84,11.84,0,0,0,2-.18c.5-.06.6.32.7,1,.06.34.58,2.36,1.12,4.46s1.11,4.31,1.31,5.07c.49,1.91,1.84,6.61,1.58,5.6.07.27,0,.36-.21.36a1,1,0,0,1-.22,0,1.37,1.37,0,0,0-.3,0c-.41,0-1,.09-1.4.09s-.72-.25-1.09-.83-1.25-2-2.1-3.12c-.42-.56-1.21-1.7-1.91-2.71l-1.29-1.86.22.85c.13.52.25,1.06.4,1.57.26,1,1.24,4.71,1.49,5.31a2.19,2.19,0,0,1,.08.27c.09.34,0,.34-.26.32a10.57,10.57,0,0,0-1.4.13c-.37.07-.47-.09-.64-.81s-1.08-3.83-1.84-6.54c-.49-1.91-1-4.4-1.47-6.06a14.59,14.59,0,0,0-.44-1.5c-.07-.2-.13-.36-.17-.51-.16-.63,0-.72.3-.7a2.31,2.31,0,0,0,1.05-.13,1.35,1.35,0,0,1,.39,0c.21,0,.33,0,.86,0,.77,0,1.48,1.23,2,2,.27.38.57.76.81,1l.41.52L455,692.2C454.78,691.56,454.59,690.82,454.52,690.48Z" transform="translate(-49.08 -46.74)"/><path class="cls-24" d="M467.15,699.47c-.32-.05-.39-.18-.43-.32a5.68,5.68,0,0,1-.08-.87c0-.54.13-.49.34-.47s.81.13,1.57.22,1.91.36,2.49.38a.64.64,0,0,1,.52.41,1.13,1.13,0,0,1,.12.38c1.27,6-1,7.29-2.55,7.29-1.16,0-5.35-1.15-7.1-7.9-2-7.77,1.44-8.54,2.76-8.54,2.75,0,4.51,2.83,4.66,3.05s.38.7.5.9a.48.48,0,0,1,.05.11c0,.13-.06.13-.26.29s-.79.63-1.11.83-.55.56-.8.81a2,2,0,0,1-.27.29c-.05,0-.08.07-.13.07a.33.33,0,0,1-.14,0c-.15,0-.23-.25-.38-.4s-.51-.76-1-.76c-.81,0-.68,1.92-.34,3.22s.8,3.41,2,3.41c.59,0,.74-.56.74-1.12a4.43,4.43,0,0,0-.16-1.12l-.39-.09C467.59,699.54,467.36,699.49,467.15,699.47Z" transform="translate(-49.08 -46.74)"/><path class="cls-24" d="M484.68,705.92l.05.12c0,.15-.08.18-.38.18s-3-.07-3.64-.07-2.23.13-3,.13l-.32,0a2.75,2.75,0,0,0-.43,0c-.46,0-1.07,0-1.39,0s-.35-.15-.46-.58-.79-3.5-.93-4-.6-2-.79-2.72c.28,1.08-.74-3.72-.91-4.37l-.67-2.53c-.05-.2-.33-1.12-.41-1.43v0c-.07-.27.25-.15.42-.15s.28,0,.7,0h.17c.07,0,.11,0,.15.18s.92,4.06,1.09,4.71l.81,3.2c.09.36.4,1.41.58,2.09a4.78,4.78,0,0,1,.13.58,3.21,3.21,0,0,0,.1.4.22.22,0,0,0,.05.11l.45,0a6.25,6.25,0,0,0,1,0l3.4,0c.7,0,2.54.09,2.82.09s.21.06.23.13,0,.16,0,.25l.27,1C483.94,703.77,484.62,705.68,484.68,705.92Z" transform="translate(-49.08 -46.74)"/><path class="cls-24" d="M483.62,693.73c.31,1.21,1.15,5,1.45,6.19s1.37,5.09,1.57,5.65c.05.13.07.22.1.31.06.25,0,.29-.1.36s-.32.09-.54.09c-.61,0-.42.09-.69-.94-.22-.86-1.52-6.17-1.9-7.65s-1.32-5.83-1.52-6.36c0-.16-.09-.32-.13-.48s-.1-.58.14-.58l.69,0c.14,0,.22.14.26.32s.06.36.1.54C483.12,691.64,483.32,692.5,483.62,693.73Z" transform="translate(-49.08 -46.74)"/><path class="cls-24" d="M493.65,692.54a.52.52,0,0,1,.13.2,1,1,0,0,1,0,.32c-.08.2-.22.85-.36,1.12s-.06.38-.27.38-2.47-2.31-3.81-2.31c-.48,0-1.17,0-.78,1.55s1.85,2.1,2.81,2.53a8.27,8.27,0,0,1,5.14,6c.76,3-.88,4.3-3.88,4.3a6.18,6.18,0,0,1-4.77-2.53.65.65,0,0,1-.14-.22c0-.1,0-.16.08-.3a7.49,7.49,0,0,1,.45-1,.12.12,0,0,1,.12-.09c.13,0,.3.25.5.43a4.37,4.37,0,0,0,2.8,1.32c.67,0,1.69-.18,1.33-1.55s-1.84-2.58-2.85-3.29-3.8-1.75-4.55-4.65a3.59,3.59,0,0,1,2.81-4.7C491.16,690.1,493.46,692.36,493.65,692.54Z" transform="translate(-49.08 -46.74)"/><path class="cls-24" d="M501.15,696.55a6.32,6.32,0,0,0,.7,0,1.94,1.94,0,0,1,.35,0,2.55,2.55,0,0,1,.39,0l.44,0-.12-.67-.23-1.08c-.13-.53-.83-3.51-.94-3.92s-.09-.56.18-.58a6.56,6.56,0,0,0,1-.14,4.19,4.19,0,0,1,.53,0,5.9,5.9,0,0,1,1,.07c.39.07.32.16.47.54s.55,2.62.74,3.36.61,3.21.83,4.08.95,3.52,1.19,4.44.7,2.64.86,3.07v0c.12.42-.13.33-.28.33a1.49,1.49,0,0,0-.38,0c-.12,0-.26,0-.46,0a14.08,14.08,0,0,1-1.64.07h0c-.31,0-.31-.23-.39-.54s-.64-2.38-.9-3.18c-.13-.43-.32-1.1-.47-1.66-.1-.34-.19-.67-.28-1h-.53l-.79,0-.32,0-.38,0a3.78,3.78,0,0,1-.45,0l.32,1.41c.14.78.36,1.61.47,2s.19.74.29,1.14c.16.61.31,1.21.41,1.46.18.45-.12.38-.39.38s-.78-.09-1.09-.09-1,.11-1.46.14-.51-.34-.59-.63-.43-1.91-.58-2.49-.54-2.22-.88-3.52c-.12-.49-.23-.9-.31-1.14s-.27-.83-.4-1.35c-.22-.83-.41-1.72-.54-2.24-.21-.79-.8-3.72-.91-4.15-.07-.27,0-.31.14-.31l.25,0a10.12,10.12,0,0,0,1.4.09c.42,0,1.07,0,1.29,0h0c.18,0,.2.22.25.4s.43,1.52.74,2.71c.16.61.32,1.33.46,1.93l.23,1Z" transform="translate(-49.08 -46.74)"/></g><g class="cls-45"><path class="cls-24" d="M447.9,724.4a.59.59,0,0,0,0-.13c0-.1-.07-.23-.13-.48s-.79-2.9-1.09-4-.65-2.59-.83-3.29-.61-2.1-.73-2.55-.15-.68,0-.68h0c.08,0,.14.06.25.06s.39,0,.57,0l.53,0a9.88,9.88,0,0,1,1.37.08c.35,0,1,0,2.48,1.26a8.7,8.7,0,0,1,2.49,4.6c.36,1.41.36,3.74-.42,4.52a4.84,4.84,0,0,1-2.86.92h-1.37A.23.23,0,0,1,447.9,724.4Zm.47-6.55c.26,1,.55,1.8.73,2.5l.53,2.12L450,724a2.28,2.28,0,0,0,1.59-.41c.71-.52,1.25-1.77.57-4.41s-1.87-3.91-2.85-4.52a3.65,3.65,0,0,0-1.82-.56l.33,1.49C448,716.44,448.25,717.37,448.37,717.85Z" transform="translate(-49.08 -46.74)"/><path class="cls-24" d="M452.75,713.75c-.13-.52,0-.64.11-.64a.28.28,0,0,1,.11,0c.23,0,.66,0,1.06,0,.24,0,.33.11.37.26s0,.21.05.36a26.39,26.39,0,0,0,.58,2.87c.09.42.21.88.32,1.3.3,1.17.6,2.22.67,2.49s.39,1.33.54,1.92a2.9,2.9,0,0,1,.08.38,3.56,3.56,0,0,0,.09.38c.11.45.32,1.14.38,1.39s-.11.33-.32.31h-1.22c-.31,0-.37-.23-.45-.51s-.14-.82-.28-1.39-.72-3.46-.84-3.9-.64-2.7-.74-3.1c-.05-.19-.14-.57-.2-.88l-.13-.59Z" transform="translate(-49.08 -46.74)"/><path class="cls-24" d="M464.13,722.81a.53.53,0,0,1,0,.18,2.21,2.21,0,0,1-2.19,1.88c-1.76,0-4.1-2.58-5-6s.15-5.73,1.66-5.73a3.82,3.82,0,0,1,2.74,1.41.85.85,0,0,1,.23.34.31.31,0,0,1-.08.26,5,5,0,0,0-.62,1c-.09.23-.17.43-.3.43s-.15,0-.26-.17c-.35-.34-.65-.69-1-.69-.58,0-1.23.84-.53,3.53s2,3.19,2.4,3.19.68-.46.78-.64.08-.19.15-.19a.34.34,0,0,1,.18.06l1.34.77C463.9,722.6,464.09,722.65,464.13,722.81Z" transform="translate(-49.08 -46.74)"/><path class="cls-24" d="M469.59,719.67c.35,1.36,1.19,3.76,1.35,4.4s-.26.51-1.05.51-2.78-.07-3.05-.07c-.11,0-.17-.13-.22-.32s-.12-.69-.23-1.1c-.07-.21-.22-.77-.41-1.49-.44-1.71-1.08-4.33-1.3-5.49-.08-.42-.18-.8-.27-1.15-.13-.5-.25-.93-.35-1.21h-.25l-1.1,0c-.1,0-.14-.12-.18-.26s0-.23-.08-.36,0-.22.1-.22.19,0,.33,0l2.85,0c.75,0,3.13-.05,3.45-.05s.28.25.35.52,0,.38-.22.38-.5,0-1.14,0h-.05C468.42,715,469.3,718.53,469.59,719.67Z" transform="translate(-49.08 -46.74)"/><path class="cls-24" d="M472,715.59c.23.88.84,3.68,1.06,4.52s1,3.72,1.15,4.12c0,.1.05.17.07.23s0,.22-.07.27-.23.06-.4.06c-.44,0-.3.07-.5-.69s-1.1-4.5-1.39-5.58-1-4.26-1.1-4.65c0-.12-.08-.23-.11-.35s-.06-.42.11-.42h.5c.11,0,.16.1.19.23s0,.27.08.4C471.59,714.06,471.74,714.68,472,715.59Z" transform="translate(-49.08 -46.74)"/><path class="cls-24" d="M481.41,718.85c.28,1.11,1.3,6-2.32,6-1.81,0-3.1-1.58-4-3.16a16.23,16.23,0,0,1-1.29-3.18c-.76-2.95.27-5.62,2-5.62a3.37,3.37,0,0,1,1.94.34C480,714.7,481.18,718,481.41,718.85Zm-1.12,0c-.69-2.67-2.32-5-3.91-5-.5,0-.89,0-1.13.45a5.18,5.18,0,0,0-.53,4.38c.67,2.57,2.07,5.24,4.07,5.24S481,721.53,480.29,718.85Z" transform="translate(-49.08 -46.74)"/><path class="cls-24" d="M485.54,718.93c.29,1.13.95,3.49,1.08,4s.39,1.31.46,1.57v0c.06.23,0,.27-.19.27s-.56.06-.88.06l-1.29,0c-.37,0-.4-.24-.5-.46a4.86,4.86,0,0,1-.24-.71c-.05-.19-.1-.4-.16-.68-.24-.93-.72-2.88-.84-3.62s-.69-3.57-.86-4.22-.34-1.3-.46-1.94c-.07-.37.09-.44.26-.44s.28,0,.36,0l1.13,0a.76.76,0,0,1,.75.33l1.4,2.19c.53.82,2,3.16,2.51,3.95.26.41.7,1,1.08,1.6l.68,1-.28-.95-.46-1.6c-.05-.17-.09-.33-.13-.49-.18-.71-.34-1.36-.44-1.82s-.48-1.76-.64-2.36l-.35-1.57c-.05-.2,0-.25.13-.25a1.16,1.16,0,0,1,.29,0,1.33,1.33,0,0,0,.47,0c.15,0,.19.05.22.15s0,.2.06.33c.07.31,1,3.86,1.17,4.71,0,.15.07.3.11.48.25.95.68,2.33.84,2.95s.73,2.55.81,2.86v0c.08.29,0,.31-.18.29h-.16a3.71,3.71,0,0,1-.46,0c-.15,0-.16,0-.39-.33s-1.51-2.55-1.93-3.2-2-3.18-2.51-4c-.24-.38-.63-1-1-1.43l-.61-.85.44,1.56C485.12,717.39,485.39,718.35,485.54,718.93Z" transform="translate(-49.08 -46.74)"/><path class="cls-24" d="M492.71,722.75c0-.27,0-.76-.06-1.2s0-1.41-.06-1.88,0-1.18,0-1.56-.05-1.2-.07-1.69,0-.9,0-1.15,0-1.16,0-1.6,0-.79.27-.79.31.36.57.82.87,1.75,1,2,1.21,2.21,1.35,2.5,1.08,1.94,1.33,2.35.86,1.59,1.09,2.09.88,1.57,1,1.79a.44.44,0,0,1,.08.16s0,.07-.13.07h-.75c-.07,0-.11,0-.19-.15a182,182,0,0,1-.65-1.33,9.63,9.63,0,0,0-.56-1.11,6.68,6.68,0,0,1-.4-.71l-.24-.47c-.17-.26-.2-.26-.29-.26a2.68,2.68,0,0,0-.41,0l-.57,0h-1.83c-.06,0-.08,0-.08.18l0,.17,0,.31c0,.26.12,1.54.12,1.67a2.44,2.44,0,0,1,0,.54,2.87,2.87,0,0,0,0,.52,3.16,3.16,0,0,0,0,.43c0,.13,0,.15-.11.15h-.26c-.1,0-.13-.07-.13-.22a.21.21,0,0,1,0-.08,1.29,1.29,0,0,1,0-.23l0-.6A7.41,7.41,0,0,0,492.71,722.75Zm2.76-3.28a1.84,1.84,0,0,0-.19-.36c-.18-.3-.68-1.36-1-1.85s-.88-1.76-1-2a4,4,0,0,0-.5-.87,3.12,3.12,0,0,0,0,.8c0,.36.07,1.83.06,2.23s.08,1.62.07,2a.47.47,0,0,0,0,.12c.05.21.3.16.42.16l.77,0a2.2,2.2,0,0,1,.45,0h.72C495.46,719.58,495.49,719.55,495.47,719.47Z" transform="translate(-49.08 -46.74)"/><path class="cls-24" d="M499.47,719.27c.24.72,1.3,4.77,1.41,5.18s-.26.41-.43.41-.22-.28-.28-.46-.14-.43-.23-.77c0-.17-.08-.33-.11-.49-.08-.36-1.08-4.43-1.75-7-.29-1.13-.53-2-.61-2.19a2.13,2.13,0,0,1-.1-.35c-.09-.34,0-.37.14-.37s1.45.05,2,.05,2.6.18,3,1.62c.5,1.93-1.65,2.23-2.32,2.23-.11,0-.18,0-.2,0,.16.15,5.49,6.36,6.12,7,.39.36.49.5.52.6s0,.08,0,.12a1.19,1.19,0,0,1-.58.1c-.56,0-.55-.1-.77-.45s-1.91-2.16-2.85-3.29c-.47-.57-1.29-1.47-2-2.24l-1.29-1.41.12.65A8.48,8.48,0,0,0,499.47,719.27Zm0-2.88a7.61,7.61,0,0,0,1.18-.13c.67-.15,1.15-.36,1-1.08s-1.38-1-1.92-1c-.34,0-.67,0-.94,0h-.46l.52,2.29Z" transform="translate(-49.08 -46.74)"/><path class="cls-24" d="M509.07,724.71l-.49,0c-.12,0-.17,0-.19-.1a1.15,1.15,0,0,1,0-.18c0-.15.06-1.33.06-1.59s0-.9.05-1.21.07-.44,0-.62-.51-1-.76-1.43-.49-1-.77-1.48-1.76-3.24-2-3.66-.45-.69-.49-.87.15-.2.34-.22h.54a3.89,3.89,0,0,1,.55,0c.24.05.2.16.28.35s.39.78.7,1.35c.21.41.56,1.12.82,1.55s.46.8.69,1.24c.13.24.28.51.42.79v-.41c0-.25,0-.5,0-.71l0-.49,0-.42c0-.07,0-.22,0-.43a3.42,3.42,0,0,1,0-.48,14.46,14.46,0,0,0,0-1.88c0-.55.2-.48.38-.48s.59,0,.85,0,.31.08.33.16,0,.09,0,.15,0,1.28-.06,1.9-.19,2.95-.22,3.67-.26,3.62-.24,3.9.09,1,.1,1.2,0,.34-.12.32h-.37A3.07,3.07,0,0,1,509.07,724.71Z" transform="translate(-49.08 -46.74)"/></g><g class="cls-45"><path class="cls-46" d="M156.28,744.05a.5.5,0,0,0,0-.17c0-.12,0-.27,0-.57s.14-3.55.22-4.93.19-3.16.24-4,.05-2.56.08-3.12.08-.82.24-.82h.05c.11,0,.17.06.31.06s.53,0,.76,0l.68,0a13.27,13.27,0,0,1,1.76.1c.44.06,1.25,0,2.72,1.54s1.49,3.86,1.39,5.62-1,4.56-2.37,5.53a8.48,8.48,0,0,1-4.11,1.11H156.5C156.22,744.36,156.22,744.18,156.28,744.05Zm3.26-8c-.07,1.2,0,2.2-.07,3.06,0,.42-.1,1.56-.16,2.58-.05.6-.08,1.24-.12,1.93a3.81,3.81,0,0,0,2.24-.51c1.13-.63,2.34-2.16,2.52-5.38s-.86-4.78-1.89-5.52a3.76,3.76,0,0,0-2.15-.68l-.17,1.82C159.63,734.32,159.57,735.46,159.54,736Z" transform="translate(-49.08 -46.74)"/><path class="cls-46" d="M166.9,731c0-.64.2-.78.39-.78a.36.36,0,0,1,.14,0c.3,0,.88,0,1.38,0,.3,0,.38.14.37.32a3.51,3.51,0,0,1-.08.44,33,33,0,0,0-.4,3.5c0,.52-.08,1.08-.1,1.6-.08,1.42-.12,2.7-.14,3s0,1.62-.07,2.35a2.69,2.69,0,0,1,0,.45,3.73,3.73,0,0,0,0,.47c0,.55,0,1.4-.06,1.7s-.28.4-.54.37h-1.6c-.4,0-.39-.27-.38-.61s.16-1,.19-1.71.47-4.22.49-4.76.26-3.3.28-3.78c0-.24.06-.7.1-1.08l.07-.72Z" transform="translate(-49.08 -46.74)"/><path class="cls-46" d="M178.07,742.1a.6.6,0,0,1-.06.23,4.29,4.29,0,0,1-3.61,2.3c-2.3,0-4.31-3.17-4.08-7.33s2.52-7,4.48-7a3.41,3.41,0,0,1,3,1.72.91.91,0,0,1,.17.42.62.62,0,0,1-.21.32,8.64,8.64,0,0,0-1.23,1.26c-.21.28-.4.52-.57.52s-.17-.06-.27-.2c-.31-.42-.57-.84-1-.84-.77,0-1.94,1-2.12,4.3s1.36,3.9,1.85,3.9,1.06-.56,1.27-.78.18-.24.27-.24a.4.4,0,0,1,.21.08l1.43.94C177.86,741.85,178.08,741.91,178.07,742.1Z" transform="translate(-49.08 -46.74)"/><path class="cls-46" d="M186.46,738.26c-.1,1.66,0,4.6,0,5.38s-.54.63-1.58.63-3.6-.09-4-.09c-.14,0-.17-.15-.15-.39s.11-.84.14-1.34c0-.27,0-1,.07-1.83.11-2.08.34-5.28.52-6.7.07-.52.09-1,.12-1.4,0-.62,0-1.14,0-1.48l-.32,0-1.45,0c-.13,0-.14-.14-.13-.32s0-.28,0-.44.08-.26.2-.26.25,0,.42,0l3.73,0c1,0,4.1-.06,4.52-.06s.27.3.25.64-.17.46-.45.46-.66,0-1.49,0h-.07C186.82,732.54,186.53,736.88,186.46,738.26Z" transform="translate(-49.08 -46.74)"/><path class="cls-46" d="M191.19,733.28c-.06,1.08-.39,4.5-.45,5.52s-.19,4.54-.17,5.05a1.2,1.2,0,0,1,0,.27c0,.23-.08.27-.19.33a1.1,1.1,0,0,1-.55.08c-.58,0-.42.07-.37-.85,0-.76.37-5.5.45-6.82s.46-5.2.43-5.68c0-.14,0-.28,0-.42s.08-.52.31-.52l.64,0c.14,0,.17.12.16.28s-.05.32-.06.48C191.33,731.42,191.27,732.18,191.19,733.28Z" transform="translate(-49.08 -46.74)"/><path class="cls-46" d="M202.19,737.26c-.07,1.36-.73,7.34-5.45,7.34-2.36,0-3.41-1.92-3.92-3.86a14.91,14.91,0,0,1-.39-3.88c.19-3.6,2.62-6.86,4.91-6.86a3.85,3.85,0,0,1,2.39.42C202,732.2,202.25,736.2,202.19,737.26Zm-1.45,0c.18-3.26-1-6.08-3.1-6.08a1.75,1.75,0,0,0-1.66.56,7.92,7.92,0,0,0-2.45,5.34c-.17,3.14.58,6.41,3.19,6.41S200.56,740.54,200.74,737.26Z" transform="translate(-49.08 -46.74)"/><path class="cls-46" d="M207.54,737.36c-.08,1.38-.17,4.26-.2,4.86s0,1.6,0,1.93v0c0,.29-.17.33-.35.33s-.76.08-1.18.08-1.22,0-1.7,0-.42-.3-.46-.57a4.12,4.12,0,0,1,0-.87c0-.23,0-.48.06-.83.07-1.14.23-3.52.37-4.42s.54-4.36.58-5.16.09-1.58.19-2.36c.06-.46.29-.54.52-.54s.34,0,.45,0l1.49,0c.51,0,.71.1.84.4s.57,1.66.93,2.68,1.31,3.86,1.68,4.82c.18.5.51,1.26.77,2L212,741l0-1.16,0-2,0-.6c.05-.86.11-1.66.16-2.22s.09-2.14.13-2.88l.17-1.92c0-.24.14-.3.28-.3a1.7,1.7,0,0,1,.35.06,1.82,1.82,0,0,0,.61,0c.19,0,.22.06.22.18s-.05.24-.06.4c0,.38-.31,4.72-.37,5.76,0,.18,0,.36-.05.58-.06,1.16,0,2.84-.09,3.6s-.09,3.12-.11,3.5v.05c0,.36-.2.37-.35.36a.65.65,0,0,0-.21,0c-.21,0-.46,0-.6,0s-.21,0-.38-.41-.93-3.12-1.22-3.92-1.36-3.88-1.68-4.82c-.17-.46-.44-1.16-.69-1.74l-.45-1,0,1.9C207.61,735.48,207.58,736.66,207.54,737.36Z" transform="translate(-49.08 -46.74)"/><path class="cls-46" d="M221.12,730.38c0-.58.55-.54.92-.54a14.17,14.17,0,0,0,1.94-.16c.49-.06.47.28.37.9,0,.3-.15,2.1-.26,4s-.21,3.84-.25,4.52c-.09,1.7-.2,5.91-.15,5,0,.24-.12.32-.3.32a.9.9,0,0,1-.21,0,.74.74,0,0,0-.27,0c-.39,0-1,.09-1.36.09s-.62-.22-.8-.75-.6-1.76-1.07-2.78c-.23-.5-.65-1.52-1-2.42l-.68-1.66,0,.76c0,.46-.07.94-.08,1.4-.05.9-.21,4.2-.16,4.74,0,.11,0,.19,0,.25,0,.3-.14.3-.35.28a12.32,12.32,0,0,0-1.37.12c-.37.06-.42-.09-.37-.72s.1-3.43.19-5.85c.09-1.7.3-3.92.38-5.4a12.79,12.79,0,0,0,0-1.34,3.68,3.68,0,0,1,0-.46c0-.56.25-.64.49-.62a2.79,2.79,0,0,0,1-.12,1.71,1.71,0,0,1,.39,0c.19,0,.3,0,.8,0,.74,0,1.05,1.1,1.34,1.74a10.36,10.36,0,0,0,.46.94l.24.46.06-1.1C221.05,731.34,221.09,730.68,221.12,730.38Z" transform="translate(-49.08 -46.74)"/><path class="cls-46" d="M225.78,742c.07-.33.24-.93.41-1.47s.57-1.72.69-2.3.44-1.44.56-1.9.41-1.46.58-2.06.34-1.1.48-1.4a18.7,18.7,0,0,0,.65-2c.18-.56.34-1,.67-1,.16,0,.26.44.42,1s.42,2.14.49,2.46.68,2.7.74,3.06.63,2.36.79,2.86.47,1.95.58,2.56.51,1.93.58,2.19a.77.77,0,0,1,0,.19c0,.06,0,.09-.2.09h-1c-.08,0-.14,0-.18-.18s-.11-.51-.15-.72a6.15,6.15,0,0,1-.16-.9,7.85,7.85,0,0,0-.3-1.37c-.06-.18-.16-.54-.23-.86l-.12-.58c-.11-.32-.14-.32-.27-.32a4.78,4.78,0,0,0-.54,0l-.76,0c-.14,0-.73,0-1.29,0h-1.11c-.07,0-.12.06-.17.22l0,.2-.09.38c-.11.32-.46,1.88-.52,2a2.87,2.87,0,0,1-.19.66,4.08,4.08,0,0,0-.21.63,4.61,4.61,0,0,0-.15.53c-.07.15-.05.18-.21.18h-.35c-.12,0-.13-.09-.07-.27a.18.18,0,0,1,0-.09,2,2,0,0,1,.09-.29l.2-.73C225.54,742.78,225.7,742.4,225.78,742Zm4.93-4a2,2,0,0,0-.1-.44c-.12-.36-.35-1.66-.51-2.26s-.44-2.14-.47-2.48a3.66,3.66,0,0,0-.29-1.06,4.26,4.26,0,0,0-.34,1c-.11.44-.65,2.24-.81,2.72s-.55,2-.71,2.4a.34.34,0,0,0,0,.14c0,.26.32.2.48.2l1,0a3.79,3.79,0,0,1,.6,0l.94,0C230.65,738.16,230.7,738.12,230.71,738Z" transform="translate(-49.08 -46.74)"/><path class="cls-46" d="M235.52,731c0-.64.2-.78.39-.78a.36.36,0,0,1,.14,0c.3,0,.88,0,1.38,0,.3,0,.38.14.37.32s-.05.26-.08.44a30.33,30.33,0,0,0-.4,3.5c0,.52-.08,1.08-.11,1.6-.08,1.42-.11,2.7-.13,3s0,1.62-.08,2.35a3,3,0,0,1,0,.45,3.73,3.73,0,0,0,0,.47c0,.55,0,1.4-.06,1.7s-.29.4-.55.37h-1.59c-.4,0-.39-.27-.39-.61s.16-1,.2-1.71.46-4.22.49-4.76.25-3.3.28-3.78c0-.24.06-.7.1-1.08l.07-.72Z" transform="translate(-49.08 -46.74)"/><path class="cls-46" d="M246.86,743.82a1.38,1.38,0,0,1,.21.59c0,.13-.16.12-.34.12l-2,.06c-.3,0-.31-.5-.67-1.45-.21-.48-.65-1.62-1.06-2.7l-.79-2c0,.94,0,1.8,0,2.58,0,1.32,0,2.75,0,3a1.7,1.7,0,0,1,0,.21c0,.32-.2.39-.53.33s-1.81.17-2.27.17-.37-.17-.36-.44,0-.28,0-.46c0-.47,0-3.17.12-4.79a9.83,9.83,0,0,1,.11-1.1,26.46,26.46,0,0,0,.25-2.82c.08-1.46.13-3,.13-3.66,0-.16,0-.32,0-.44,0-.7.25-.62.42-.62s1.29-.2,2.33-.2c2.73,0,3.84,1.82,3.71,4.14a5.61,5.61,0,0,1-1,2.8,6.26,6.26,0,0,1-.86,1l1.08,2.54C246,742,246.63,743.43,246.86,743.82Zm-4.11-8.14a1.14,1.14,0,0,0,.55-1.06c0-.84-.22-1.14-.5-1.14a.49.49,0,0,0-.34.16c-.05.06,0,.62-.06,1.12a3.16,3.16,0,0,0-.11.7c0,.06,0,.12,0,.18s0,.1,0,.16A1,1,0,0,0,242.75,735.68Z" transform="translate(-49.08 -46.74)"/><path class="cls-46" d="M249.12,736.64c.09-1.54,0-1.68.07-2.88s.17-2.38.22-2.94c0-.38.16-.44.35-.44l.27,0c.26,0,.57.06,1.36.06s2-.18,2.64-.18,1.6.08,1.94.08.35.18.33.56,0,.9,0,1.52a3.78,3.78,0,0,1-.1.74c0,.24-.13.3-.26.3a2.36,2.36,0,0,1-.38-.1,9.25,9.25,0,0,0-1.52-.06c-.43,0-.89,0-1.33,0a3.77,3.77,0,0,0-.47,0c-.26,0-.6,0-.93,0l-.93,0c-.19,0-.18.1-.19.4s-.12,1.22-.16,1.92l-.07,1.18c0,.22,0,.42,0,.64a3.54,3.54,0,0,0,.48,0c.29,0,.73,0,1.22,0,.65,0,1.44-.08,1.86-.08s.66.06.86.06.22.1.21.24-.05.24-.07.62,0,.56,0,1.06c0,.26-.07.32-.18.32a2.43,2.43,0,0,0-.31-.06c-.28,0-.64,0-1.75,0a17.82,17.82,0,0,0-2.07.16.62.62,0,0,1-.23,0s-.09,0-.1,0l-.11,2h.19c.12,0,.3,0,.49,0l2.07,0c.58,0,1.5.05,2.21.05.31,0,.57,0,.73,0s.34.18.33.42,0,.28,0,.41c0,.39-.06.81-.1,1.4s-.3.43-.86.43l-3.08,0c-.84,0-2.54.08-2.77.08h-.11c-.16,0-.13-.15-.12-.33s0-.51,0-.75,0-.44,0-.86l.15-2.74C248.89,738.54,249,738.18,249.12,736.64Z" transform="translate(-49.08 -46.74)"/><path class="cls-46" d="M267.07,746.83v-.08c0-.31.07-.33.21-.33s.42,0,.62,0c.66,0,1.75-.08,2.24-.08l2,0c.51,0,1.24,0,1.65,0s.34.09.36.27,0,.2,0,.35l.33,2.39.14,1,0,.17c0,.2,0,.26-.24.26s-1.5-.12-1.84-.12h-1.93c-.27,0-.54,0-.75,0l-.38,0c0,.12,0,.25,0,.37l.09.67a4.34,4.34,0,0,1,0,.58v.26h.4l.72,0h1.31c.72,0,1.25-.08,1.67-.08s.38.12.4.25a2,2,0,0,1,0,.59c0,.22-.08.22-.22.22l-.73,0-1.69,0h-1c-.22,0-.45,0-.7,0l.26,2c.13,1,.23,2.08.26,2.39s.05.65.1,1,.15,1,.17,1.21c.05.33-.14.31-.37.31H269c-.3,0-.26-.29-.33-.72,0-.16-.11-.53-.17-1s-.14-1.27-.2-1.72c-.11-.8-.33-3-.39-3.46s-.19-.92-.3-1.8-.11-1.22-.19-1.79l-.24-1.84C267.14,747.92,267.12,747.22,267.07,746.83Z" transform="translate(-49.08 -46.74)"/><path class="cls-46" d="M285.18,760a1.93,1.93,0,0,1,.34.6c0,.14-.15.12-.33.12l-2,.06c-.31,0-.41-.51-1-1.47l-1.61-2.76-1.19-2c.18,1,.33,1.84.49,2.64.23,1.35.5,2.8.58,3a1,1,0,0,1,.05.2c0,.33-.13.41-.48.35s-1.85.16-2.32.16-.42-.16-.46-.45c0-.12,0-.28,0-.47-.06-.47-.57-3.23-.79-4.88a7.44,7.44,0,0,1-.09-1.13,26.22,26.22,0,0,0-.29-2.88c-.2-1.5-.44-3.11-.56-3.75,0-.16-.06-.32-.08-.44-.09-.72.13-.64.31-.64s1.3-.2,2.37-.2a4.44,4.44,0,0,1,4.63,4.23,4.83,4.83,0,0,1-.47,2.86,4.94,4.94,0,0,1-.7,1.07l1.61,2.59C284,758.2,284.88,759.64,285.18,760Zm-5.8-8.32c.25-.14.45-.45.36-1.08-.11-.86-.44-1.17-.73-1.17a.4.4,0,0,0-.32.16c-.05.07.14.64.15,1.15a3.27,3.27,0,0,0,0,.71c0,.07,0,.13,0,.19a.94.94,0,0,0,0,.16A.91.91,0,0,0,279.38,751.72Z" transform="translate(-49.08 -46.74)"/><path class="cls-46" d="M288.14,745.93c.05-.2.14-.24.24-.14a1.38,1.38,0,0,1,.31.57c.09.29.95,1.84,1.28,2.46s.71,1.37,1.07,2.18,1.54,2.91,2,3.89,1.69,2.93,2,3.48a14.92,14.92,0,0,0,1.09,1.84.69.69,0,0,1,.12.26c0,.15-.14.17-.3.17h-1.3c-.15,0-.29-.37-.46-.68s-.85-1.78-1-2.1-.44-.84-.61-1.17-.23-.41-.38-.41-.41,0-.71.06-1.43,0-1.93.08a5.24,5.24,0,0,1-.58,0l-1,0c-.16,0-.15.23-.18.45s-.13,1.5-.13,1.89l-.09.88-.06.59c0,.3-.06.39-.19.39h-1.07c-.07,0-.09,0-.1-.09a1.23,1.23,0,0,1,0-.28,4.84,4.84,0,0,0,.15-.78c.07-.55.33-2.45.36-3.31a17.37,17.37,0,0,1,.33-2.64c.05-.67.1-1,.21-2s.23-1.95.34-2.68l.23-1.64C288,746.61,288.1,746.16,288.14,745.93Zm2.83,7.43a.59.59,0,0,0-.08-.17c-.16-.24-.91-1.71-1.17-2.31s-.53-1.16-.6-1.27c-.17-.3-.2-.43-.29-.43s-.08.39-.12.78-.2,1.41-.24,1.8-.17,1-.22,1.35a2,2,0,0,0,0,.33c0,.08.05.12.18.12s1.84,0,2.14-.1S291,753.46,291,753.36Z" transform="translate(-49.08 -46.74)"/><path class="cls-46" d="M300.85,746.3c-.07-.59.47-.55.86-.55a13.12,13.12,0,0,0,2-.17c.5-.06.54.29.55.92,0,.31.25,2.15.5,4.07s.52,3.93.61,4.63c.23,1.74.92,6,.8,5.11,0,.25-.07.33-.25.33a1,1,0,0,1-.22,0,1.28,1.28,0,0,0-.29,0c-.4,0-1,.08-1.39.08s-.68-.23-1-.76-1-1.8-1.64-2.84c-.34-.51-1-1.56-1.52-2.48l-1-1.69.1.77c.06.47.11,1,.19,1.43.12.93.58,4.3.74,4.85a.68.68,0,0,1,.05.25c.05.31-.08.31-.3.28a13,13,0,0,0-1.4.13c-.37.06-.45-.09-.51-.74s-.55-3.5-.93-6c-.23-1.74-.44-4-.64-5.52a11.8,11.8,0,0,0-.23-1.37c0-.19-.08-.33-.1-.47-.07-.58.13-.66.39-.64a2.81,2.81,0,0,0,1.05-.12,1.74,1.74,0,0,1,.4,0c.19,0,.31,0,.83,0,.77,0,1.29,1.12,1.72,1.78.21.35.46.69.66,1l.33.47-.15-1.13C301,747.28,300.88,746.61,300.85,746.3Z" transform="translate(-49.08 -46.74)"/><path class="cls-46" d="M315.89,757.67a.47.47,0,0,1,0,.23,3.49,3.49,0,0,1-3.3,2.35,2.06,2.06,0,0,1-.36,0,2.12,2.12,0,0,0-.31.84c.22-.15.28-.19.85-.19s1.16.31,1.31,1.43a1.22,1.22,0,0,1-.42,1.11,1.2,1.2,0,0,1-.24.22c-.19.11-.3.21-1.12.21-.56,0-1.23-.16-1.26-.39a5.61,5.61,0,0,1,0-1c0-.06,0-.08,0-.08s.22.12.47.26a2,2,0,0,0,.71.13c.47,0,.63,0,.67-.54s-.18-.67-.52-.67-.43.28-.56.28c-.44,0-.55,0-.58-.16a2.28,2.28,0,0,1,0-.74,5,5,0,0,1,.13-.94,5.77,5.77,0,0,1-2.34-1.9A11.05,11.05,0,0,1,307,753a9,9,0,0,1,.73-4.77,3.13,3.13,0,0,1,2.62-2,4.42,4.42,0,0,1,3.44,1.76,1,1,0,0,1,.26.43c0,.08,0,.18-.16.32a6.87,6.87,0,0,0-1,1.29c-.16.29-.31.53-.49.53s-.19-.06-.32-.2c-.4-.43-.74-.86-1.2-.86s-.83.27-1.16.94a6.58,6.58,0,0,0-.27,3.05c.38,2.9,2.12,3.88,2.63,3.78s1-.57,1.17-.79.15-.25.24-.25a.48.48,0,0,1,.23.08l1.66,1C315.62,757.41,315.87,757.47,315.89,757.67Z" transform="translate(-49.08 -46.74)"/><path class="cls-46" d="M317.12,758.2c0-.32.07-.94.15-1.49s.25-1.76.27-2.35.18-1.47.21-1.94.15-1.5.22-2.11.14-1.13.22-1.43.28-1.45.3-2,.16-1,.51-1c.16,0,.35.45.62,1s.85,2.19,1,2.52,1.22,2.76,1.36,3.13,1.1,2.41,1.36,2.92.86,2,1.09,2.62.89,2,1,2.23c0,.1.07.16.08.2s0,.09-.19.09h-1c-.09,0-.14,0-.22-.19s-.21-.51-.3-.73a6.42,6.42,0,0,1-.33-.92,9.48,9.48,0,0,0-.57-1.39c-.09-.19-.27-.56-.4-.88l-.24-.6c-.17-.32-.21-.32-.34-.32a5.06,5.06,0,0,0-.56,0l-.77,0c-.14,0-.76,0-1.34,0h-1.14c-.07,0-.12.06-.13.22v.21l0,.39c0,.32-.11,1.92-.14,2.08a2.62,2.62,0,0,1-.07.68,3.72,3.72,0,0,0-.1.65,4.34,4.34,0,0,0-.05.53c0,.17,0,.19-.18.19H317c-.13,0-.16-.09-.13-.27a.19.19,0,0,1,0-.1,2.52,2.52,0,0,1,0-.29l.06-.75A8.48,8.48,0,0,0,317.12,758.2Zm4.33-4.09a2.1,2.1,0,0,0-.18-.45c-.19-.37-.68-1.69-1-2.31s-.86-2.19-1-2.53a4.14,4.14,0,0,0-.51-1.09,4.08,4.08,0,0,0-.16,1c0,.45-.24,2.3-.32,2.79s-.19,2-.28,2.45a.35.35,0,0,0,0,.14c0,.27.37.21.53.21l1,0a3.74,3.74,0,0,1,.61,0l1,0C321.42,754.26,321.47,754.22,321.45,754.11Z" transform="translate(-49.08 -46.74)"/><path class="cls-46" d="M325.1,747c-.09-.66,0-.8.25-.8a.44.44,0,0,1,.15,0c.31,0,.9,0,1.44,0,.31,0,.41.14.44.33s0,.26,0,.45a31.5,31.5,0,0,0,.26,3.57c.05.54.12,1.11.19,1.64.19,1.45.4,2.76.45,3.11s.27,1.66.36,2.39a2.94,2.94,0,0,1,.05.47,3.5,3.5,0,0,0,0,.47c.08.58.23,1.44.27,1.74s-.22.41-.5.39h-1.65c-.41,0-.45-.29-.51-.63s0-1-.12-1.74-.33-4.32-.41-4.87-.37-3.37-.43-3.86c0-.25-.08-.72-.11-1.11l-.06-.74Z" transform="translate(-49.08 -46.74)"/><path class="cls-46" d="M333.41,747.34c-1.76,0-2.4,1-2.24,2.27s1.29,2,2.27,2.56,4,1.15,4.49,4.62-2.41,4-4,4a5.3,5.3,0,0,1-3.14-1.41c-.16-.14-.18-.27-.14-.37s.17-.61.32-.61h0c.1,0,.09,0,.4.33a4.57,4.57,0,0,0,2.19.94c.65,0,2.69-.09,2.38-2.42-.15-1.16-1.66-1.78-3.18-2.7s-3-2-3.25-4.23a3.59,3.59,0,0,1,3.64-4.13,5.46,5.46,0,0,1,3.32,1.43c.14.1.21.18.22.29a.17.17,0,0,1-.05.16c-.07.1-.24.61-.39.61a.54.54,0,0,1-.25-.1l-.14-.12A5.25,5.25,0,0,0,333.41,747.34Z" transform="translate(-49.08 -46.74)"/></g><g class="cls-45"><path class="cls-24" d="M158.63,781.44c1.52,0,4.78,1.45,3.78,9.16-.94,7.17-5.57,7.45-6.19,7.45s-1.83.05-2.24.05-.27-.38-.21-.81c0-.21.07-.43.1-.62.07-.57.18-1.76.24-2.26s.14-1.64.38-3.52.53-3,.78-4.95.43-3.55.49-4.05.75-.35,1.15-.35l.59,0C157.85,781.47,158.25,781.44,158.63,781.44Zm-.54,10.71a5.22,5.22,0,0,0,1.17-2.71,3.22,3.22,0,0,0-.47-2.41,1.88,1.88,0,0,0-.7-.57c0,.26,0,.53-.08.81-.1.84-.29,1.74-.39,2.5-.07.55-.18,1.31-.29,2-.07.41-.12.83-.18,1.24A4,4,0,0,0,158.09,792.15Z" transform="translate(-49.08 -46.74)"/><path class="cls-24" d="M164.49,790.63c-.07.55,0,.78-.11,1.33l-.35,2.83c-.05.41-.12.83-.17,1.19s-.07.41-.09.6c.21,0,.42,0,.62,0s.75,0,1.06,0c.61,0,1.14,0,1.73,0s1.16-.07,1.61-.07.86,0,1,0,.17.12.13.38-.09.48-.13.74-.13.28-.38.28a1.57,1.57,0,0,1-.29,0,15,15,0,0,0-1.78-.07c-.41,0-.82,0-1.19,0s-.59,0-.92,0c-.87,0-1.8,0-2.14,0s-.36-.14-.33-.36,0-.24.06-.38a1.91,1.91,0,0,0,0-.21c0-.17,0-.31.14-1.36.19-1.45.35-3.31.56-4.9s.64-4,.77-4.93.36-2.76.43-3.64.85-.48,1.35-.48,1.89-.14,2.78-.14,2.5.07,2.85.07.23.38.19.65c0,.07,0,.14,0,.26s-.07.54-.14.54a4.82,4.82,0,0,0-.51-.07h-2.63l-2,0c-.25,0-.53,0-.75.07l-.38.05-.12.64c-.06.36-.12.76-.16,1.12-.09.67-.1,1.28-.18,1.83l-.12.95a5.29,5.29,0,0,0-.06.6,3.17,3.17,0,0,0,.44,0H166c.27,0,.63-.09,1.14-.09s1.07.09,1.27.09.47-.07.86-.07.8.07,1.12.07a.9.9,0,0,0,.25,0l.11,0c.18,0,.18.21.15.3s-.1.67-.14.86,0,.26-.28.26-1.61-.26-2.23-.26-1.4,0-2.07.07a4.67,4.67,0,0,1-1,0,3.46,3.46,0,0,1-.46,0l-.1.38C164.58,790.08,164.53,790.37,164.49,790.63Z" transform="translate(-49.08 -46.74)"/><path class="cls-24" d="M173,791.25c-.36,2.78.16,4.81,1.23,4.81s1.53-1.24,1.61-1.88.55-3.62.79-5.41c.16-1.24.51-3.31.71-4.83a15.25,15.25,0,0,0,.15-1.64,2.12,2.12,0,0,1,0-.45c.07-.6.37-.48.52-.48s.79,0,1.16,0,.32.19.29.57-.07.76-.13,1.29c0,.26-.07.52-.12.76-.16.83-.34,3.73-1,8.23s-2.53,5.81-4.12,5.81-2.07-2-2.17-3.26a28.68,28.68,0,0,1,.3-4.07c.11-.81.22-1.5.29-1.81s.19-1.19.32-2.21c.21-1.64.45-3.67.5-4.33a3.67,3.67,0,0,1,0-.38c.09-.67.28-.62.39-.55l.17,0c.1,0,.19-.05.31-.05s.07.1,0,.27C174.56,779.94,173.49,787.75,173,791.25Z" transform="translate(-49.08 -46.74)"/><path class="cls-24" d="M186.49,790.82c-.26,2-.45,5.47-.57,6.4s-.58.74-1.54.74-3.37-.1-3.7-.1c-.13,0-.14-.19-.1-.47s.19-1,.27-1.6c0-.31.11-1.12.25-2.16.32-2.48.87-6.29,1.19-8,.11-.61.18-1.16.25-1.66.09-.74.16-1.36.18-1.76a1.6,1.6,0,0,0-.3,0l-1.36,0c-.12,0-.11-.17-.09-.38s.06-.33.09-.52.1-.31.22-.31.22,0,.39,0l3.5,0c.92,0,3.85-.07,4.24-.07s.22.36.16.76-.2.55-.46.55-.63.05-1.4,0h-.06C187.43,784,186.7,789.18,186.49,790.82Z" transform="translate(-49.08 -46.74)"/><path class="cls-24" d="M198.33,783.63a.32.32,0,0,1,0,.21,1.54,1.54,0,0,1-.15.34c-.14.21-.51.9-.72,1.19s-.2.4-.39.4-1.35-2.45-2.55-2.45c-.43,0-1.06,0-1.26,1.64a2.61,2.61,0,0,0,1.57,2.69c.7.51,3,1.65,2.37,6.38-.41,3.14-2.37,4.57-5.05,4.57a3.49,3.49,0,0,1-3.33-2.69.53.53,0,0,1,0-.24c0-.09.07-.16.17-.3a11.84,11.84,0,0,1,.76-1c.06-.07.09-.09.14-.09s.18.26.29.45a2.38,2.38,0,0,0,2,1.4,1.64,1.64,0,0,0,1.75-1.64,4.72,4.72,0,0,0-1.33-3.5c-.64-.76-2.75-1.85-2.35-4.92s3.05-5,4.25-5C197,781,198.22,783.44,198.33,783.63Z" transform="translate(-49.08 -46.74)"/><path class="cls-24" d="M207.37,783.68a.87.87,0,0,1,.1.47c0,.24-.22.36-.42.53s-1.27,1.28-1.54,1.47a.29.29,0,0,1-.14.08c-.17,0-.21-.29-.29-.46s-.31-.88-.89-.88-1.15.81-1.6,4.24.11,4.45.52,4.45.65-.19.94-1c.16-.46.33-.57.5-.57a1.82,1.82,0,0,1,.39.11,16.76,16.76,0,0,0,1.83.62c.17,0,.19.29.15.57a2.25,2.25,0,0,1-.06.36,5.34,5.34,0,0,1-.24.83c-.47,1.31-1.65,4-4.16,4-1.73,0-4.19-2-3.25-9.23s3.69-8.26,5.18-8.26C206.76,781,207.11,783,207.37,783.68Z" transform="translate(-49.08 -46.74)"/><path class="cls-24" d="M214,788.84c.48,0,1.28,0,1.95,0,.4,0,.81,0,1.24,0l.09-.72c.06-.4.1-.9.16-1.31.1-.81.76-5.07.8-5.38s.12-.21.21-.21.12,0,.17,0a.94.94,0,0,0,.25,0,.52.52,0,0,1,.27,0,.18.18,0,0,1,.13.23.58.58,0,0,1-.06.19c0,.27-.21,1-.41,2s-.92,6.17-1.06,7.21-.7,4.62-.75,5c0,.23-.1.62-.14,1s-.05.52-.06.69a.61.61,0,0,1,0,.14c0,.19-.12.14-.19.17a4.3,4.3,0,0,1-.59,0c-.12,0-.12-.11-.11-.23-.08.64.31-2.19.47-3.48,0-.49.21-1.59.34-2.54l.23-1.76-1.34,0c-.71,0-1.53,0-1.91,0h-1.54c-.31,0-.62,0-1,0,0,.19,0,.41-.09.62-.07.38-.15.91-.23,1.45s-.22,1.57-.35,2.57-.24,2-.24,2.48c0,.14,0,.26,0,.36-.07.57-.39.47-.64.47a7.11,7.11,0,0,0-1.32.07c-.47.08-.32-.47-.18-1.5s.85-6.78,1-8.23.76-5.57.83-6.16.25-.74.41-.74l.36,0a2.08,2.08,0,0,0,.39-.05,1.23,1.23,0,0,1,.28,0c.28,0,.55,0,.78,0s.19.43.15.71-.21,1.53-.43,2.83l-.38,2.36-.23,1.4,1,0C212.83,788.8,213.48,788.84,214,788.84Z" transform="translate(-49.08 -46.74)"/><path class="cls-24" d="M156.11,812.12c.06-.33.1-1.44.13-2s.25-2.37.3-2.81.2-1.2.36-1.2.16,0,.26.31.17.38.28.76.8,1.69,1.09,2.25l.66,1.22.39.73a1,1,0,0,1,0-.17l.07-.45c0-.38-.06-1.18,0-1.89s.2-1.63.18-2.07.08-.63.25-.63a1.83,1.83,0,0,1,.52-.08.53.53,0,0,1,.19,0c.14,0,.19.06.21.16s0,.13,0,.22c-.06.31,0,.69-.11,1.26s-.13,2.81-.19,3.45.06,2.09.09,2.27a3.48,3.48,0,0,1,0,1c-.08.58.05,3.6,0,3.78s.05.56-.06.56-.22-.11-.37-.38-.72-1.38-.91-1.76-.79-1.71-1-2.13-.29-.67-.47-1l-.32-.67-.12.5c-.06.28-.16.93-.28,1.71s-.13,2.94-.14,3.13-.1.63-.2.63-.24-.18-.32-.38-.77-2.2-1-2.69-.66-1.58-.87-2.09-1.4-3.52-1.68-4.19-.88-2.33-1.07-2.76a1.6,1.6,0,0,1-.12-.37c0-.09,0-.09.09-.09h.46a1.89,1.89,0,0,0,.35,0l.16,0c.21-.07.27.13.39.51s.86,2.19,1.51,3.5c.29.67.58,1.29.82,1.78l.39.8,0-.24Z" transform="translate(-49.08 -46.74)"/><path class="cls-24" d="M171.38,812.41c.21,1.23.84,6.66-3.15,6.66-2,0-3.27-1.74-4.09-3.5A16.45,16.45,0,0,1,163,812c-.55-3.27.85-6.23,2.8-6.23a3.47,3.47,0,0,1,2.11.39C170.18,807.81,171.22,811.44,171.38,812.41Zm-6.7-6.61a1.21,1.21,0,0,1-1-1.06c-.08-.49.18-1,.64-1a1.13,1.13,0,0,1,1.13.93A.89.89,0,0,1,164.68,805.8Zm5.47,6.61c-.49-3-2.07-5.53-3.83-5.53-.55,0-1,0-1.3.51a6.05,6.05,0,0,0-1,4.85c.48,2.85,1.76,5.81,4,5.81S170.65,815.38,170.15,812.41Zm-2.2-8.79c.4,0,.73.56.83,1.12a.76.76,0,0,1-.77,1,1,1,0,0,1-1-1C166.87,803.74,167.55,803.62,168,803.62Z" transform="translate(-49.08 -46.74)"/><path class="cls-24" d="M173.31,812.88c.19.8,1,5.28,1,5.74s-.32.45-.51.45-.22-.31-.27-.51-.11-.47-.17-.85c0-.18-.06-.36-.08-.55-.05-.39-.75-4.9-1.23-7.8-.21-1.26-.39-2.2-.46-2.44a3.74,3.74,0,0,1-.08-.38c-.06-.38,0-.42.2-.42s1.6.06,2.21.06,2.85.2,3.12,1.79c.36,2.15-2,2.47-2.79,2.47h-.21c.16.16,5.42,7,6.07,7.7.39.4.49.56.51.67s0,.09-.05.13a1.4,1.4,0,0,1-.65.1c-.63,0-.6-.1-.81-.48s-1.9-2.4-2.83-3.66c-.46-.63-1.28-1.63-2-2.48l-1.29-1.57.07.73A9,9,0,0,0,173.31,812.88Zm.25-3.2a8.08,8.08,0,0,0,1.31-.14c.75-.17,1.31-.4,1.17-1.2s-1.42-1.16-2-1.16c-.37,0-.74,0-1,0h-.5l.34,2.54C173.07,809.7,173.31,809.7,173.56,809.68Z" transform="translate(-49.08 -46.74)"/><path class="cls-24" d="M182.82,806.1c.42,0,1.75.06,2.58.06a4.55,4.55,0,0,0,.58,0c.53,0,.66.31.66.45s.06.62.19,1.38c.09.53.21,1.09.28,1.39s-.1.48-.44.48h-2.61l.29,1.88c0,.3.13.87.24,1.54.34,2,.88,5,.93,5.29,0,0,0,.05,0,.09,0,.27,0,.23-.19.23h-1c-.28,0-.25-.11-.34-.61s-.7-5.09-.86-6c-.13-.74-.36-1.88-.44-2.38-1,0-2.43.06-2.62.06a.36.36,0,0,1-.37-.42c0-.16-.22-1.58-.36-2.4a4.35,4.35,0,0,0-.1-.52.59.59,0,0,1,0-.13c0-.29.1-.27.22-.27h1.47C181.33,806.16,182.27,806.1,182.82,806.1Z" transform="translate(-49.08 -46.74)"/><path class="cls-24" d="M188.85,811.84c-.24-1.4-.33-1.52-.51-2.61s-.34-2.16-.41-2.67c-.06-.35,0-.4.22-.4l.22,0c.23,0,.5.05,1.17.05s1.62-.16,2.2-.16,1.37.07,1.66.07.33.16.39.51.2.82.29,1.38a4.16,4.16,0,0,1,.07.67c0,.22-.06.27-.16.27a1.89,1.89,0,0,1-.34-.09,8.27,8.27,0,0,0-1.3,0c-.37,0-.76,0-1.13,0a2.61,2.61,0,0,0-.4,0c-.22,0-.5,0-.78,0l-.79,0c-.17,0-.14.09-.09.36s.14,1.11.25,1.75l.18,1.07c0,.2.06.38.11.58a2.55,2.55,0,0,0,.4,0h1.05c.55,0,1.2-.07,1.56-.07s.57.06.73.06.21.09.23.21,0,.22.07.57.1.51.17,1c0,.24,0,.29-.08.29s-.17,0-.28,0-.55,0-1.49,0a12.8,12.8,0,0,0-1.72.15.45.45,0,0,1-.2,0s-.07,0-.09,0l.3,1.81h.16l.42,0,1.74,0c.49,0,1.29,0,1.88,0l.62,0c.25,0,.32.16.36.38s0,.25.05.36c.06.37.11.75.19,1.27s-.17.4-.64.4l-2.62,0c-.71,0-2.14.07-2.33.07l-.09,0c-.13,0-.14-.15-.17-.31s-.09-.45-.12-.67-.1-.4-.16-.78l-.42-2.49C189,813.57,189.08,813.24,188.85,811.84Z" transform="translate(-49.08 -46.74)"/><path class="cls-24" d="M197.47,812.88c.19.8,1,5.28,1,5.74s-.33.45-.52.45-.22-.31-.26-.51-.11-.47-.18-.85c0-.18-.06-.36-.08-.55-.05-.39-.74-4.9-1.23-7.8-.21-1.26-.39-2.2-.45-2.44a2.16,2.16,0,0,1-.08-.38c-.07-.38,0-.42.19-.42s1.6.06,2.21.06,2.85.2,3.12,1.79c.36,2.15-2,2.47-2.79,2.47h-.21c.16.16,5.42,7,6.07,7.7.39.4.49.56.51.67s0,.09-.05.13a1.4,1.4,0,0,1-.65.1c-.62,0-.6-.1-.81-.48s-1.9-2.4-2.82-3.66c-.47-.63-1.29-1.63-2-2.48l-1.28-1.57.06.73A9,9,0,0,0,197.47,812.88Zm.25-3.2a8.08,8.08,0,0,0,1.31-.14c.76-.17,1.31-.4,1.18-1.2s-1.43-1.16-2-1.16c-.38,0-.75,0-1.05,0h-.5l.34,2.54C197.23,809.7,197.47,809.7,197.72,809.68Z" transform="translate(-49.08 -46.74)"/><path class="cls-24" d="M211.88,816.51c.43,2.58-2.49,2.43-3.08,2.43s-2,.06-2.33.06-.47-.33-.54-.69l-.66-4c-.06-.35-.1-.6-.14-.87s-.12-.69-.17-1.26c-.13-1-.59-3.79-.63-4.3,0-.15,0-.33-.07-.51-.07-.4-.17-.82-.2-.91a.19.19,0,0,1,0-.09c0-.07,0-.13.13-.16a7.82,7.82,0,0,1,1.9-.26c1.61,0,3.15.51,3.62,3.31a3.45,3.45,0,0,1-.41,2.72,1.86,1.86,0,0,1-.74.6A5.38,5.38,0,0,1,211.88,816.51Zm-5.07-4.36c0,.13,0,.17.14.17a2.32,2.32,0,0,0,2.2-3c-.47-2.79-1.86-2.92-3.21-2.92l.17,1.16c.09.66.21,1.44.3,1.94l.34,2.08C206.8,811.92,206.79,812,206.81,812.15Zm4.13,4.34a4.06,4.06,0,0,0-2.26-3.3,4,4,0,0,0-1.76-.33.38.38,0,0,0,0,.15,3.31,3.31,0,0,0,0,.41c.07.4.37,1.82.42,2.15s0,.4.11.83.33,1.58.38,1.91.21.29.5.29C210.39,818.6,211.15,817.73,210.94,816.49Z" transform="translate(-49.08 -46.74)"/><path class="cls-24" d="M216.72,815c.89,0,.81-1.15.71-1.71s-.28-2-.47-3.16a6.16,6.16,0,0,0-.13-.69c-.15-.89-.51-2.51-.58-2.94s0-.58.26-.58h1.88l.22,0c.16,0,.34.07.46.54.08.31.23,1.16.39,2.14.25,1.48.53,3.24.64,3.91.19,1.11.76,6.3-2.74,6.3s-4.27-3.19-4.49-4.14c-.05-.18-.09-.43-.14-.72-.21-1.29-.49-3.46-.68-4.42-.2-1.21-.49-2.65-.55-3s-.18-.67.22-.65c.25,0,.52,0,.78,0a3.88,3.88,0,0,0,.48,0,4.45,4.45,0,0,1,.53,0h.59c.2,0,.23.11.29.39l1.22,7.26C215.69,813.9,215.82,815,216.72,815Z" transform="translate(-49.08 -46.74)"/><path class="cls-24" d="M227.46,807.87a.73.73,0,0,1,.21.36c0,.18-.11.27-.26.4s-.83,1-1,1.13a.21.21,0,0,1-.11,0c-.15,0-.26-.22-.37-.35s-.5-.67-1-.67-.85.62-.41,3.23,1.2,3.4,1.57,3.4.54-.14.59-.78c0-.34.17-.44.32-.44a1.91,1.91,0,0,1,.38.1c.23.09,1.37.38,1.8.47.17,0,.25.22.28.43a1.31,1.31,0,0,1,0,.27,3.45,3.45,0,0,1,0,.64c-.1,1-.51,3-2.78,3-1.56,0-4.28-1.54-5.21-7s1.31-6.3,2.66-6.3A4,4,0,0,1,227.46,807.87Z" transform="translate(-49.08 -46.74)"/><path class="cls-24" d="M234.69,811.81c.43,0,1.15,0,1.76,0,.35,0,.73,0,1.11,0l-.09-.54c-.06-.31-.13-.7-.19-1-.1-.62-.56-3.87-.6-4.11s.07-.16.14-.16l.17,0a.72.72,0,0,0,.22,0,.77.77,0,0,1,.26,0,.24.24,0,0,1,.18.18.86.86,0,0,1,0,.15c0,.2.05.74.13,1.56s.69,4.7.82,5.5.51,3.53.56,3.85.06.48.11.73a3.28,3.28,0,0,0,.12.53.36.36,0,0,1,0,.11c0,.14-.07.11-.13.12a3.37,3.37,0,0,1-.53,0c-.1,0-.13-.09-.15-.18.09.49-.26-1.67-.43-2.65-.08-.39-.2-1.22-.32-2l-.23-1.34-1.19,0h-4c0,.14.05.3.06.47s.09.69.16,1.11.18,1.19.31,2a17.6,17.6,0,0,0,.39,1.89c0,.11.07.2.08.27.07.43-.24.36-.46.36a6.28,6.28,0,0,0-1.18.06c-.4,0-.4-.37-.53-1.15l-1.09-6.28c-.19-1.17-.68-4.25-.76-4.71s0-.56.19-.56l.33,0a2.26,2.26,0,0,0,.33,0,1.06,1.06,0,0,1,.25,0c.26,0,.51,0,.72,0s.28.33.32.55.18,1.16.3,2.16l.24,1.8.14,1.07.89,0C233.66,811.77,234.26,811.81,234.69,811.81Z" transform="translate(-49.08 -46.74)"/></g><g class="cls-45"><path class="cls-24" d="M255.61,697.39h5.79v8.72h-1.07V705h-4.72v6.17h-1.08V705h-4.66v1.19h-1v-8.82h5.69V694l1.39.12c0,.13-.1.22-.31.25Zm-5.74,6.39h4.66v-5.17h-4.66Zm5.74,0h4.72v-5.17h-4.72Z" transform="translate(-49.08 -46.74)"/><path class="cls-24" d="M264.1,694.89h13V711.3h-1v-.91h-11v.91h-1Zm1,14.35h11V696h-11Zm.76-2.85c1.2-.24,3-.65,4.79-1l.05.83c-1.61.42-3.25.85-4.29,1.09a.34.34,0,0,1-.18.28Zm5.95-6.79a36.82,36.82,0,0,0,.64,4.59,14.78,14.78,0,0,0,1.24-3.65l1.08.32c0,.12-.12.18-.31.18a15.65,15.65,0,0,1-1.67,4.37c.37,1.11.9,1.93,1.42,1.93.23,0,.39-.8.5-2a4.1,4.1,0,0,0,.68.59c-.17,1.7-.54,2.5-1.13,2.5a.73.73,0,0,1-.34-.08c-.74-.16-1.3-.89-1.75-2a9.15,9.15,0,0,1-2.21,2.26,5.67,5.67,0,0,0-.58-.76,8.87,8.87,0,0,0,2.43-2.55,35.32,35.32,0,0,1-.88-5.72H266v-1h4.84c0-.68-.09-1.38-.12-2.09l1.24.08a.33.33,0,0,1-.31.27c0,.6.05,1.17.09,1.74h3.53v1Zm-5.21,1.26h3.5v3.66h-3.5Zm2.71,2.85v-2h-1.95v2Zm3.79-7.34a6.33,6.33,0,0,1,1.73,1.28l-.49.69a7.49,7.49,0,0,0-1.74-1.35Z" transform="translate(-49.08 -46.74)"/><path class="cls-24" d="M278.88,698.19v-1h5.74v1Zm5.31,6.52v5.44H280.5V711h-.91v-6.31Zm0-5v1h-4.55v-1Zm-4.55,3.54v-1h4.55v1Zm4.5-8.52v1h-4.44v-1Zm-.85,11.07H280.5v3.34h2.76ZM292.77,695v14.51c0,1.65-.55,1.75-3.49,1.75a7.47,7.47,0,0,0-.37-1.32c.55,0,1.09,0,1.53,0l.93,0c.29,0,.38-.11.38-.46V696.13h-6.67V695Zm-2.18,3v1.11h-5.48V698Zm-.6,8.84h-3.48v1.38h-.95v-7.35H290Zm-.94-4.87h-2.54v3.77h2.54Z" transform="translate(-49.08 -46.74)"/><path class="cls-24" d="M307.31,705.6h1.45v1.2h-14.4v-1.2H296v-9.3h3.39V694l1.28.11c0,.11-.1.2-.31.24v2h2.46V694l1.3.11c0,.13-.09.2-.29.24v2h3.53Zm-7.1,2.39a.46.46,0,0,1-.31.12,17.48,17.48,0,0,1-4.55,3.17,7.18,7.18,0,0,0-.81-.94,15.59,15.59,0,0,0,4.54-3.11Zm-.87-10.52H297V701h2.38ZM297,702.12v3.48h2.38v-3.48Zm5.81-4.65h-2.46V701h2.46Zm0,8.13v-3.48h-2.46v3.48Zm4.85,5.63a37,37,0,0,0-4.47-3.19l.75-.85a35.68,35.68,0,0,1,4.66,3.15Zm-1.35-13.76h-2.49V701h2.49Zm-2.49,4.65v3.48h2.49v-3.48Z" transform="translate(-49.08 -46.74)"/></g><path class="cls-44" d="M230.76,695.46H194a20.69,20.69,0,0,0,0,11.42h36.8A18.27,18.27,0,0,1,230.76,695.46Z" transform="translate(-49.08 -46.74)"/><path class="cls-44" d="M243.1,701.11a3.94,3.94,0,1,0-3.94,3.95A3.94,3.94,0,0,0,243.1,701.11Z" transform="translate(-49.08 -46.74)"/><path class="cls-44" d="M366.69,706.88h-36.8a20.69,20.69,0,0,1,0-11.42h36.8A18.27,18.27,0,0,0,366.69,706.88Z" transform="translate(-49.08 -46.74)"/><path class="cls-44" d="M316,701.23a3.95,3.95,0,1,0,3.94-4A3.94,3.94,0,0,0,316,701.23Z" transform="translate(-49.08 -46.74)"/><path class="cls-48" d="M316.24,684.16l10.94,144.33H515.45l2.77-1.77h.08l-.89-3.69,15.16-7.78h7.57l3.39-2-43-177.57H414.79c-12.55,2.41-22.09,7.22-28.41,14.62l8.19,33.84H316.24Z" transform="translate(-49.08 -46.74)"/><rect class="cls-5" x="366.04" y="301.94" width="290.27" height="479.81" rx="12"/><path class="cls-49" d="M664.27,348.68H517.77L416.24,803.94a33,33,0,0,0,31.84,24.55h109.2Z" transform="translate(-49.08 -46.74)"/><path class="cls-50" d="M415.12,381.64V510l17,245.24H618L589.82,348.68H448.08A33,33,0,0,0,415.12,381.64Z" transform="translate(-49.08 -46.74)"/><path class="cls-51" d="M672.42,348.68H448.08a32.82,32.82,0,0,0-24.22,10.66,32.74,32.74,0,0,1,18.73-5.85H666.93a33,33,0,0,1,33,33V800.33a32.82,32.82,0,0,1-8.74,22.31,32.93,32.93,0,0,0,14.23-27.12V381.64A33,33,0,0,0,672.42,348.68Z" transform="translate(-49.08 -46.74)"/><rect class="cls-52" x="385.27" y="330.33" width="251.81" height="408.39"/><polygon class="cls-53" points="429.68 331.36 385.27 331.36 385.27 739.74 520.79 739.74 429.68 331.36"/><polygon class="cls-24" points="478.67 518.04 385.27 518.04 385.27 665.46 478.67 518.04"/><rect class="cls-54" x="406.62" y="554.89" width="7.9" height="151.77"/><rect class="cls-54" x="390.13" y="554.89" width="7.9" height="151.77"/><polygon class="cls-54" points="478.67 518.04 439.36 518.04 385.27 648.06 385.27 738.71 478.67 738.71 478.67 518.04"/><polygon class="cls-55" points="433.11 490.23 385.27 490.23 385.27 536.58 419.44 536.58 433.11 490.23"/><polygon class="cls-56" points="420.16 490.23 393.68 536.58 419.44 536.58 433.11 490.23 420.16 490.23"/><polygon class="cls-54" points="435.2 459.89 432.4 459.89 413.54 540.01 423.15 540.01 435.2 459.89"/><polygon class="cls-24" points="436.9 459.89 435.06 459.89 422.64 540.01 424.27 542.19 439.36 518.02 436.9 459.89"/><rect class="cls-57" x="439.81" y="518.04" width="35.88" height="220.68"/><polygon class="cls-57" points="427.22 566.91 423.33 615.17 423.33 738.71 427.22 738.71 427.22 566.91"/><polygon class="cls-57" points="414.51 566.91 410.62 615.17 410.62 738.71 414.51 738.71 414.51 566.91"/><polygon class="cls-57" points="398.03 566.91 394.14 615.17 394.14 738.71 398.03 738.71 398.03 566.91"/><rect class="cls-54" x="464.93" y="260.74" width="106.22" height="477.98"/><rect class="cls-57" x="472.77" y="262.34" width="14.01" height="476.38"/><rect class="cls-57" x="466.94" y="401.98" width="43.21" height="13.84"/><rect class="cls-54" x="459.42" y="412.74" width="45.46" height="7.43"/><rect class="cls-54" x="459.67" y="294.5" width="116.75" height="111.02"/><rect class="cls-57" x="462.87" y="304.81" width="22.66" height="97.96"/><polygon class="cls-55" points="546.83 187.85 508.37 187.85 464.93 262 571.15 262 546.83 187.85"/><rect class="cls-54" x="508.2" y="154.15" width="38.46" height="34.45"/><polygon class="cls-55" points="508.43 155.02 546.88 155.02 533.13 58.16 529.69 58.16 508.43 155.02"/><rect class="cls-54" x="463.1" y="259.59" width="109.88" height="5.49"/><rect class="cls-54" x="505.91" y="185.61" width="42.58" height="5.99"/><rect class="cls-54" x="507.05" y="151.53" width="39.83" height="5.99"/><rect class="cls-58" x="528" y="57.67" width="6.53" height="7.63"/><rect class="cls-58" x="530.4" width="2.29" height="60.66"/><rect class="cls-24" x="496.07" y="260.74" width="106.22" height="477.98"/><rect class="cls-58" x="518.96" y="262.34" width="2.01" height="476.38"/><rect class="cls-58" x="530.42" y="262.34" width="2.01" height="476.38"/><rect class="cls-58" x="541.87" y="262.34" width="2.01" height="476.38"/><rect class="cls-58" x="553.33" y="262.34" width="2.01" height="476.38"/><rect class="cls-58" x="564.78" y="262.34" width="2.01" height="476.38"/><rect class="cls-58" x="576.24" y="262.34" width="2.01" height="476.38"/><rect class="cls-58" x="584.77" y="262.34" width="5.95" height="476.38"/><rect class="cls-58" x="507.51" y="262.34" width="5.95" height="476.38"/><rect class="cls-54" x="494.29" y="419.13" width="107.99" height="11.2"/><rect class="cls-54" x="501.27" y="401.98" width="96.43" height="13.84"/><rect class="cls-24" x="490.8" y="294.5" width="116.75" height="111.02"/><rect class="cls-58" x="500.19" y="304.81" width="97.96" height="97.96"/><rect class="cls-24" x="491.35" y="412.74" width="115.64" height="7.43"/><polygon class="cls-57" points="556.5 187.85 518.04 187.85 496.06 262 602.28 262 556.5 187.85"/><rect class="cls-24" x="519.19" y="154.15" width="38.46" height="34.45"/><rect class="cls-58" x="525.37" y="163.96" width="3.66" height="24.64"/><rect class="cls-58" x="536.18" y="163.96" width="3.66" height="24.64"/><rect class="cls-58" x="547" y="163.96" width="3.66" height="24.64"/><polygon class="cls-57" points="519.47 155.02 557.93 155.02 534.92 58.16 531.49 58.16 519.47 155.02"/><circle class="cls-24" cx="598.25" cy="400.53" r="36.57" transform="translate(-53.54 747.57) rotate(-66.96)"/><ellipse class="cls-54" cx="475.23" cy="353.79" rx="7.1" ry="36.57"/><rect class="cls-54" x="494.18" y="262.8" width="108.11" height="5.49"/><rect class="cls-24" x="494.23" y="259.59" width="109.88" height="5.49"/><rect class="cls-24" x="516.44" y="185.61" width="43.55" height="5.99"/><rect class="cls-24" x="518.55" y="151.53" width="40.74" height="5.99"/><rect class="cls-58" x="530.11" y="57.67" width="6.53" height="7.63"/><rect class="cls-58" x="531.86" width="2.29" height="60.66"/><polygon class="cls-24" points="505.61 382.81 505.61 398.5 521.3 398.5 505.61 382.81"/><polygon class="cls-24" points="592.5 382.81 592.5 398.5 576.8 398.5 592.5 382.81"/><polygon class="cls-24" points="592.5 326.17 592.5 310.47 576.8 310.47 592.5 326.17"/><polygon class="cls-24" points="505.61 326.17 505.61 310.47 521.3 310.47 505.61 326.17"/><polygon class="cls-54" points="465.32 382.81 465.32 398.5 468.56 398.5 465.32 382.81"/><polygon class="cls-54" points="483.24 382.81 483.24 398.5 480 398.5 483.24 382.81"/><polygon class="cls-54" points="483.24 326.17 483.24 310.47 480 310.47 483.24 326.17"/><polygon class="cls-54" points="465.32 326.17 465.32 310.47 468.56 310.47 465.32 326.17"/><rect class="cls-59" x="383.5" y="739.11" width="255.36" height="2.63"/><rect class="cls-54" x="385.27" y="534.13" width="37.86" height="6.68"/><path class="cls-60" d="M675.17,825.4H450.83a33,33,0,0,1-33-33V378.55A32.77,32.77,0,0,1,425,358.17a32.82,32.82,0,0,0-9.84,23.47V795.52a33,33,0,0,0,33,33H672.42a32.87,32.87,0,0,0,25.87-12.58A32.85,32.85,0,0,1,675.17,825.4Z" transform="translate(-49.08 -46.74)"/><path class="cls-54" d="M601.39,400.53a3.14,3.14,0,1,0-3.14,3.13A3.15,3.15,0,0,0,601.39,400.53Z" transform="translate(-49.08 -46.74)"/><rect class="cls-57" x="516.67" y="270.58" width="7.21" height="22.49"/><rect class="cls-57" x="527.66" y="270.58" width="7.21" height="22.49"/><rect class="cls-57" x="538.64" y="270.58" width="7.21" height="22.49"/><rect class="cls-57" x="549.63" y="270.58" width="7.21" height="22.49"/><rect class="cls-57" x="560.62" y="270.58" width="7.21" height="22.49"/><rect class="cls-57" x="571.61" y="270.58" width="7.21" height="22.49"/><polygon class="cls-54" points="551 325.16 549.17 322.09 547.34 325.16 547.8 351.62 550.54 351.62 551 325.16"/><polygon class="cls-54" points="562.92 370.37 565.22 370.08 565.51 367.78 551.82 354.74 549.88 356.68 562.92 370.37"/><path class="cls-61" d="M950.92,827.75H49.08S249.49,842,508.82,842,950.92,827.75,950.92,827.75Z" transform="translate(-49.08 -46.74)"/></g></g></svg>