<svg id="Слой_1" data-name="Слой 1" xmlns="http://www.w3.org/2000/svg" viewBox="0 0 2633.51 1848.71"><defs><style>.cls-1{fill:#e3eaff;}.cls-2{fill:#a9b9eb;}.cls-3{fill:#fff;}.cls-4{fill:#cdd8fa;}.cls-5{fill:#f5a3b7;}.cls-6{fill:#95a6db;}.cls-7{fill:#617ac9;}.cls-8{fill:#0e6a41;}.cls-9{fill:#3f964f;}.cls-10{fill:#201d40;}.cls-11{fill:#2c2858;}.cls-12{fill:#f37a50;}.cls-13{fill:#de623c;}.cls-14{fill:#494c7f;}.cls-15{fill:#0d0c1a;}.cls-16{fill:#e62552;}.cls-17{fill:#c4204a;}.cls-18{fill:#7f95db;}.cls-19{fill:#b4c2f0;}.cls-20{fill:#f3bc3d;}.cls-21{fill:#f3cd75;}</style></defs><path class="cls-1" d="M333.92,1862.67C148.49,1660.76,55,1444.49,123.61,1123.21,169,910.79,314.18,885.43,447.4,757.71c65.74-63,24.39-154.79,23.17-245.86-2.78-233.21,257.48-414.17,496.75-410.4,259.17,4.09,371.36,264.65,588.77,278.63,85.37,1.31,161.81-48.79,237.34-88.59,223.8-117.93,578.93-42.72,596.88,242.46,4.63,154-113.42,329.52,62.2,410.52,140,64.56,224.14,160.61,249.36,391.51,33,302.22-141.52,468.09-369,545.87Z" transform="translate(-72.39 -101.4)"/><path class="cls-2" d="M2547,1474.74s6.82,39.78-43.15,89c-50.92,50.1-60.12,94.25-60.12,94.25l-35.34,13.66s17.2-66,60-104.33C2522.1,1519.38,2547,1474.74,2547,1474.74Z" transform="translate(-72.39 -101.4)"/><path class="cls-2" d="M2621.16,1521.52s-4.7,29.38-51.19,56.34c-47.45,27.41-64.24,57.41-64.24,57.41l-29,10.2s28.67-50.39,67.69-70.74C2593.17,1549.24,2621.16,1521.52,2621.16,1521.52Z" transform="translate(-72.39 -101.4)"/><path class="cls-2" d="M2465.72,1517.4s-30.78,8.53-70.94,72.65c-32.74,52.25-30.19,86.5-50.47,118.45L2392.6,1683c10.78-23.92.63-45.74,28-94.56C2446.25,1542.7,2465.72,1517.4,2465.72,1517.4Z" transform="translate(-72.39 -101.4)"/><path class="cls-2" d="M2169.94,1649.92s-20.83,24.33-18.4,99.88c2,61.64,27.74,78.79,28.81,93.23l21.8-23.12c-7.62-26.61-25.6-30.05-30.09-85.85C2167.91,1681.72,2169.94,1649.92,2169.94,1649.92Z" transform="translate(-72.39 -101.4)"/><path class="cls-2" d="M2392.75,1540.62s-34.27,43.19-49.17,73.18c-21.26,42.58-12,72.62-30.64,117.68l-35.1,21.21s-4.75-55.81,23.59-107.3C2349,1559,2392.75,1540.62,2392.75,1540.62Z" transform="translate(-72.39 -101.4)"/><path class="cls-2" d="M2299.48,1533.68a317.12,317.12,0,0,1-28.65,87.76c-42.35,83.63-19.46,166.37-19.46,166.37l-24.49,11.06s-40.36-66.25-2.82-135.49C2263.82,1590.26,2299.48,1533.68,2299.48,1533.68Z" transform="translate(-72.39 -101.4)"/><path class="cls-2" d="M2388.52,1688.53s23.28,0,105.34,41.42c52.58,26.56,43.87,0,90.27,34.15-40.79-10.54-64.51,13.56-114.84-8.3a840.65,840.65,0,0,0-124.3-42.87Z" transform="translate(-72.39 -101.4)"/><path class="cls-2" d="M2535.38,1803.52s-48.81,30.51-123.12-2A455.35,455.35,0,0,0,2268,1765.39l36.62-30.25s39.71-11.73,113.73,29.47C2469.22,1792.9,2535.38,1803.52,2535.38,1803.52Z" transform="translate(-72.39 -101.4)"/><path class="cls-2" d="M2464.24,1859.85s-48.82,30.52-123.12-2a455.42,455.42,0,0,0-144.26-36.16l36.62-30.25s39.72-11.73,113.73,29.47C2398.07,1849.24,2464.24,1859.85,2464.24,1859.85Z" transform="translate(-72.39 -101.4)"/><path class="cls-2" d="M2638.74,1683.05s-32.14,13.41-78.33-8.88c-46.82-22.63-86.37-24.85-86.37-24.85l18.8-9.49s25.1-7.41,71.9,18.62C2596.92,1676.33,2638.74,1683.05,2638.74,1683.05Z" transform="translate(-72.39 -101.4)"/><path class="cls-2" d="M2445,1665.49s38.88,9.5,92.32,33.92c33.76,15.3,87.47,10.76,87.47,10.76s-53.37,37.2-102.69,11.07c-56.54-30-118.35-42.85-118.35-42.85Z" transform="translate(-72.39 -101.4)"/><path class="cls-2" d="M2487.15,1644.3s48.51-37.85,104.29-29a300.69,300.69,0,0,0,99.71-1.75s-46.85,40.2-97.17,26.55c-46.48-12.48-88.45,6.24-88.45,6.24Z" transform="translate(-72.39 -101.4)"/><path class="cls-2" d="M2184.26,1845.41l-6.7-6.07c37.43-41.29,184.5-166.42,327.13-204.23l2.32,8.74C2366.36,1681.15,2221.23,1804.66,2184.26,1845.41Z" transform="translate(-72.39 -101.4)"/><path class="cls-2" d="M2256.24,1594.72q-38.31-51.71-10.29-133Q2286,1537.84,2256.24,1594.72Z" transform="translate(-72.39 -101.4)"/><path class="cls-2" d="M2291.57,1519.72q-27.37-51.87,9.09-121.26Q2326.32,1472.64,2291.57,1519.72Z" transform="translate(-72.39 -101.4)"/><path class="cls-2" d="M2330.39,1445.53q-18.48-52.56,25.48-112.68Q2369.75,1406.13,2330.39,1445.53Z" transform="translate(-72.39 -101.4)"/><path class="cls-2" d="M2417.89,1291.37q-1.48,63-41,88.79Q2370.94,1333.26,2417.89,1291.37Z" transform="translate(-72.39 -101.4)"/><path class="cls-2" d="M2473.05,1276.72q-10.59,51.69-46.87,67Q2428.16,1304.35,2473.05,1276.72Z" transform="translate(-72.39 -101.4)"/><path class="cls-2" d="M2453.6,1346.27q15.93-36.09,67.77-45.85Q2492.95,1344.92,2453.6,1346.27Z" transform="translate(-72.39 -101.4)"/><path class="cls-2" d="M2388.94,1544.6q-56.45,66-121,59Q2302.18,1548.6,2388.94,1544.6Z" transform="translate(-72.39 -101.4)"/><path class="cls-2" d="M2335.14,1473.33q41.7-32.82,109.57-11.6Q2382.86,1496.59,2335.14,1473.33Z" transform="translate(-72.39 -101.4)"/><path class="cls-2" d="M2465.29,1415.44q-53.8,30.39-95.33,10.1Q2406.22,1396.94,2465.29,1415.44Z" transform="translate(-72.39 -101.4)"/><path class="cls-2" d="M2414.16,1384.41q36.3-28.48,95.33-10.09Q2455.65,1404.71,2414.16,1384.41Z" transform="translate(-72.39 -101.4)"/><path class="cls-2" d="M2239.54,1679.32c26.54-99.12,28.94-91,54.8-148.18q10.45-23.19,22.12-43.9A449.11,449.11,0,0,1,2374,1409q37.72-42.86,64.85-55.87l1.75-1.91a1.6,1.6,0,0,1,1.81-1,2.72,2.72,0,0,1,2.2,0,5.13,5.13,0,0,1,1.34,1.94,2.76,2.76,0,0,1,0,2.2l-.68,1.49a6.08,6.08,0,0,1-1.95,1.38v.37l-1.64.61q-26.22,13.29-62.9,54.66a440.57,440.57,0,0,0-56.32,77.89,470.88,470.88,0,0,0-22.14,43l-1.71,3.84q37.84-44.49,115.75-36.5-59.1,51.27-115.75,36.5c-25.07,56.36-26.73,46.54-52.57,143.18Z" transform="translate(-72.39 -101.4)"/><path class="cls-2" d="M1207.55,1777.38q-61,20.55-129.75-31.13Q1162.61,1731.54,1207.55,1777.38Z" transform="translate(-72.39 -101.4)"/><path class="cls-2" d="M1147.06,1720.69q-57.76,10.1-112.58-46Q1112.95,1673.14,1147.06,1720.69Z" transform="translate(-72.39 -101.4)"/><path class="cls-2" d="M1088.41,1660.93q-55.7,1.41-99.37-58.9Q1063,1611.36,1088.41,1660.93Z" transform="translate(-72.39 -101.4)"/><path class="cls-2" d="M968.65,1530.25q59.51,20.8,71.87,66.31Q994.07,1587.8,968.65,1530.25Z" transform="translate(-72.39 -101.4)"/><path class="cls-2" d="M971.67,1473.26q45.95,26,49.37,65.21Q984.16,1524.46,971.67,1473.26Z" transform="translate(-72.39 -101.4)"/><path class="cls-2" d="M1031.87,1513.16q-29.44-26.27-22.78-78.58Q1042.69,1475.31,1031.87,1513.16Z" transform="translate(-72.39 -101.4)"/><path class="cls-2" d="M1200.69,1635.7q45.4,74,18.91,133.29Q1177.8,1719.49,1200.69,1635.7Z" transform="translate(-72.39 -101.4)"/><path class="cls-2" d="M1116.32,1665q-18.4-49.79,22.68-107.83Q1153.15,1626.71,1116.32,1665Z" transform="translate(-72.39 -101.4)"/><path class="cls-2" d="M1101.28,1523.32q12.38,60.54-19.72,93.81Q1065.51,1573.84,1101.28,1523.32Z" transform="translate(-72.39 -101.4)"/><path class="cls-2" d="M1056,1562.42q-15.94-43.29,19.72-93.81Q1088.11,1529.18,1056,1562.42Z" transform="translate(-72.39 -101.4)"/><path class="cls-2" d="M1282.92,1819.3c-86.15-55.75-77.66-55.52-124.14-97.73q-18.84-17.08-35-34.55a449.23,449.23,0,0,1-56.78-78.81q-29.17-49.08-33.21-78.9l-1.28-2.26a1.6,1.6,0,0,1-.38-2,2.78,2.78,0,0,1,.7-2.08,5.21,5.21,0,0,1,2.27-.68,2.75,2.75,0,0,1,2.08.7l1.21,1.11a5.9,5.9,0,0,1,.71,2.28l.35.11.08,1.75q4.57,29,32.66,76.67a440.07,440.07,0,0,0,56.78,77.55,472.26,472.26,0,0,0,34.14,34.31l3.14,2.81q-30.71-49.69.87-121.37,30.61,72-.87,121.37c45.9,41.19,36,39.75,120,94.07Z" transform="translate(-72.39 -101.4)"/><path class="cls-2" d="M1653.46,1459.5s7.92,33.27-31.65,77.57c-40.34,45.13-45.72,83-45.72,83L1547,1633.5s10.94-56.75,45.08-91.48C1634.83,1498.61,1653.46,1459.5,1653.46,1459.5Z" transform="translate(-72.39 -101.4)"/><path class="cls-2" d="M1718.7,1495s-2.37,25.1-40.21,50.42c-38.64,25.75-51.2,52-51.2,52l-24,10.21s21.5-44.17,53.39-63.5C1696.55,1520,1718.7,1495,1718.7,1495Z" transform="translate(-72.39 -101.4)"/><path class="cls-2" d="M1587.05,1500s-25.57,8.88-56,65.28c-24.85,46-20.83,74.79-36.24,102.9l39.45-24.2c7.81-20.82-2-38.72,18.55-81.49C1572,1522.44,1587.05,1500,1587.05,1500Z" transform="translate(-72.39 -101.4)"/><path class="cls-2" d="M1344.15,1628.13s-16.3,21.7-10.13,85.46c5,52,27.74,65.11,29.42,77.26l17.18-20.73c-7.89-22.09-23.28-24-30.11-70.95C1344.15,1655.13,1344.15,1628.13,1344.15,1628.13Z" transform="translate(-72.39 -101.4)"/><path class="cls-2" d="M1526.61,1523.6S1500,1562,1489,1588.15c-15.67,37.16-6.24,62.06-19.51,101.17L1441,1709.16s-7-46.93,14.11-92C1490.59,1541.49,1526.61,1523.6,1526.61,1523.6Z" transform="translate(-72.39 -101.4)"/><path class="cls-2" d="M1447.36,1522.8a268.69,268.69,0,0,1-19.45,75.76c-31.27,73-7.41,141.74-7.41,141.74L1400.38,1751s-37.72-53.82-9.74-114.41C1420.28,1572.58,1447.36,1522.8,1447.36,1522.8Z" transform="translate(-72.39 -101.4)"/><path class="cls-2" d="M1531.07,1648.89s19.69-1.27,91.33,29.3c45.9,19.6,37.09-2.4,78.18,24-35.06-6.69-53.81,15-97.56-.78a711.89,711.89,0,0,0-107.43-29.49Z" transform="translate(-72.39 -101.4)"/><path class="cls-2" d="M1661.51,1738.14s-39.62,28.46-104.22,5a385.67,385.67,0,0,0-124-22.73l29.33-27.58s32.94-12.07,97.77,18.74C1605,1732.76,1661.51,1738.14,1661.51,1738.14Z" transform="translate(-72.39 -101.4)"/><path class="cls-2" d="M1604.41,1789.65s-39.62,28.45-104.22,5a385.66,385.66,0,0,0-123.94-22.73l29.32-27.57s32.94-12.08,97.77,18.74C1547.89,1784.27,1604.41,1789.65,1604.41,1789.65Z" transform="translate(-72.39 -101.4)"/><path class="cls-2" d="M1742.36,1630.66s-26.45,13.09-66.72-3.26c-40.83-16.59-74.38-16.31-74.38-16.31l15.38-9s20.82-7.64,61.8,11.83C1706.63,1627.25,1742.36,1630.66,1742.36,1630.66Z" transform="translate(-72.39 -101.4)"/><path class="cls-2" d="M1577.6,1626.34s33.4,5.92,79.91,23.66c29.38,11.1,74.55,4.34,74.55,4.34s-43.11,34.36-86.23,15c-49.45-22.29-102.41-29.8-102.41-29.8Z" transform="translate(-72.39 -101.4)"/><path class="cls-2" d="M1612.07,1606.13s39-34.64,86.6-30.18a254.4,254.4,0,0,0,84.22-6.9s-37.43,36.55-80.72,27.74c-40-8-74.45,10.08-74.45,10.08Z" transform="translate(-72.39 -101.4)"/><path class="cls-2" d="M1366.88,1792.66l-6-4.77c29.4-37,147-150.75,265.51-190.49l2.43,7.27C1511.93,1643.86,1395.92,1756.18,1366.88,1792.66Z" transform="translate(-72.39 -101.4)"/><path class="cls-2" d="M217.9,1465.47s-11,34.55,27.32,84.52c39.07,50.91,41.76,91.33,41.76,91.33l29.74,16.54s-7.08-60.87-40.42-100.28C234.5,1508.29,217.9,1465.47,217.9,1465.47Z" transform="translate(-72.39 -101.4)"/><path class="cls-2" d="M146.11,1497.87s.52,26.72,38.52,56.49c38.81,30.29,50,59.06,50,59.06l24.56,12.69s-19.24-48.4-51.43-71.36C167.56,1526,146.11,1497.87,146.11,1497.87Z" transform="translate(-72.39 -101.4)"/><path class="cls-2" d="M284.91,1513.54S311.23,1525,339,1587c22.63,50.56,16.1,80.71,30.16,111.66l-39.78-28.72c-6.61-22.62,5.13-40.78-13.16-87.62C299.08,1538.47,284.91,1513.54,284.91,1513.54Z" transform="translate(-72.39 -101.4)"/><path class="cls-2" d="M531.56,1668.24s15.52,24.23,4,91.15C526.1,1814,501,1826,498.28,1838.74l-16.52-23.28c10.09-22.72,26.52-23.54,37.45-72.63C529.42,1696.78,531.56,1668.24,531.56,1668.24Z" transform="translate(-72.39 -101.4)"/><path class="cls-2" d="M346.93,1543.28s25.12,42.69,34.65,71.22c13.62,40.53,1.68,66.11,12.61,108.5l28.59,23.24s11.17-49-7.63-98.39C383.6,1565.05,346.93,1543.28,346.93,1543.28Z" transform="translate(-72.39 -101.4)"/><path class="cls-2" d="M430.78,1548.71a284.91,284.91,0,0,0,14.57,81.63C472.63,1710,442,1780.78,442,1780.78l20.42,12.89s44.15-53.92,19.36-120.19C455.47,1603.48,430.78,1548.71,430.78,1548.71Z" transform="translate(-72.39 -101.4)"/><path class="cls-2" d="M332.3,1675.39s-20.72-2.9-98.87,23.74c-50.08,17.09-39-5.47-84.56,19.16,37.6-4.3,55.7,20.09,103.21,6.9A755.25,755.25,0,0,1,368,1702.52Z" transform="translate(-72.39 -101.4)"/><path class="cls-2" d="M187.33,1759.42S227,1792.64,297.12,1773A409.26,409.26,0,0,1,430,1758.76l-28.81-31.47s-33.88-15.37-104.86,12.07C247.52,1758.21,187.33,1759.42,187.33,1759.42Z" transform="translate(-72.39 -101.4)"/><path class="cls-2" d="M243.62,1818.39s39.64,33.23,109.78,13.57a408.8,408.8,0,0,1,132.84-14.22l-28.82-31.47s-33.87-15.38-104.85,12.07C303.8,1817.18,243.62,1818.39,243.62,1818.39Z" transform="translate(-72.39 -101.4)"/><path class="cls-2" d="M110.36,1639.39s26.93,15.93,70.8,1.84c44.47-14.31,79.93-11.36,79.93-11.36l-15.55-10.78s-21.41-9.72-66.27,7.61C148.41,1638.61,110.36,1639.39,110.36,1639.39Z" transform="translate(-72.39 -101.4)"/><path class="cls-2" d="M284.89,1647.86s-35.78,3.62-86.35,18.69c-31.94,9.42-79.17-1.3-79.17-1.3s42.86,39.73,90,22.62c54-19.65,110.62-23.39,110.62-23.39Z" transform="translate(-72.39 -101.4)"/><path class="cls-2" d="M250.05,1623.77s-38.44-39.7-89.17-38.76a269.85,269.85,0,0,1-88.49-14s36.67,41.6,83.14,35.71c42.91-5.32,77.91,16.55,77.91,16.55Z" transform="translate(-72.39 -101.4)"/><path class="cls-2" d="M494.51,1840.38l6.71-4.57c-28.17-41.39-143.44-171-265.63-222.4l-3.15,7.49C352.93,1671.58,466.69,1799.52,494.51,1840.38Z" transform="translate(-72.39 -101.4)"/><path class="cls-3" d="M887.48,345.83q13.42-10.14,32.22-10.14c27,0,41.37,14.72,41.37,35.4,0,11.94-5.77,24.07-17.5,36.2-14.92,15.71-25.66,23.47-32.42,23.47a11.21,11.21,0,0,1-11.34-11.34c0-5.57,5.17-11.13,14.12-19.29a9,9,0,0,1,1.59-1.39c10.15-9.35,13.33-14.52,13.33-20.89,0-8-5.37-12.33-13.13-12.33A42.72,42.72,0,0,0,903,367.91q-7.46,2.38-10.74,2.39a12.4,12.4,0,0,1-11.93-12.73C880.32,353.39,882.71,349.41,887.48,345.83Zm27.25,132.66c-12.13,0-20.29-9.14-20.29-20.28,0-9.55,8.16-18.7,20.29-18.7,10.54,0,18.69,9.15,18.69,18.7C933.42,469.15,925.67,478.49,914.73,478.49Z" transform="translate(-72.39 -101.4)"/><path class="cls-3" d="M2246.85,874.45q10.52-8,25.25-8c21.2,0,32.42,11.54,32.42,27.75,0,9.35-4.52,18.86-13.71,28.37-11.7,12.32-20.11,18.4-25.41,18.4a8.79,8.79,0,0,1-8.89-8.89c0-4.37,4-8.73,11.07-15.12a6.32,6.32,0,0,1,1.25-1.09c8-7.33,10.44-11.38,10.44-16.37,0-6.24-4.21-9.67-10.29-9.67a33.7,33.7,0,0,0-10,1.87,31.83,31.83,0,0,1-8.41,1.87,9.72,9.72,0,0,1-9.36-10C2241.23,880.38,2243.1,877.26,2246.85,874.45Zm21.35,104c-9.51,0-15.9-7.17-15.9-15.9,0-7.49,6.39-14.65,15.9-14.65a14.94,14.94,0,0,1,14.66,14.65C2282.86,971.1,2276.78,978.43,2268.2,978.43Z" transform="translate(-72.39 -101.4)"/><path class="cls-4" d="M1907.89,990.77H1583a10.41,10.41,0,0,1-10.4-10.41V700.67a10.41,10.41,0,0,1,20.81,0V970h314.52a10.41,10.41,0,0,1,0,20.81Z" transform="translate(-72.39 -101.4)"/><path class="cls-5" d="M1607.56,922.4a10.41,10.41,0,0,1-7.48-17.63l105-108.64a10.41,10.41,0,0,1,13.14-1.49l49.66,32.21L1820.26,766A10.4,10.4,0,0,1,1836,779.57l-58.29,67.73a10.38,10.38,0,0,1-13.54,1.94l-50.1-32.49L1615,919.23A10.37,10.37,0,0,1,1607.56,922.4Z" transform="translate(-72.39 -101.4)"/><polygon class="cls-5" points="1763.87 709.21 1749.06 679.18 1717.16 669 1788.17 633.74 1763.87 709.21"/><path class="cls-3" d="M665,493.91a57.34,57.34,0,1,1,57.33-57.33A57.4,57.4,0,0,1,665,493.91ZM665,395a41.54,41.54,0,1,0,41.54,41.54A41.58,41.58,0,0,0,665,395Z" transform="translate(-72.39 -101.4)"/><path class="cls-3" d="M2539.57,1186.31a49.59,49.59,0,1,1,49.58-49.58A49.64,49.64,0,0,1,2539.57,1186.31Zm0-85.51a35.93,35.93,0,1,0,35.92,35.93A36,36,0,0,0,2539.57,1100.8Z" transform="translate(-72.39 -101.4)"/><path class="cls-3" d="M209.48,1180.44a37.71,37.71,0,1,1,37.71-37.71A37.75,37.75,0,0,1,209.48,1180.44Zm0-65a27.32,27.32,0,1,0,27.32,27.32A27.35,27.35,0,0,0,209.48,1115.41Z" transform="translate(-72.39 -101.4)"/><path class="cls-1" d="M2447.33,888.29a26.15,26.15,0,1,1,26.14-26.15A26.18,26.18,0,0,1,2447.33,888.29Zm0-45.09a18.94,18.94,0,1,0,18.94,18.94A19,19,0,0,0,2447.33,843.2Z" transform="translate(-72.39 -101.4)"/><circle class="cls-1" cx="392.32" cy="706.49" r="40.34" transform="translate(-312.88 102.52) rotate(-22.5)"/><path class="cls-1" d="M1684.75,295.14a40.34,40.34,0,1,1-40.34-40.34A40.35,40.35,0,0,1,1684.75,295.14Z" transform="translate(-72.39 -101.4)"/><path class="cls-3" d="M2014.65,716.29a26,26,0,1,1-26-26A26,26,0,0,1,2014.65,716.29Z" transform="translate(-72.39 -101.4)"/><path class="cls-3" d="M2623.55,1253.33a26,26,0,1,1-26-26A26,26,0,0,1,2623.55,1253.33Z" transform="translate(-72.39 -101.4)"/><path class="cls-1" d="M2455.24,782.38a40.34,40.34,0,1,1-40.33-40.33A40.33,40.33,0,0,1,2455.24,782.38Z" transform="translate(-72.39 -101.4)"/><path class="cls-3" d="M793.51,345.34a32.73,32.73,0,1,1-32.73-32.74A32.73,32.73,0,0,1,793.51,345.34Z" transform="translate(-72.39 -101.4)"/><path class="cls-3" d="M1079.86,1057.16a32.73,32.73,0,1,1-32.73-32.73A32.73,32.73,0,0,1,1079.86,1057.16Z" transform="translate(-72.39 -101.4)"/><ellipse class="cls-6" cx="1334.76" cy="1758.29" rx="1101.06" ry="90.43"/><polygon class="cls-7" points="762.27 1766.55 724 1766.35 824.64 1314.48 861.23 1322.18 762.27 1766.55"/><polygon class="cls-7" points="1690.08 1766.55 1728.34 1766.35 1627.71 1314.48 1591.12 1322.18 1690.08 1766.55"/><path class="cls-8" d="M1529.34,1794.7h0a13.47,13.47,0,0,1-13.47-13.46V1539.56h26.93v241.68A13.46,13.46,0,0,1,1529.34,1794.7Z" transform="translate(-72.39 -101.4)"/><path class="cls-8" d="M1204.84,1794.7h0a13.47,13.47,0,0,1-13.47-13.46V1539.56h26.93v241.68A13.46,13.46,0,0,1,1204.84,1794.7Z" transform="translate(-72.39 -101.4)"/><rect class="cls-9" x="1089.92" y="1391.12" width="403.95" height="47.53" rx="21.72"/><path class="cls-10" d="M1486.08,1094.45c24.62,7.19,119.44,108.89,142.15,184.14-12.3,67.66-119.72,102.79-119.72,102.79l-1.8-52.43s35.28-23.48,51.41-50.36c-25.69-18.53-76.33-80.87-76.33-80.87Z" transform="translate(-72.39 -101.4)"/><path class="cls-10" d="M1249.51,1094.45c-24.63,7.19-85.7,104.94-110.73,193.31a1023.8,1023.8,0,0,0-116.87,89.43l60.84,4s79.82-19.67,122.09-65.54c17.61-35.9,49-117.94,49-117.94Z" transform="translate(-72.39 -101.4)"/><polygon class="cls-6" points="1335.45 974.25 1252.58 977.93 1244.22 1059.01 1253.26 1290.4 1340.65 1289.31 1363.49 1030.28 1335.45 974.25"/><path class="cls-11" d="M1309.29,953.13c11.54-13.27,20.64-.4,37.09-16.82s29.67-28.24,43.75-10.91,21.34,19.76,31.59,18.76,10.2,41.17,10.2,41.17,25.07-6.61,27.06-34.69c2.35-33.1-13-28.13-21.28-54.58s-40.37-41.36-55-35c-15.47,6.69-23.59,14.06-46.12,8.58s-41.93,1.16-41.9,30.37-34.31,20.5-23.31,57c4.26,14.15,16.22,27.18,21.77,26C1300.52,981.49,1301.85,961.68,1309.29,953.13Z" transform="translate(-72.39 -101.4)"/><path class="cls-12" d="M1425.56,981.33c-5.52,10.66-4,23.84,3.52,29.44s18,1.51,23.53-9.15,4-23.84-3.52-29.44S1431.09,970.68,1425.56,981.33Z" transform="translate(-72.39 -101.4)"/><path class="cls-13" d="M1435.54,1005.51a1.59,1.59,0,0,0,.61-.06,2.68,2.68,0,0,0,1.65-3.06c-1.1-6.9-.52-12,1.69-14.74,3-3.7,8.25-2.59,8.3-2.58a2.23,2.23,0,0,0,2.48-2.06,2.48,2.48,0,0,0-1.59-3c-.3-.07-7.49-1.63-12.09,4.05-3.32,4.1-4.29,10.64-2.88,19.44A2.17,2.17,0,0,0,1435.54,1005.51Z" transform="translate(-72.39 -101.4)"/><polygon class="cls-13" points="1266.15 994.65 1294.98 1017.46 1324.25 994.65 1328.12 938.92 1262.27 938.92 1266.15 994.65"/><path class="cls-11" d="M1248.6,1094.45l1.5,297.35c28.22,23.16,83.52,29.49,83.52,29.49l-10-336.56Z" transform="translate(-72.39 -101.4)"/><path class="cls-11" d="M1488.62,1094.45l-1.5,297.35c-28.21,23.16-81,30.12-81,30.12l7.52-337.19Z" transform="translate(-72.39 -101.4)"/><polygon class="cls-14" points="1210.67 1031 1258.3 1236.51 1251.07 979.7 1210.67 1031"/><polygon class="cls-14" points="1384.29 1016.77 1335.45 1238.87 1341.27 983.33 1384.29 1016.77"/><path class="cls-12" d="M1366.4,897.3c-85-2-65.59,112.48-59.39,130.46,3.39,9.81,25,47.43,59.62,48,34.67-.53,55.76-38.15,59.15-48C1432,1009.78,1454.32,898.64,1366.4,897.3Z" transform="translate(-72.39 -101.4)"/><path class="cls-11" d="M1351.51,978.89a3.87,3.87,0,0,0,1.88-2.23,3.93,3.93,0,0,0-2.5-5c-.62-.2-15.34-4.88-28.73,4.73a3.93,3.93,0,1,0,4.58,6.38c10.18-7.31,21.58-3.69,21.69-3.65A3.91,3.91,0,0,0,1351.51,978.89Z" transform="translate(-72.39 -101.4)"/><path class="cls-11" d="M1389.15,978.89a3.87,3.87,0,0,1-1.88-2.23,3.93,3.93,0,0,1,2.5-5c.62-.2,15.34-4.88,28.73,4.73a3.93,3.93,0,0,1-4.58,6.38c-10.18-7.31-21.58-3.69-21.69-3.65A3.91,3.91,0,0,1,1389.15,978.89Z" transform="translate(-72.39 -101.4)"/><path d="M1404.93,991.48a6.93,6.93,0,1,1-6.93-6.93A6.93,6.93,0,0,1,1404.93,991.48Z" transform="translate(-72.39 -101.4)"/><path d="M1347,990.47a6.93,6.93,0,1,1-6.93-6.93A6.93,6.93,0,0,1,1347,990.47Z" transform="translate(-72.39 -101.4)"/><path class="cls-13" d="M1370.81,995.8c4.27,9.55,9.73,21.24,9.73,21.24s-4.51,8.82-16.75,7.24c5.47-1.42,11.07-4.18,9.93-11.38S1370.81,995.8,1370.81,995.8Z" transform="translate(-72.39 -101.4)"/><polygon class="cls-10" points="1302.55 1038.78 1317.08 1233.96 1295.29 1259.69 1273.49 1233.96 1288.35 1039.28 1302.55 1038.78"/><polygon class="cls-10" points="1310.52 1017.8 1296.02 1014 1281.2 1018.46 1288.34 1039.64 1302.59 1039.39 1310.52 1017.8"/><path class="cls-3" d="M1367.67,1115.43a72.39,72.39,0,0,1-26.64,22l-28.58-43.37,12.52-14.76Z" transform="translate(-72.39 -101.4)"/><path class="cls-3" d="M1367.67,1115.43s13.9,16.21,27.4,21.08l25.88-46.83-12.19-14Z" transform="translate(-72.39 -101.4)"/><path class="cls-11" d="M1299.18,973.75c9.6,3.2,12.71-49.4,50-24.51,26.28,17.53,75.24,14.75,65.45-9,7.85,5.82,19.27,17.39,19.27,17.39l-17.27-57.17s-71.25-22.39-96.56.29S1299.18,973.75,1299.18,973.75Z" transform="translate(-72.39 -101.4)"/><path class="cls-12" d="M1314,983.41c5.65,11.08,2.36,24.08-7.36,29s-22.16,0-27.81-11.1-2.36-24.09,7.35-29S1308.34,972.32,1314,983.41Z" transform="translate(-72.39 -101.4)"/><path class="cls-13" d="M1299.28,1006.66a2.76,2.76,0,0,1-.74-.11,2.55,2.55,0,0,1-1.7-3.19c2.06-6.79,1.88-11.92-.53-14.83-3.25-3.94-9.82-3.28-9.89-3.28a2.56,2.56,0,0,1-.57-5.08c.38,0,9.33-1,14.37,5.06,3.63,4.37,4.14,11,1.51,19.61A2.56,2.56,0,0,1,1299.28,1006.66Z" transform="translate(-72.39 -101.4)"/><path class="cls-13" d="M1370.29,1046.87c-12.12,0-22.52-6.59-23.28-7.33a3.17,3.17,0,0,1,4.16-4.76c.92.59,22.08,13.58,36-1.69a3.16,3.16,0,1,1,4.68,4.25,28,28,0,0,1-20.57,9.52Z" transform="translate(-72.39 -101.4)"/><polygon class="cls-10" points="1456.95 1340.04 1397.96 1285.68 1203.1 1285.68 1132.43 1339.68 1212.24 1397.5 1388.97 1397.5 1456.95 1340.04"/><g id="c"><path d="M1255.68,1756.31c-18.06,39.12-83.51,32.57-72,76s131.14-25.85,131.14-25.85c-2.22-10.61-9-35.49-13.11-44.94Z" transform="translate(-72.39 -101.4)"/><path d="M1481.23,1754.34c18.85,40.82,87.16,34,75.11,79.34s-136.85-27-136.85-27c2.31-11.07,9.42-37,13.68-46.9Z" transform="translate(-72.39 -101.4)"/><path id="c-2" data-name="c" class="cls-11" d="M1310.7,1519.35c-.44-62.48-53.18-131.88-105.86-85.33-55.25,48.82,34,326.14,34,326.14,32.85,19.63,48.56,19,82.52,0C1321.36,1760.16,1311.12,1579.65,1310.7,1519.35Z" transform="translate(-72.39 -101.4)"/><path id="c-3" data-name="c" class="cls-11" d="M1435.24,1519.35c.44-62.48,52.48-105.66,94.1-77.92,45,30-28.68,325.11-28.68,325.11-12.74,6.12-49.89,10.09-75.78,2.72C1424.88,1769.26,1434.82,1579.65,1435.24,1519.35Z" transform="translate(-72.39 -101.4)"/></g><g id="с"><path id="с-2" data-name="с" class="cls-8" d="M1905.38,1868h0a13.47,13.47,0,0,1-13.46-13.47v-238.6h26.93v238.6A13.48,13.48,0,0,1,1905.38,1868Z" transform="translate(-72.39 -101.4)"/><path id="с-3" data-name="с" class="cls-8" d="M1999.88,1868h0a13.48,13.48,0,0,1-13.47-13.47v-238.6h26.94v238.6A13.48,13.48,0,0,1,1999.88,1868Z" transform="translate(-72.39 -101.4)"/><path id="с-4" data-name="с" class="cls-8" d="M2123.88,1868h0a13.48,13.48,0,0,1-13.47-13.47v-238.6h26.93v238.6A13.47,13.47,0,0,1,2123.88,1868Z" transform="translate(-72.39 -101.4)"/><path id="с-5" data-name="с" class="cls-8" d="M2218.37,1868h0a13.48,13.48,0,0,1-13.47-13.47v-238.6h26.94v238.6A13.48,13.48,0,0,1,2218.37,1868Z" transform="translate(-72.39 -101.4)"/><path id="с-6" data-name="с" class="cls-9" d="M2069.37,1261.77V1545.7a5.84,5.84,0,0,1-5.85,5.85h-176a32.16,32.16,0,0,0-32.16,32.16h0a32.16,32.16,0,0,0,32.16,32.17h214.06a32.16,32.16,0,0,0,32.16-32.17V1261.77a32.16,32.16,0,0,0-32.16-32.16h0A32.16,32.16,0,0,0,2069.37,1261.77Z" transform="translate(-72.39 -101.4)"/><rect id="с-7" data-name="с" class="cls-9" x="2029.14" y="1128.21" width="139.19" height="327.16"/><path id="с-8" data-name="с" class="cls-8" d="M2208.56,1261.77V1545.7a5.84,5.84,0,0,1-5.85,5.85h-176a32.16,32.16,0,0,0-32.16,32.16h0a32.16,32.16,0,0,0,32.16,32.17h214.06a32.16,32.16,0,0,0,32.16-32.17V1261.77a32.16,32.16,0,0,0-32.16-32.16h0A32.16,32.16,0,0,0,2208.56,1261.77Z" transform="translate(-72.39 -101.4)"/></g><path class="cls-12" d="M1929.48,1325.54c13.37,7.44,13.52,53.78,8.91,56.5-154.19,10.72-193.08,5.09-193.08,5.09l1.94-26.24S1836.19,1332.86,1929.48,1325.54Z" transform="translate(-72.39 -101.4)"/><path class="cls-12" d="M2074.69,1240.8c-23.68,37.87-122.13,140.34-138.22,141.79l-18.18-55.86s92.32-122.17,108.72-141C2055.32,1153.06,2113.47,1179,2074.69,1240.8Z" transform="translate(-72.39 -101.4)"/><path class="cls-12" d="M1718.93,1357.17a199.5,199.5,0,0,1,29.93,3l8.93,4.67-1,15.17c-12.85,17.63-51.31,20.49-54.84,20.49-9.15,0-13.44.57-14-.71s-2.12-9.55,11.19-10c16.71-.53,6.89-14.71-27.75-5.08-8.68,2.42-24.12-3.06-17.87-8.7C1660.43,1369.86,1679.87,1356.13,1718.93,1357.17Z" transform="translate(-72.39 -101.4)"/><path class="cls-15" d="M2018,1038.44c-2.85-38.77,8.36-73,39.28-90.47,31.33-17.68,70.59-.34,70.59-.34h0s33.23-11.82,63.34,21.35,7.34,62.36,19.65,86.55c7.3,14.33,44.4,17.28,34.81,64-2.76,13.45-18.95,22.51-32.66,23.41-24.08,1.58-46.51-7.73-56.28,1.58-32.17,30.69-103.47,19.59-113.45-8.48-3.1-8.7-67.23,8.14-60.83-51.13C1985.73,1054.82,2020.59,1073.09,2018,1038.44Z" transform="translate(-72.39 -101.4)"/><polygon class="cls-12" points="2004.43 1062.39 2055.35 1052.99 2074.44 1078.39 2033.86 1161.59 1974.17 1110.93 2004.43 1062.39"/><path class="cls-16" d="M2010.81,1364.39c.87-15.83-24.72-80.84-11.25-113.56,9.81-26.32,26.19-70.51,46.26-77.88,9.47-3.48,19.2-5.91,31-9.17,0,0-6.65,33.17,7.21,34.28,26.7,2.15,43.72-43.68,43.72-43.68,14.39-1.37,80.4,20.32,80.37,25.74-.15,42.46-34.65,104.41-45.93,150.32C2157.74,1380,2175,1439.35,2175.1,1445c0,0-106.2,29.86-169.15-4.8C2004.63,1435.36,2009.6,1386.25,2010.81,1364.39Z" transform="translate(-72.39 -101.4)"/><path class="cls-16" d="M2159.13,1394.05s23.44,59.15,29.16,96.38-26.55,61.13-26.55,61.13H1893.41S1864.68,1505,1873,1472.8s27.3-37.28,27.3-37.28Z" transform="translate(-72.39 -101.4)"/><path class="cls-13" d="M1889.82,1433.87c34.25-4.83,133.68,33.79,176.08,117.69H1947.29Z" transform="translate(-72.39 -101.4)"/><path class="cls-13" d="M1927.39,1464.75a95,95,0,0,1-12-17c-10-17.62-34.1-20.59-47.71-5.59-49.45,54.52-154.87,178.82-178.38,194.29-6.64,4.37-45.38,26.68-82.22,22.26,0,0-18.18,6.93-6.06,21.37,6.23,7.42,99.84,15.1,99.84,15.1l7.29-27.48c54.49-40.33,122.32-37.43,179.84-111.16C1919.67,1515.89,1927.39,1464.75,1927.39,1464.75Z" transform="translate(-72.39 -101.4)"/><path class="cls-10" d="M1681.91,1711l-37.67,24.45-5.18-6.17,30.55-28.5c-17.35-13.69-57.55-2.26-57.55-2.26-13.17-8.51-38.84-36.09-41.48-50.87,8.43-10.51,36.51,11.1,36.51,11.1-1,4.68,7.84,20.9,14.89,23.67,30.67,6.62,61.24-2.1,86.18-14.76C1708.16,1667.65,1729,1699.23,1681.91,1711Z" transform="translate(-72.39 -101.4)"/><path class="cls-12" d="M1927.93,1472.16a17.7,17.7,0,0,1,13,14.63c2.69,19,16.54,57.56-2.2,97.92-46,99.08-73.19,164.36-78,189.93,12,22.51-35.91,84-36.62,88l-34.5-10.79s19.8-29.45,26.92-41c17-27.46,19.75-61.15,22.51-87.26,11.78-111.5-8.47-181.89,72.2-247.3C1916,1472.48,1922,1470.56,1927.93,1472.16Z" transform="translate(-72.39 -101.4)"/><path class="cls-10" d="M1877.87,1821.8l-3.4,44.78-8,.37-4.13-41.57c-21.41,5.5-36.7,44.39-36.7,44.39-14.75,5.31-52.25,9-65.61,2.14-3.24-13.08,31-22.3,31-22.3,3.1,3.66,21.37,6.44,27.86,2.51,23.86-20.38,36.82-50,41.87-77.48C1860.68,1774.64,1897.08,1777.22,1877.87,1821.8Z" transform="translate(-72.39 -101.4)"/><path class="cls-12" d="M2089.68,1122.2,2131,1116l-3.29,38.38s-7.92,17.39-17.1,18.57l-33.83-9.17Z" transform="translate(-72.39 -101.4)"/><path class="cls-12" d="M2169.29,1066.7c-10.68,44.58-47.71,73.92-82.73,65.54s-54.74-51.32-44.07-95.9,47.71-73.92,82.73-65.54S2180,1022.12,2169.29,1066.7Z" transform="translate(-72.39 -101.4)"/><path d="M2058.9,1048.05a6.26,6.26,0,1,1-2.81-8.39A6.26,6.26,0,0,1,2058.9,1048.05Z" transform="translate(-72.39 -101.4)"/><path d="M2108.08,1060.18a6.78,6.78,0,1,1-3-9.08A6.77,6.77,0,0,1,2108.08,1060.18Z" transform="translate(-72.39 -101.4)"/><path class="cls-15" d="M2115.57,1054.57a2.31,2.31,0,0,1-1.08-1.12c-3.4-7.33-12.58-8.75-12.67-8.77a2.35,2.35,0,0,1,.67-4.66c.47.06,11.79,1.77,16.27,11.45a2.35,2.35,0,0,1-3.19,3.1Z" transform="translate(-72.39 -101.4)"/><path class="cls-15" d="M2045.25,1039a2.32,2.32,0,0,1-.63-.46,2.35,2.35,0,0,1,0-3.33,16.55,16.55,0,0,1,16.42-4,2.36,2.36,0,0,1-1.52,4.46,11.86,11.86,0,0,0-11.59,2.92A2.36,2.36,0,0,1,2045.25,1039Z" transform="translate(-72.39 -101.4)"/><path class="cls-13" d="M2062.93,1061.67c-3.44,3.53-6.45,7.17-9.73,9.24a2.49,2.49,0,0,0-.82,3.31c2.65,4.7,10.39,8.56,15.13,10.58a.67.67,0,0,0,.7-1.11c-4.79-4.2-6.85-7.29-7.71-9a3,3,0,0,1,0-2.68c1-1.94,2.93-5.89,4.26-9.17A1.11,1.11,0,0,0,2062.93,1061.67Z" transform="translate(-72.39 -101.4)"/><path class="cls-12" d="M2152.44,1067c-8.51,6.62-11,17.63-5.6,24.59s16.71,7.24,25.21.62,11-17.63,5.6-24.59S2161,1060.37,2152.44,1067Z" transform="translate(-72.39 -101.4)"/><path class="cls-13" d="M2157.28,1089.56a2.31,2.31,0,0,1-.83-.7c-3.27-4.34-3.57-9.23-.82-13.06a11.36,11.36,0,0,1,12.44-4.27,2.36,2.36,0,0,1-1.48,4.48,6.71,6.71,0,0,0-7.13,2.54c-1.53,2.13-1.26,4.79.76,7.48a2.36,2.36,0,0,1-2.94,3.53Z" transform="translate(-72.39 -101.4)"/><path class="cls-3" d="M2101.63,1097.21a1.87,1.87,0,0,0-1.72-3,133.27,133.27,0,0,1-35.39,0,1.87,1.87,0,0,0-1.72,3c3,4.1,9.3,10.31,19.41,10.31S2098.6,1101.31,2101.63,1097.21Z" transform="translate(-72.39 -101.4)"/><path class="cls-15" d="M2170.15,1062.76c-41.79-5.6-100.27-48.17-105.06-70,8.08-26.24,51.15-39.44,75.47-27.28S2187.85,1029.73,2170.15,1062.76Z" transform="translate(-72.39 -101.4)"/><path class="cls-12" d="M2379,1102.73c-22.71-10.92-17.89-32.11-17.89-32.11-9.87,1.29-32.21,91.8-36.52,145.8-49.44-23.75-131.18-50.5-149.55-47.22,0,0-25.63,2-24,33.3,1.47,27.91,37.09,35.4,37.09,35.4s156.59,43.89,172.32,29.46C2384.91,1244.89,2373.6,1130.43,2379,1102.73Z" transform="translate(-72.39 -101.4)"/><path class="cls-12" d="M2404.38,1091.36c-10,4.25-24.42,3.69-25.1,14.25l-23.66-2.67-5.54-11.72c7.46-33.92,46.89-56.8,50.94-58.65,10.52-4.82,15.17-7.73,16.53-6.58s7.46,9.88-7.63,17.37c-18.93,9.41-.18,20.55,34.6-8.76,8.71-7.34,29.35-9.17,25.12.6C2465,1046,2449.85,1072,2404.38,1091.36Z" transform="translate(-72.39 -101.4)"/><g id="с-9" data-name="с"><path id="с-10" data-name="с" class="cls-8" d="M771.48,1585.45h1.08a15.78,15.78,0,0,1,15.78,15.78V1871a0,0,0,0,1,0,0H755.71a0,0,0,0,1,0,0V1601.22A15.78,15.78,0,0,1,771.48,1585.45Z" transform="translate(1471.66 3355.06) rotate(180)"/><path id="с-11" data-name="с" class="cls-8" d="M657,1585.45h1.08a15.78,15.78,0,0,1,15.78,15.78V1871a0,0,0,0,1,0,0H641.22a0,0,0,0,1,0,0V1601.22A15.78,15.78,0,0,1,657,1585.45Z" transform="translate(1242.69 3355.06) rotate(180)"/><path id="с-12" data-name="с" class="cls-8" d="M491,1855.76c0,8.42,7.31,15.25,16.32,15.25h0c9,0,16.31-6.83,16.31-15.25V1585.45H491Z" transform="translate(-72.39 -101.4)"/><path id="с-13" data-name="с" class="cls-8" d="M392.3,1585.45h1.08a15.78,15.78,0,0,1,15.78,15.78V1871a0,0,0,0,1,0,0H376.52a0,0,0,0,1,0,0V1601.22A15.78,15.78,0,0,1,392.3,1585.45Z" transform="translate(713.29 3355.06) rotate(180)"/><path id="с-14" data-name="с" class="cls-9" d="M573.35,1156.44v344a7.09,7.09,0,0,0,7.09,7.08H793.72a39,39,0,0,1,39,39h0a39,39,0,0,1-39,39H534.39a39,39,0,0,1-39-39v-390a39,39,0,0,1,39-39h0A39,39,0,0,1,573.35,1156.44Z" transform="translate(-72.39 -101.4)"/><rect id="с-15" data-name="с" class="cls-9" x="365.76" y="1117.48" width="168.63" height="396.36" transform="translate(827.77 2529.93) rotate(180)"/><path id="с-16" data-name="с" class="cls-8" d="M404.73,1156.44v344a7.08,7.08,0,0,0,7.08,7.08H625.1a39,39,0,0,1,39,39h0a39,39,0,0,1-39,39H365.76a39,39,0,0,1-39-39v-390a39,39,0,0,1,39-39h0A39,39,0,0,1,404.73,1156.44Z" transform="translate(-72.39 -101.4)"/></g><g id="c-4" data-name="c"><g id="c-5" data-name="c"><path class="cls-12" d="M864.59,1158.6c-10.61-11-22.87-15.75-23-35.81,0-7.3.56-14.91,1-23.76.63-13.66,3.33-25.13,6.18-25.7,6.47-1.29,8.58,2.26,9.62,10.33.8,6.24-2.77,14.54,1.65,18.1,3.94,3.16,9.53,5.2,23.13-10.63,17.37-20.21,20-30.33,27.23-25.39,4.75,3.23-3.09,14-19.07,33.41,12-6.72,26.54-37.64,35.37-29.55,6.42,5.87-21.8,34.65-30.3,40.4,17.85-7,30.43-33.13,35.4-30.46,10.13,6.1-11.43,31.22-27,38.46,16.8-2.92,22.41-18.59,26.78-15.36,8.14,6-16.49,31.91-35,40.73Z" transform="translate(-72.39 -101.4)"/><path class="cls-13" d="M869.7,1110c1.56,5,3.24,11.62-.92,18.38-4,6.47-13.07,7.52-13.07,7.52,5.9,1.47,12.28.15,16-5.41,4.51-6.68,2.57-16.13-2-20.49Z" transform="translate(-72.39 -101.4)"/><path id="c-6" data-name="c" class="cls-17" d="M746.5,1219.33c36.29-27.6,88.86-88.92,88.86-88.92,20.82,9.11,31.82,32.15,31.82,32.15-25.11,90.51-103,165.54-138.48,171-32.36,4.94-114.3-151.18-74.54-226.9l16.61-3.67C716,1125.17,746.5,1219.33,746.5,1219.33Z" transform="translate(-72.39 -101.4)"/></g><path class="cls-12" d="M922.17,1824.36l38.71,9.81,15.81-34.48c-1.64-1.22-4.18-24.14-5.73-41.58l-62.48,8.62C911.54,1784.33,916.7,1807.35,922.17,1824.36Z" transform="translate(-72.39 -101.4)"/><path class="cls-10" d="M990.48,1844.69s13.39-22.51,30.35-23.92c0,0,32,1.83,43.23,15.29,3.53,4.23,2.17,13.25.78,19-.87,3.61-3.93,7.53-13.39,10.5-14,4.4-32.82,7.09-67.53-1.91-41.65-10.79-48.3-6.35-63.69-11.31-16-5.14-10.83-24.64-6.48-43.63C913.75,1808.73,925.36,1832,990.48,1844.69Z" transform="translate(-72.39 -101.4)"/><path class="cls-11" d="M977.74,1796.32a162,162,0,0,0,42.89,16.84c13.6,3.12,49.85,10.15,44,34.31-.87,3.61-3.93,7.52-13.39,10.5-14,4.4-32.81,7.09-67.53-1.91-41.65-10.8-48.3-6.35-63.69-11.31-15.95-5.14-8.59-27.27-4.24-46.26h0c.4,4.82,2.63,17.47,31.56,28.8C956,1830.67,948.94,1792.57,977.74,1796.32Z" transform="translate(-72.39 -101.4)"/><path class="cls-14" d="M972.33,1825.43a3.27,3.27,0,0,0,3-2.48c2.94-11.83,15.15-12.66,15.67-12.69a3.29,3.29,0,0,0-.33-6.57c-6.07.29-18.41,4.37-21.72,17.67a3.28,3.28,0,0,0,2.4,4A3.17,3.17,0,0,0,972.33,1825.43Z" transform="translate(-72.39 -101.4)"/><path class="cls-14" d="M987.59,1831.55a3.28,3.28,0,0,0,3-2.49c2.94-11.82,15.16-12.65,15.68-12.69a3.28,3.28,0,0,0-.34-6.56c-6.07.28-18.41,4.37-21.72,17.67a3.29,3.29,0,0,0,2.4,4A3.49,3.49,0,0,0,987.59,1831.55Z" transform="translate(-72.39 -101.4)"/><path class="cls-12" d="M771,1838.94l37.92,12.51,18.2-33.28c-1.55-1.33-7-25.54-7.33-43.05l-58.4,5.37C763.17,1798.26,766.7,1821.59,771,1838.94Z" transform="translate(-72.39 -101.4)"/><path class="cls-10" d="M708,1407.24c86.46,15.8,209.26,71.8,221.37,84.54,25,26.32,37.27,116.83,49.07,278l-75.67,5.05c-27.93-125.94-54.2-180.85-58.49-232,0,0-66.31,4.59-166.09-33.92-49.19-19-100.44-41.12-85.69-85.56C604.27,1388,625.58,1392.18,708,1407.24Z" transform="translate(-72.39 -101.4)"/><path class="cls-11" d="M611.31,1414.77c71.84,7.43,167.65,89.62,179.77,102.36,25,26.32,28.17,116.19,40,277.41l-75.31,6.94C743.55,1718,707.91,1622.27,708,1560.94c0,0-67.4-14.61-171.75-38.08-57.07-12.83-74.2-21.68-85.12-58.95-3.71-12.68-8.75-42.06-3.05-48.62C473.29,1386.29,543.32,1407.75,611.31,1414.77Z" transform="translate(-72.39 -101.4)"/><path class="cls-10" d="M837.67,1864s14.94-21.5,32-21.73c0,0,31.79,4.09,42,18.3,3.22,4.47,1.23,13.37-.57,19-1.12,3.54-4.45,7.23-14.09,9.53-14.25,3.41-33.24,4.77-67.23-6.65-40.79-13.7-47.73-9.74-62.74-15.77-15.55-6.25-9.06-25.34-3.39-44C763.66,1822.76,773.61,1846.76,837.67,1864Z" transform="translate(-72.39 -101.4)"/><path class="cls-11" d="M828.36,1814.88A162.17,162.17,0,0,0,870,1834.69c13.34,4.07,49,13.63,41.48,37.33-1.12,3.54-4.45,7.23-14.09,9.53-14.25,3.4-33.24,4.76-67.23-6.66-40.79-13.7-47.73-9.73-62.74-15.76-15.55-6.25-6.65-27.81-1-46.45h0c.05,4.84,1.39,17.61,29.46,31C804.26,1847.61,799.89,1809.12,828.36,1814.88Z" transform="translate(-72.39 -101.4)"/><path class="cls-14" d="M814.56,1844.8a3.28,3.28,0,0,0,3-2.49c2.94-11.82,15.16-12.65,15.67-12.69a3.28,3.28,0,0,0-.33-6.56c-6.07.28-18.41,4.37-21.72,17.66a3.29,3.29,0,0,0,2.4,4A3.49,3.49,0,0,0,814.56,1844.8Z" transform="translate(-72.39 -101.4)"/><path class="cls-14" d="M829.82,1850.92a3.3,3.3,0,0,0,3-2.49c2.94-11.82,15.16-12.65,15.68-12.69a3.29,3.29,0,0,0-.34-6.57c-6.07.29-18.41,4.38-21.72,17.67a3.3,3.3,0,0,0,2.4,4A3.49,3.49,0,0,0,829.82,1850.92Z" transform="translate(-72.39 -101.4)"/><polygon id="v-2" class="cls-13" points="491.49 929.15 491.53 929.15 520.19 929.25 526.68 996.95 493.22 1014.61 457.54 997.15 463.31 929.25 491.49 929.15"/><path class="cls-11" d="M560.13,1022.62c-24.71,8.71-45.25-20.74-45.25-20.74-16.12.92-17-15.15-17-15.15-7.88-.61-19.49-6.33-19.48-21.12,0-12.51,11.82-14.57,10.2-28.87-1.3-11.47-15.49-37.12,19.78-47.26,0,0-3.78-21,16.58-30.8,25-12,35,2.37,47.19,2.62,13.6.29,38.66-17.78,49,11.26,0,0,18.5-3.7,30,7.8,10.68,10.71,9.63,27.7,5.64,34.75,0,0,15.88,1.72,22.4,14.94,4.38,8.86,3.44,21.79-4.58,29.76a27.83,27.83,0,0,1-10.67,6.68c-5.8,2.34-2.57,18.56-7.18,22.87a124.39,124.39,0,0,1-24.66,17.42Z" transform="translate(-72.39 -101.4)"/><path class="cls-12" d="M510.65,985.8c4.72,47.25,44.48,85.65,81.58,81.94s57.51-48.13,52.78-95.37-38.63-82.54-75.73-78.83S505.92,938.56,510.65,985.8Z" transform="translate(-72.39 -101.4)"/><path d="M625.78,989.52a6.49,6.49,0,1,0,4.06-8.22A6.48,6.48,0,0,0,625.78,989.52Z" transform="translate(-72.39 -101.4)"/><path d="M575.74,990.51a7,7,0,1,0,4.4-8.9A7,7,0,0,0,575.74,990.51Z" transform="translate(-72.39 -101.4)"/><path class="cls-13" d="M605.38,990.81c6.51,9.07,14.73,20.13,14.73,20.13s-2.83,10.18-16,11.16c5.42-2.65,10.68-6.75,7.94-14S605.38,990.81,605.38,990.81Z" transform="translate(-72.39 -101.4)"/><path class="cls-11" d="M567,982.32a2.81,2.81,0,0,1-.7-.29,3.24,3.24,0,0,1-1.22-4.41c2.4-4.25,9.46-11.57,18.95-8.87a3.23,3.23,0,0,1-1.76,6.22c-7-2-11.51,5.76-11.56,5.84A3.22,3.22,0,0,1,567,982.32Z" transform="translate(-72.39 -101.4)"/><path class="cls-11" d="M625.32,976.55a2.7,2.7,0,0,1-1.11-4.55c.17-.16,4.21-3.93,9.63-3.4,3.7.36,7,2.56,9.81,6.54a2.7,2.7,0,0,1-4.41,3.11c-1.86-2.64-3.86-4.08-5.93-4.28a7.82,7.82,0,0,0-5.39,1.94A2.69,2.69,0,0,1,625.32,976.55Z" transform="translate(-72.39 -101.4)"/><path class="cls-11" d="M653.65,924.37l-82.95-47-78.57,64.31,24.8,61.37c-4.16-29.94,16-24.37,23.4-35s8.69-25.31,33.54-18.11c0,0,15.34-16.34,28.41-.85,10.11,12,19.27,7.26,29.11,5.86,11.61-1.65,11.3,10,18.21,8.16Z" transform="translate(-72.39 -101.4)"/><path class="cls-12" d="M520.88,981.4c7.83,8,8.91,19.6,2.4,26s-18.14,5.16-26-2.79-8.92-19.6-2.41-26S513,973.44,520.88,981.4Z" transform="translate(-72.39 -101.4)"/><path class="cls-13" d="M512.84,1003.91a2.43,2.43,0,0,0,.94-.6c4-4,4.93-9,2.62-13.3a11.76,11.76,0,0,0-12.19-6.07,2.44,2.44,0,1,0,.91,4.79,7,7,0,0,1,7,3.59c1.28,2.4.64,5.09-1.8,7.57a2.44,2.44,0,0,0,2.54,4Z" transform="translate(-72.39 -101.4)"/><path class="cls-3" d="M620.66,1037a2.15,2.15,0,0,0-1.81-3.51,152.51,152.51,0,0,1-40.4-2,2.15,2.15,0,0,0-2.14,3.32c3.24,4.84,10.06,12.28,21.61,12.84S617,1041.54,620.66,1037Z" transform="translate(-72.39 -101.4)"/><g id="v"><path class="cls-16" d="M448.1,1416.6s60,6.19,116.19,6.56c56.2-.41,116.18-11.32,116.18-11.32s-7.55-103.22-6.78-142.86c1.09-45.52-2.92-105.87-2.92-166,0,0-39.87-6.41-62.36-9.19-3.65-.45-6.85-.8-9.34-1,0,0-12.82,26.88-68.65,0a71.36,71.36,0,0,0-10.62,0c-23.46,1.4-61.24,10.25-61.24,10.25,0,60-2.42,118.79-1.61,164.31C454.45,1307.87,448.1,1416.6,448.1,1416.6Z" transform="translate(-72.39 -101.4)"/></g><g id="c-7" data-name="c"><path class="cls-12" d="M603.81,1267.2c-4.53-13.84-13.09-22.91-4.95-40.17,3-6.27,6.63-12.54,10.62-20,6.17-11.44,13.22-20.15,15.9-19.46,6.07,1.56,6.42,5.48,4,12.82-1.89,5.68-8.38,11.31-6.05,16.18,2.06,4.34,6,8.39,24.19.44,23.21-10.14,29.64-17.72,33.81-10.52,2.73,4.73-8.42,10.71-30.13,20.76,13-.81,38.26-21.29,42.5-10.72,3.07,7.68-33,20.69-42.63,22.1,18.18,1.37,39.74-15.82,42.89-11.48,6.16,9.4-22.67,22-39,21.79,15.6,4.43,26.87-6.68,29.28-2.1,4.48,8.53-27.29,20.53-46.81,20.43Z" transform="translate(-72.39 -101.4)"/><path id="c-8" data-name="c" class="cls-17" d="M470.06,1253.61c45.48-3.18,123.06-25.64,123.06-25.64,12.42,19,9,44.34,9,44.34-70.64,61.92-176.94,81.94-209.55,67-29.78-13.6-8.76-194.86,66-236.39l2.6.25C486.79,1146.57,470.06,1253.61,470.06,1253.61Z" transform="translate(-72.39 -101.4)"/></g><path class="cls-17" d="M519.8,1092.7h0c3.88,6.48,9.37,11.39,17.12,15.29,12.27,6.19,29,8.81,39.22,8,8.13-.64,17.15-4,22.93-8.54,6.13-4.87,8.8-11.07,9.34-13.71-3.65-.45-7.41-1-9.9-1.24,0,0-12.26,27.1-68.09.22A71.36,71.36,0,0,0,519.8,1092.7Z" transform="translate(-72.39 -101.4)"/></g><path class="cls-18" d="M675.11,1381.78H935l51.3-163.09a11.69,11.69,0,0,0-11.15-15.2H739.76a11.69,11.69,0,0,0-11.15,8.19Z" transform="translate(-72.39 -101.4)"/><path class="cls-6" d="M694.82,1381.78H954.67l51.3-163.09a11.69,11.69,0,0,0-11.15-15.2H759.47a11.69,11.69,0,0,0-11.15,8.19Z" transform="translate(-72.39 -101.4)"/><path class="cls-19" d="M847.8,1295.85c-2.86,10.08,2.24,20.35,11.38,23s18.89-3.46,21.75-13.54-2.23-20.34-11.38-22.94S850.66,1285.78,847.8,1295.85Z" transform="translate(-72.39 -101.4)"/><path class="cls-18" d="M527.48,1364.75H694.82v16.63h-184A16.63,16.63,0,0,1,527.48,1364.75Z" transform="translate(-72.39 -101.4)"/><path class="cls-18" d="M1902.94,1381.78H1650.09l-49.91-158.69A11.38,11.38,0,0,1,1611,1208.3h229a11.38,11.38,0,0,1,10.85,8Z" transform="translate(-72.39 -101.4)"/><path class="cls-6" d="M1883.76,1381.78H1630.91L1581,1223.09a11.38,11.38,0,0,1,10.85-14.79h229a11.4,11.4,0,0,1,10.86,8Z" transform="translate(-72.39 -101.4)"/><path class="cls-19" d="M1734.9,1298.17c2.79,9.8-2.17,19.8-11.07,22.33s-18.38-3.37-21.16-13.17,2.17-19.8,11.07-22.33S1732.12,1288.37,1734.9,1298.17Z" transform="translate(-72.39 -101.4)"/><path class="cls-18" d="M2046.59,1365.21H1883.76v16.17h179A16.17,16.17,0,0,0,2046.59,1365.21Z" transform="translate(-72.39 -101.4)"/><g id="с-17" data-name="с"><path id="с-18" data-name="с" class="cls-7" d="M2146.87,1425.39H429.31c-18.22,0-33-9.94-33-22.2h0c0-12.26,14.77-22.19,33-22.19H2146.87c18.21,0,33,9.93,33,22.19h0C2179.85,1415.45,2165.08,1425.39,2146.87,1425.39Z" transform="translate(-72.39 -101.4)"/></g><path class="cls-19" d="M1504.07,1371.82H1215.65l-10.77-166.07a19.16,19.16,0,0,1,19.12-20.4h271.73a19.17,19.17,0,0,1,19.12,20.41Z" transform="translate(-72.39 -101.4)"/><path class="cls-6" d="M1504.07,1381H1215.65l-10.77-166.07a19.16,19.16,0,0,1,19.12-20.4h271.73a19.17,19.17,0,0,1,19.12,20.4Z" transform="translate(-72.39 -101.4)"/><path class="cls-19" d="M1372.39,1295.78a17.2,17.2,0,1,1-17.2-17.19A17.2,17.2,0,0,1,1372.39,1295.78Z" transform="translate(-72.39 -101.4)"/><path id="c-9" data-name="c" class="cls-12" d="M1494.9,1370.3a8.06,8.06,0,0,1,1.8-1.75l-.36-.24c-7-5.08-9.75-13.27-6.1-18.3a8,8,0,0,1,2.18-2c-3.14-4.53-3.81-9.73-1.21-13.33a8.75,8.75,0,0,1,4.17-3c-3.43-4.32-4.11-9.95-1.2-14,3.64-5,11.45-5.6,17.44-1.27s7.89,11.93,4.24,17a9.75,9.75,0,0,1-3.47,3c5.59,5.08,7.52,12.2,4.23,16.75a8.37,8.37,0,0,1-2.18,2.06c3.14,4.53,3.8,9.73,1.2,13.32a8.63,8.63,0,0,1-3.8,2.91c3.21,3.7,3.94,8.71,1.37,12.25-3.07,4.24-9.67,4.72-14.72,1.06S1491.82,1374.54,1494.9,1370.3Z" transform="translate(-72.39 -101.4)"/><path id="c-10" data-name="c" class="cls-12" d="M1062.91,1390.72a7.84,7.84,0,0,1-1.66-1.89c-.09.12-.17.24-.26.35-5.42,6.75-13.74,9.07-18.58,5.17a8.15,8.15,0,0,1-1.94-2.28c-4.69,2.9-9.91,3.31-13.37.52a8.71,8.71,0,0,1-2.83-4.3c-4.48,3.2-10.14,3.59-14,.48-4.84-3.89-5-11.72-.38-17.48s12.31-7.27,17.15-3.38a9.7,9.7,0,0,1,2.77,3.62c5.35-5.33,12.57-6.89,17-3.37a8.31,8.31,0,0,1,1.94,2.28c4.68-2.91,9.91-3.31,13.36-.53a8.67,8.67,0,0,1,2.72,3.95c3.85-3,8.9-3.49,12.3-.75,4.08,3.28,4.23,9.89.32,14.76S1067,1394,1062.91,1390.72Z" transform="translate(-72.39 -101.4)"/><polygon class="cls-7" points="398.65 1766.55 360.38 1766.35 461.02 1314.48 497.61 1322.18 398.65 1766.55"/><polygon class="cls-7" points="1986.46 1766.55 2024.73 1766.35 1924.09 1314.48 1887.5 1322.18 1986.46 1766.55"/><path class="cls-20" d="M1928,391.7l22.6,147.72a10.31,10.31,0,0,1-8.62,11.75l-256.74,39.28a10.3,10.3,0,0,1-11.74-8.63l-22.6-147.73a10.3,10.3,0,0,1,8.62-11.74l256.74-39.29A10.3,10.3,0,0,1,1928,391.7Z" transform="translate(-72.39 -101.4)"/><path class="cls-21" d="M1928,391.7l1.25,8.16L1825.1,501.78a32.83,32.83,0,0,1-38.37,6.2l-135.14-69.23-.71-4.66a10.31,10.31,0,0,1,8.63-11.75l256.72-39.27A10.31,10.31,0,0,1,1928,391.7Z" transform="translate(-72.39 -101.4)"/><rect class="cls-3" x="601.5" y="601.88" width="341.04" height="188.97" rx="37.89" transform="translate(1471.66 1291.33) rotate(180)"/><path class="cls-3" d="M649.8,782.38v70.35A5.36,5.36,0,0,0,660,855.16l37-72.78Z" transform="translate(-72.39 -101.4)"/><path class="cls-1" d="M646,660.94H894.88a17.33,17.33,0,0,0,17.33-17.34h0a17.33,17.33,0,0,0-17.33-17.33H646a17.33,17.33,0,0,0-17.33,17.33h0A17.33,17.33,0,0,0,646,660.94Z" transform="translate(-72.39 -101.4)"/><path class="cls-1" d="M646,715.92H894.88a17.33,17.33,0,0,0,17.33-17.34h0a17.33,17.33,0,0,0-17.33-17.33H646a17.33,17.33,0,0,0-17.33,17.33h0A17.33,17.33,0,0,0,646,715.92Z" transform="translate(-72.39 -101.4)"/><rect class="cls-1" x="628.64" y="736.23" width="189.31" height="34.66" rx="14.79" transform="translate(1374.2 1405.74) rotate(-180)"/><rect class="cls-4" x="848.31" y="551.58" width="369" height="240.07" rx="40.99"/><path class="cls-4" d="M1237.44,883.88V960a5.81,5.81,0,0,1-11,2.63l-40-78.75Z" transform="translate(-72.39 -101.4)"/><path class="cls-4" d="M2212.36,703.13l-315.81-123.4a39,39,0,0,1-22.13-50.51l144.46-369.7a39,39,0,0,1,50.51-22.13l315.8,123.39a39,39,0,0,1,22.13,50.51L2262.87,681A39,39,0,0,1,2212.36,703.13Z" transform="translate(-72.39 -101.4)"/><rect class="cls-3" x="2041.39" y="266.01" width="33.39" height="296.3" transform="translate(219.48 -822.01) rotate(21.34)"/><rect class="cls-3" x="2087.84" y="284.16" width="33.39" height="296.3" transform="translate(229.26 -837.66) rotate(21.34)"/><rect class="cls-3" x="2134.29" y="302.31" width="33.39" height="296.3" transform="translate(239.09 -853.37) rotate(21.34)"/><rect class="cls-3" x="2180.74" y="320.46" width="33.39" height="296.3" transform="translate(248.83 -868.96) rotate(21.34)"/><rect class="cls-3" x="2227.18" y="338.61" width="33.39" height="296.3" transform="translate(258.64 -884.64) rotate(21.34)"/><rect class="cls-3" x="2102.08" y="251.02" width="33.39" height="15.65" transform="translate(167.1 -854.72) rotate(21.34)"/><rect class="cls-3" x="2046.52" y="257.68" width="33.39" height="15.65" transform="translate(165.73 -834.07) rotate(21.34)"/><rect class="cls-3" x="2028.55" y="303.68" width="33.39" height="15.65" transform="translate(181.23 -824.37) rotate(21.34)"/><rect class="cls-3" x="2010.58" y="349.68" width="33.39" height="15.65" transform="translate(196.74 -814.67) rotate(21.34)"/><rect class="cls-3" x="1992.6" y="395.67" width="33.39" height="15.65" transform="translate(212.25 -804.97) rotate(21.34)"/><rect class="cls-3" x="1992.6" y="395.67" width="33.39" height="15.65" transform="translate(212.25 -804.97) rotate(21.34)"/><rect class="cls-3" x="1974.63" y="441.67" width="33.39" height="15.65" transform="translate(227.74 -795.26) rotate(21.34)"/><rect class="cls-3" x="1956.66" y="487.67" width="33.39" height="15.65" transform="translate(243.25 -785.57) rotate(21.34)"/><rect class="cls-3" x="2148.53" y="269.16" width="33.39" height="15.65" transform="translate(176.9 -870.4) rotate(21.34)"/><rect class="cls-3" x="2194.98" y="287.31" width="33.39" height="15.65" transform="translate(186.72 -886.11) rotate(21.34)"/><rect class="cls-3" x="2241.43" y="305.46" width="33.39" height="15.65" transform="translate(196.52 -901.79) rotate(21.34)"/><rect class="cls-3" x="2287.87" y="323.61" width="33.39" height="15.65" transform="translate(206.27 -917.38) rotate(21.34)"/><path class="cls-3" d="M2334,303.88l-242-94.56a18.26,18.26,0,0,1-10.36-23.66h0a18.26,18.26,0,0,1,23.66-10.37l242,94.56a18.27,18.27,0,0,1,10.37,23.66h0A18.27,18.27,0,0,1,2334,303.88Z" transform="translate(-72.39 -101.4)"/><path class="cls-6" d="M1163.19,833.07a27.91,27.91,0,0,1-1.57,9.2c-5.13,14.72-22.25,25.54-42.58,25.54s-37.45-10.82-42.57-25.54a27.66,27.66,0,0,1-1.57-9.2Z" transform="translate(-72.39 -101.4)"/><path class="cls-18" d="M1163.19,833.07a27.91,27.91,0,0,1-1.57,9.2h-85.15a27.66,27.66,0,0,1-1.57-9.2Z" transform="translate(-72.39 -101.4)"/><path class="cls-20" d="M1211.49,684.14A92.45,92.45,0,1,0,1046,740.77a115.71,115.71,0,0,1,24.53,70.94v.45h97.08v-.45a116.05,116.05,0,0,1,24.6-71A92.07,92.07,0,0,0,1211.49,684.14Z" transform="translate(-72.39 -101.4)"/><path class="cls-3" d="M1133,801.7a2.14,2.14,0,0,1-.78-.14,2.35,2.35,0,0,1-1.45-3c.11-.32,11-31.73,18.93-63.71,14-56.69,6.81-65.91,3.06-67.24-11-3.91-19.85,1.88-25.29,7.42a49.18,49.18,0,0,0-4.57,5.47,89.79,89.79,0,0,1,6.27,13.36c4.9,13.08,6.2,25.3,3.49,32.68-2.1,5.7-6.55,8.58-12.55,8.13-5.65-.42-9.79-3.7-12-9.46-2.49-6.62-2.17-16.34.89-26.69a71.06,71.06,0,0,1,8.29-18.22,45.64,45.64,0,0,0-11.13-12.58c-6.08-4.44-11.79-4.63-17-.58-10.7,8.37-11.11,33.54-1.18,72.79a519.8,519.8,0,0,0,19,58.52,2.36,2.36,0,0,1-4.38,1.77,523.25,523.25,0,0,1-19.2-59.09c-10.58-41.81-9.62-68,2.85-77.71,6.85-5.36,14.91-5.19,22.68.47a49.21,49.21,0,0,1,11.23,12.31,50.34,50.34,0,0,1,3.88-4.48c9-9.22,19.78-12.26,30.23-8.56,6.51,2.3,9.18,11.06,8.17,26.78-.75,11.59-3.52,27.09-8.22,46.07-8,32.2-18.94,63.78-19,64.1A2.36,2.36,0,0,1,1133,801.7Zm-13-116.77a66.78,66.78,0,0,0-6.46,14.93c-2.73,9.24-3.1,18.09-1,23.68,1.51,4,4.1,6.13,7.89,6.42s6.37-1.31,7.75-5.05C1131.38,716.39,1127.58,699,1120.06,684.93Z" transform="translate(-72.39 -101.4)"/><rect class="cls-6" x="988.89" y="699.12" width="115.54" height="35.57" rx="17.42"/><path class="cls-20" d="M1276.1,687.94h-30.23a7.79,7.79,0,0,1-7.79-7.79h0a7.79,7.79,0,0,1,7.79-7.79h30.23a7.79,7.79,0,0,1,7.79,7.79h0A7.79,7.79,0,0,1,1276.1,687.94Z" transform="translate(-72.39 -101.4)"/><path class="cls-20" d="M992.21,687.94H962a7.79,7.79,0,0,1-7.79-7.79h0a7.79,7.79,0,0,1,7.79-7.79h30.22a7.79,7.79,0,0,1,7.79,7.79h0A7.79,7.79,0,0,1,992.21,687.94Z" transform="translate(-72.39 -101.4)"/><path class="cls-20" d="M1011.42,624l-24-18.3a7.78,7.78,0,0,1-1.48-10.92h0a7.78,7.78,0,0,1,10.91-1.48l24.06,18.3a7.79,7.79,0,0,1,1.48,10.92h0A7.79,7.79,0,0,1,1011.42,624Z" transform="translate(-72.39 -101.4)"/><path class="cls-20" d="M1225.12,624l24.06-18.3a7.8,7.8,0,0,0,1.48-10.92h0a7.79,7.79,0,0,0-10.92-1.48l-24,18.3a7.8,7.8,0,0,0-1.49,10.92h0A7.79,7.79,0,0,0,1225.12,624Z" transform="translate(-72.39 -101.4)"/><path class="cls-20" d="M1011.42,746l-24,18.31a7.77,7.77,0,0,0-1.48,10.91h0a7.78,7.78,0,0,0,10.91,1.49l24.06-18.31a7.79,7.79,0,0,0,1.48-10.92h0A7.8,7.8,0,0,0,1011.42,746Z" transform="translate(-72.39 -101.4)"/><path class="cls-20" d="M1225.12,746l24.06,18.31a7.79,7.79,0,0,1,1.48,10.91h0a7.8,7.8,0,0,1-10.92,1.49l-24-18.31a7.79,7.79,0,0,1-1.49-10.92h0A7.8,7.8,0,0,1,1225.12,746Z" transform="translate(-72.39 -101.4)"/><rect class="cls-4" x="956.21" y="144.11" width="338.62" height="234.8" rx="14.18"/><rect class="cls-3" x="974.74" y="188" width="269.75" height="35.43" rx="15.24"/><rect class="cls-3" x="974.74" y="252.29" width="162.76" height="17.72" rx="5.92"/><rect class="cls-3" x="974.74" y="323.65" width="116.13" height="17.72" rx="5"/><rect class="cls-3" x="974.74" y="285.72" width="197.02" height="17.72" rx="6.51"/><path class="cls-17" d="M1333.37,490l8.08,28.4q-3.2.24-6.42.18c-76.55,2-103.36-104.24-66-103a14.24,14.24,0,0,1,12.7,15.62,53.46,53.46,0,0,0,47.66,58.58C1330.76,489.86,1332.07,489.93,1333.37,490Z" transform="translate(-72.39 -101.4)"/><path class="cls-5" d="M1416.32,445a73.78,73.78,0,0,1-2.7,14.56l-28.76-5.13c9.62-28.78-3.87-65.44-44.52-70.92a53.15,53.15,0,0,0-30.44,5.91c-16.79,8.4-29.72-15.93-13.35-25.14C1352,333.1,1424.55,381.68,1416.32,445Z" transform="translate(-72.39 -101.4)"/><path class="cls-16" d="M1413.62,459.59c-9.24,31.79-39,56.44-72.17,58.76l-8.08-28.4c27.26.44,44.87-15.65,51.49-35.49Z" transform="translate(-72.39 -101.4)"/><path class="cls-17" d="M1360.71,436.65a25.83,25.83,0,1,1-25.83-25.82A25.82,25.82,0,0,1,1360.71,436.65Z" transform="translate(-72.39 -101.4)"/></svg>