<svg id="Illustration" xmlns="http://www.w3.org/2000/svg" xmlns:xlink="http://www.w3.org/1999/xlink" viewBox="0 0 2207.07 1488.08"><defs><style>.cls-1{mask:url(#mask);}.cls-2{mix-blend-mode:multiply;fill:url(#_5);}.cls-3,.cls-4{opacity:0.3;}.cls-3{fill:url(#linear-gradient);}.cls-4{fill:url(#linear-gradient-2);}.cls-5{opacity:0.84;}.cls-6{fill:url(#linear-gradient-3);}.cls-10,.cls-16,.cls-24,.cls-49,.cls-61,.cls-7,.cls-70{fill:#fff;}.cls-7{opacity:0.43;}.cls-8{opacity:0.59;}.cls-9{fill:url(#linear-gradient-4);}.cls-10,.cls-11{opacity:0.86;}.cls-12{fill:url(#linear-gradient-5);}.cls-13{fill:url(#linear-gradient-6);}.cls-14{fill:url(#linear-gradient-7);}.cls-15{fill:url(#linear-gradient-8);}.cls-17{mask:url(#mask-2);}.cls-18{fill:url(#_9);}.cls-19{fill:url(#linear-gradient-9);}.cls-20{fill:url(#linear-gradient-10);}.cls-21{fill:url(#_24);}.cls-22{fill:url(#linear-gradient-11);}.cls-23{opacity:0.41;}.cls-24{opacity:0.6;}.cls-25{fill:url(#linear-gradient-12);}.cls-26{fill:url(#linear-gradient-13);}.cls-27{fill:url(#linear-gradient-14);}.cls-28{fill:url(#linear-gradient-15);}.cls-29{fill:url(#linear-gradient-16);}.cls-30{fill:url(#linear-gradient-17);}.cls-31{fill:url(#linear-gradient-18);}.cls-32{fill:url(#linear-gradient-19);}.cls-33{fill:url(#linear-gradient-20);}.cls-34{fill:url(#linear-gradient-21);}.cls-35{fill:url(#linear-gradient-22);}.cls-36{fill:url(#linear-gradient-23);}.cls-37{fill:url(#linear-gradient-24);}.cls-38{fill:url(#linear-gradient-25);}.cls-39{fill:url(#linear-gradient-26);}.cls-40{fill:url(#linear-gradient-27);}.cls-41{fill:url(#linear-gradient-28);}.cls-42{fill:url(#linear-gradient-29);}.cls-43{fill:url(#linear-gradient-30);}.cls-44{fill:url(#linear-gradient-31);}.cls-45{fill:url(#linear-gradient-32);}.cls-46{fill:url(#linear-gradient-33);}.cls-47{fill:url(#linear-gradient-34);}.cls-48{fill:url(#linear-gradient-35);}.cls-49{opacity:0.7;}.cls-50{fill:url(#linear-gradient-36);}.cls-51{fill:url(#linear-gradient-37);}.cls-52{fill:url(#linear-gradient-38);}.cls-53{fill:url(#linear-gradient-39);}.cls-54{fill:url(#linear-gradient-40);}.cls-55{fill:url(#linear-gradient-41);}.cls-56{fill:url(#linear-gradient-42);}.cls-57{fill:url(#linear-gradient-43);}.cls-58{fill:url(#linear-gradient-44);}.cls-59{fill:url(#linear-gradient-45);}.cls-60{fill:url(#linear-gradient-46);}.cls-61{opacity:0.69;}.cls-62{fill:url(#linear-gradient-47);}.cls-63{fill:url(#linear-gradient-48);}.cls-64{fill:url(#linear-gradient-49);}.cls-65{fill:url(#linear-gradient-50);}.cls-66{fill:url(#linear-gradient-51);}.cls-67{fill:url(#linear-gradient-52);}.cls-68{opacity:0.64;}.cls-69{fill:url(#linear-gradient-53);}.cls-70{opacity:0.56;}.cls-71{fill:url(#linear-gradient-54);}.cls-72{fill:url(#linear-gradient-55);}.cls-73{fill:url(#linear-gradient-56);}.cls-74{fill:url(#linear-gradient-57);}.cls-75{fill:url(#linear-gradient-58);}.cls-76{fill:url(#linear-gradient-59);}.cls-77{fill:url(#linear-gradient-60);}.cls-78{fill:url(#linear-gradient-61);}.cls-79{fill:url(#linear-gradient-62);}.cls-80{fill:url(#linear-gradient-63);}.cls-81{fill:url(#linear-gradient-64);}.cls-82{fill:url(#linear-gradient-65);}.cls-83{fill:url(#linear-gradient-66);}.cls-84{fill:url(#linear-gradient-67);}.cls-85{fill:url(#linear-gradient-68);}.cls-86{fill:url(#linear-gradient-69);}.cls-87{fill:url(#linear-gradient-70);}.cls-88{fill:url(#linear-gradient-71);}.cls-89{fill:url(#linear-gradient-72);}.cls-90{fill:url(#linear-gradient-73);}.cls-91{fill:url(#linear-gradient-74);}.cls-92{fill:url(#linear-gradient-75);}.cls-93{fill:url(#linear-gradient-76);}.cls-94{fill:url(#linear-gradient-77);}.cls-95{fill:url(#linear-gradient-78);}.cls-96{fill:url(#linear-gradient-79);}.cls-97{fill:url(#linear-gradient-80);}.cls-98{fill:url(#linear-gradient-81);}.cls-99{fill:url(#linear-gradient-82);}.cls-100{fill:url(#linear-gradient-83);}.cls-101{fill:url(#linear-gradient-84);}.cls-102{fill:url(#linear-gradient-85);}.cls-103{fill:url(#linear-gradient-86);}.cls-104{fill:url(#linear-gradient-87);}.cls-105{fill:url(#linear-gradient-88);}.cls-106{fill:url(#linear-gradient-89);}.cls-107{fill:url(#linear-gradient-90);}.cls-108{fill:url(#linear-gradient-91);}.cls-109{fill:url(#linear-gradient-92);}.cls-110{fill:url(#linear-gradient-93);}.cls-111{fill:url(#linear-gradient-94);}.cls-112{fill:url(#linear-gradient-95);}.cls-113{fill:url(#linear-gradient-96);}.cls-114{fill:url(#linear-gradient-97);}.cls-115{fill:url(#linear-gradient-98);}.cls-116{fill:url(#linear-gradient-99);}.cls-117{fill:url(#linear-gradient-100);}.cls-118{fill:url(#linear-gradient-101);}.cls-119{fill:url(#linear-gradient-102);}.cls-120{fill:url(#linear-gradient-103);}.cls-121{fill:url(#linear-gradient-104);}.cls-122{fill:url(#linear-gradient-105);}.cls-123{fill:url(#linear-gradient-106);}.cls-124{fill:url(#linear-gradient-107);}.cls-125{fill:url(#linear-gradient-108);}.cls-126{fill:url(#_24-2);}.cls-127{fill:url(#_24-3);}.cls-128{fill:url(#linear-gradient-109);}.cls-129{fill:url(#linear-gradient-110);}.cls-130{fill:url(#linear-gradient-111);}.cls-131{fill:url(#linear-gradient-112);}.cls-132{filter:url(#luminosity-noclip-2);}.cls-133{filter:url(#luminosity-noclip);}</style><filter id="luminosity-noclip" x="615.27" y="-9017" width="1097.79" height="32766" filterUnits="userSpaceOnUse" color-interpolation-filters="sRGB"><feFlood flood-color="#fff" result="bg"/><feBlend in="SourceGraphic" in2="bg"/></filter><mask id="mask" x="615.27" y="-9017" width="1097.79" height="32766" maskUnits="userSpaceOnUse"><g class="cls-133"/></mask><linearGradient id="_5" x1="615.27" y1="855.39" x2="1713.06" y2="855.39" gradientUnits="userSpaceOnUse"><stop offset="0" stop-color="#333"/><stop offset="1" stop-color="#999"/></linearGradient><linearGradient id="linear-gradient" x1="984.81" y1="-32.86" x2="1587.26" y2="1674.72" gradientUnits="userSpaceOnUse"><stop offset="0" stop-color="#b37cff"/><stop offset="1" stop-color="#f895e7"/></linearGradient><linearGradient id="linear-gradient-2" x1="843.91" y1="-50.43" x2="1480.89" y2="1755.01" xlink:href="#linear-gradient"/><linearGradient id="linear-gradient-3" x1="3512.7" y1="1709.26" x2="3949.51" y2="1709.26" gradientTransform="translate(-2440.61 4101.85) rotate(-71.7)" gradientUnits="userSpaceOnUse"><stop offset="0" stop-color="#cb236d"/><stop offset="1" stop-color="#4c246d"/></linearGradient><linearGradient id="linear-gradient-4" x1="1836.31" y1="-6615.33" x2="2255.14" y2="-6615.33" gradientTransform="matrix(-0.15, -0.96, -0.88, 0.14, -3427.65, 4073.88)" xlink:href="#linear-gradient"/><linearGradient id="linear-gradient-5" x1="1313.51" y1="-4496.62" x2="1854.52" y2="-4496.62" gradientTransform="matrix(-0.45, -0.89, -0.89, 0.45, -1295.1, 4435.29)" xlink:href="#linear-gradient-3"/><linearGradient id="linear-gradient-6" x1="931.95" y1="1692.04" x2="151.87" y2="170.89" gradientUnits="userSpaceOnUse"><stop offset="0" stop-color="#a737d5"/><stop offset="1" stop-color="#ef497a"/></linearGradient><linearGradient id="linear-gradient-7" x1="1081.44" y1="1280.14" x2="1409.36" y2="296.36" gradientUnits="userSpaceOnUse"><stop offset="0" stop-color="#2b3582"/><stop offset="1" stop-color="#150e42"/></linearGradient><linearGradient id="linear-gradient-8" x1="1948.64" y1="524.72" x2="-1139.19" y2="2168.36" gradientUnits="userSpaceOnUse"><stop offset="0" stop-color="#fdf53f"/><stop offset="1" stop-color="#d93c65"/></linearGradient><filter id="luminosity-noclip-2" x="615.27" y="537.09" width="1097.79" height="636.59" filterUnits="userSpaceOnUse" color-interpolation-filters="sRGB"><feFlood flood-color="#fff" result="bg"/><feBlend in="SourceGraphic" in2="bg"/></filter><mask id="mask-2" x="481.3" y="456.13" width="1097.79" height="636.59" maskUnits="userSpaceOnUse"><g class="cls-132"><g transform="translate(-133.97 -80.96)"><g class="cls-1"><path class="cls-2" d="M617.54,1150c1.18-50.75.74-500.22-2.17-539s57.55-46.1,150.36-50.47,876-21.67,896.13-23.3c45.33-3.68,54.71,64.07,50.17,211.14-3.4,110.5-9,292.52-11.65,376.23a46.19,46.19,0,0,1-46.08,44.77c-188.46.51-910.76,2.58-958.84,4C640.13,1175,617.07,1170.16,617.54,1150Z"/></g></g></g></mask><linearGradient id="_9" x1="615.27" y1="855.39" x2="1713.06" y2="855.39" gradientUnits="userSpaceOnUse"><stop offset="0" stop-color="#fff"/><stop offset="1" stop-color="#fff"/></linearGradient><linearGradient id="linear-gradient-9" x1="1161.13" y1="1707.33" x2="1284.7" y2="1031.66" xlink:href="#linear-gradient-7"/><linearGradient id="linear-gradient-10" x1="-369.81" y1="416.72" x2="667.15" y2="538.18" gradientUnits="userSpaceOnUse"><stop offset="0" stop-color="#53d8ff"/><stop offset="1" stop-color="#3840f7"/></linearGradient><linearGradient id="_24" x1="533.78" y1="573.26" x2="478.65" y2="298.8" gradientUnits="userSpaceOnUse"><stop offset="0" stop-color="#53d8ff"/><stop offset="0.75" stop-color="#3840f7"/></linearGradient><linearGradient id="linear-gradient-11" x1="386.07" y1="676.07" x2="197.11" y2="1215.97" xlink:href="#linear-gradient-7"/><linearGradient id="linear-gradient-12" x1="1256.38" y1="1261.65" x2="1069.28" y2="1982.33" gradientTransform="translate(721.53 -80.96)" xlink:href="#linear-gradient-7"/><linearGradient id="linear-gradient-13" x1="1275.27" y1="1256.41" x2="1082.06" y2="2000.66" gradientTransform="translate(721.53 -80.96)" xlink:href="#linear-gradient-7"/><linearGradient id="linear-gradient-14" x1="1239.29" y1="1257.22" x2="1052.19" y2="1977.9" gradientTransform="translate(721.53 -80.96)" xlink:href="#linear-gradient-7"/><linearGradient id="linear-gradient-15" x1="1064.6" y1="1426" x2="1153.81" y2="1426" gradientTransform="translate(855.49)" gradientUnits="userSpaceOnUse"><stop offset="0" stop-color="#f9b776"/><stop offset="1" stop-color="#f47960"/></linearGradient><linearGradient id="linear-gradient-16" x1="1119.18" y1="1484.12" x2="1106.06" y2="1685.31" gradientTransform="translate(855.49)" xlink:href="#linear-gradient-3"/><linearGradient id="linear-gradient-17" x1="959.86" y1="1432.09" x2="1148.1" y2="1432.09" xlink:href="#linear-gradient-15"/><linearGradient id="linear-gradient-18" x1="1141.56" y1="1486.96" x2="1175.38" y2="1362.26" gradientTransform="translate(855.49)" xlink:href="#linear-gradient-6"/><linearGradient id="linear-gradient-19" x1="992.57" y1="1475.87" x2="979.45" y2="1677.05" gradientTransform="translate(855.49)" xlink:href="#linear-gradient-3"/><linearGradient id="linear-gradient-20" x1="-456.81" y1="1015.19" x2="-682.37" y2="1285.44" gradientTransform="matrix(-1, 0, 0, 1, 1500.61, 0)" xlink:href="#linear-gradient-7"/><linearGradient id="linear-gradient-21" x1="1168.88" y1="1159.27" x2="1268.91" y2="1376.97" gradientTransform="translate(855.49)" xlink:href="#linear-gradient-8"/><linearGradient id="linear-gradient-22" x1="1171.29" y1="1173.73" x2="1161.88" y2="1113.31" xlink:href="#linear-gradient-15"/><linearGradient id="linear-gradient-23" x1="1130.6" y1="1059.87" x2="1213.77" y2="1116.36" xlink:href="#linear-gradient-15"/><linearGradient id="linear-gradient-24" x1="-483.24" y1="993.14" x2="-708.8" y2="1263.39" gradientTransform="matrix(-1, 0, 0, 1, 1500.61, 0)" xlink:href="#linear-gradient-7"/><linearGradient id="linear-gradient-25" x1="1135.58" y1="1052.53" x2="1218.75" y2="1109.02" xlink:href="#linear-gradient-15"/><linearGradient id="linear-gradient-26" x1="1225.35" y1="1278.34" x2="1402.18" y2="1278.34" xlink:href="#linear-gradient-15"/><linearGradient id="linear-gradient-27" x1="1151.99" y1="1405.52" x2="1040.67" y2="1436.03" gradientTransform="translate(864.16 -86.8) rotate(-2.83)" xlink:href="#linear-gradient-7"/><linearGradient id="linear-gradient-28" x1="1078.04" y1="1188.22" x2="999.06" y2="1271.7" gradientTransform="translate(855.49)" xlink:href="#linear-gradient-7"/><linearGradient id="linear-gradient-29" x1="1030.3" y1="1209.01" x2="994.46" y2="1262.97" gradientTransform="translate(855.49)" xlink:href="#linear-gradient-10"/><linearGradient id="linear-gradient-30" x1="809.67" y1="1308.61" x2="1398.48" y2="1308.61" gradientTransform="translate(855.49)" gradientUnits="userSpaceOnUse"><stop offset="0" stop-color="#18459f"/><stop offset="1" stop-color="#2874b5"/></linearGradient><linearGradient id="linear-gradient-31" x1="843.49" y1="1437.67" x2="959.72" y2="1437.67" xlink:href="#linear-gradient-30"/><linearGradient id="linear-gradient-32" x1="856.91" y1="1437.67" x2="973.14" y2="1437.67" xlink:href="#linear-gradient-30"/><linearGradient id="linear-gradient-33" x1="1261.35" y1="1437.67" x2="1377.58" y2="1437.67" xlink:href="#linear-gradient-30"/><linearGradient id="linear-gradient-34" x1="1274.77" y1="1437.67" x2="1391" y2="1437.67" xlink:href="#linear-gradient-30"/><linearGradient id="linear-gradient-35" x1="1396.86" y1="172.63" x2="1159.35" y2="537.44" xlink:href="#linear-gradient-10"/><linearGradient id="linear-gradient-36" x1="1404.89" y1="336.79" x2="1420.21" y2="336.79" xlink:href="#linear-gradient-7"/><linearGradient id="linear-gradient-37" x1="1422.43" y1="336.61" x2="1453.76" y2="336.61" xlink:href="#linear-gradient-7"/><linearGradient id="linear-gradient-38" x1="1450.16" y1="336.61" x2="1481.49" y2="336.61" xlink:href="#linear-gradient-7"/><linearGradient id="linear-gradient-39" x1="1477.98" y1="336.61" x2="1509.31" y2="336.61" xlink:href="#linear-gradient-7"/><linearGradient id="linear-gradient-40" x1="1404.85" y1="389.9" x2="1426.54" y2="389.9" xlink:href="#linear-gradient-7"/><linearGradient id="linear-gradient-41" x1="1429.27" y1="394.55" x2="1448.47" y2="394.55" xlink:href="#linear-gradient-7"/><linearGradient id="linear-gradient-42" x1="1451.98" y1="394.35" x2="1466.5" y2="394.35" xlink:href="#linear-gradient-7"/><linearGradient id="linear-gradient-43" x1="1469.77" y1="389.49" x2="1476.78" y2="389.49" xlink:href="#linear-gradient-7"/><linearGradient id="linear-gradient-44" x1="1482.16" y1="398.07" x2="1503.12" y2="398.07" xlink:href="#linear-gradient-7"/><linearGradient id="linear-gradient-45" x1="1505.2" y1="391.25" x2="1520.72" y2="391.25" xlink:href="#linear-gradient-7"/><linearGradient id="linear-gradient-46" x1="1119.18" y1="1265.95" x2="1184.68" y2="1265.95" xlink:href="#linear-gradient-6"/><linearGradient id="linear-gradient-47" x1="1267.79" y1="1225.11" x2="1229.6" y2="1262.66" xlink:href="#linear-gradient-6"/><linearGradient id="linear-gradient-48" x1="-6281.04" y1="1225.11" x2="-6319.23" y2="1262.66" gradientTransform="matrix(-1, 0, 0, 1, -5240.95, 0)" xlink:href="#linear-gradient-6"/><linearGradient id="linear-gradient-49" x1="615.47" y1="1203.66" x2="1138.78" y2="1203.66" xlink:href="#linear-gradient-6"/><linearGradient id="linear-gradient-50" x1="1953.88" y1="107.99" x2="1697.88" y2="823.99" gradientTransform="translate(796.23 -1216.26) rotate(45)" xlink:href="#linear-gradient-10"/><linearGradient id="linear-gradient-51" x1="1879.02" y1="200.34" x2="1769.99" y2="448.59" gradientTransform="matrix(1, 0, 0, 1, 0, 0)" xlink:href="#linear-gradient-3"/><linearGradient id="linear-gradient-52" x1="1935.69" y1="225.23" x2="1826.66" y2="473.48" gradientTransform="matrix(1, 0, 0, 1, 0, 0)" xlink:href="#linear-gradient-3"/><linearGradient id="linear-gradient-53" x1="1714.21" y1="178.36" x2="1820.76" y2="78.2" gradientTransform="matrix(1, 0, 0, 1, 0, 0)" xlink:href="#linear-gradient-3"/><linearGradient id="linear-gradient-54" x1="1343.65" y1="565.31" x2="530.87" y2="1582.43" gradientTransform="matrix(1, 0, 0, 1, 0, 0)" xlink:href="#linear-gradient-3"/><linearGradient id="linear-gradient-55" x1="1900.08" y1="210.6" x2="1028.68" y2="1440.06" gradientTransform="translate(-223.25 546.62) rotate(-9.97)" xlink:href="#linear-gradient-7"/><linearGradient id="linear-gradient-56" x1="1027.79" y1="677.16" x2="880.61" y2="947.57" gradientTransform="matrix(1, 0, 0, 1, 0, 0)" xlink:href="#linear-gradient-3"/><linearGradient id="linear-gradient-57" x1="1454.83" y1="641.1" x2="623.15" y2="1681.87" gradientTransform="matrix(1, 0, 0, 1, 0, 0)" xlink:href="#linear-gradient-3"/><linearGradient id="linear-gradient-58" x1="1492.36" y1="604.25" x2="1413.92" y2="860.58" gradientTransform="matrix(1, 0, 0, 1, 0, 0)" xlink:href="#linear-gradient-15"/><linearGradient id="linear-gradient-59" x1="1523.38" y1="611.41" x2="1443.53" y2="872.37" gradientTransform="matrix(1, 0, 0, 1, 0, 0)" xlink:href="#linear-gradient-15"/><linearGradient id="linear-gradient-60" x1="1023.62" y1="724.42" x2="945.74" y2="1061" gradientTransform="matrix(1, 0, 0, 1, 0, 0)" xlink:href="#linear-gradient-15"/><linearGradient id="linear-gradient-61" x1="1049.73" y1="707.3" x2="897.65" y2="823.65" gradientTransform="matrix(1, 0, 0, 1, 0, 0)" xlink:href="#linear-gradient-15"/><linearGradient id="linear-gradient-62" x1="971.91" y1="652.8" x2="1113.54" y2="835.16" xlink:href="#linear-gradient-7"/><linearGradient id="linear-gradient-63" x1="1030.86" y1="682.64" x2="878.79" y2="799" gradientTransform="matrix(1, 0, 0, 1, 0, 0)" xlink:href="#linear-gradient-15"/><linearGradient id="linear-gradient-64" x1="2242.96" y1="616.67" x2="1949.04" y2="1068.12" gradientTransform="translate(1166.09 -1298.79) rotate(45)" xlink:href="#linear-gradient-10"/><linearGradient id="linear-gradient-65" x1="2059.42" y1="750.55" x2="2082.85" y2="750.55" xlink:href="#linear-gradient-7"/><linearGradient id="linear-gradient-66" x1="2093.53" y1="748.49" x2="2119.98" y2="748.49" xlink:href="#linear-gradient-7"/><linearGradient id="linear-gradient-67" x1="2124.42" y1="750.89" x2="2145.09" y2="750.89" xlink:href="#linear-gradient-7"/><linearGradient id="linear-gradient-68" x1="2150.06" y1="755.06" x2="2192.69" y2="755.06" xlink:href="#linear-gradient-7"/><linearGradient id="linear-gradient-69" x1="2200.35" y1="748.49" x2="2207.66" y2="748.49" xlink:href="#linear-gradient-7"/><linearGradient id="linear-gradient-70" x1="2218.78" y1="750.55" x2="2242.21" y2="750.55" xlink:href="#linear-gradient-7"/><linearGradient id="linear-gradient-71" x1="1826.67" y1="637.51" x2="1583.89" y2="1010.4" xlink:href="#linear-gradient-10"/><linearGradient id="linear-gradient-72" x1="1823.82" y1="834.74" x2="1857.44" y2="834.74" xlink:href="#linear-gradient-7"/><linearGradient id="linear-gradient-73" x1="1864.25" y1="834.74" x2="1903.98" y2="834.74" xlink:href="#linear-gradient-7"/><linearGradient id="linear-gradient-74" x1="1913.78" y1="834.74" x2="1947.4" y2="834.74" xlink:href="#linear-gradient-7"/><linearGradient id="linear-gradient-75" x1="1684.51" y1="605.14" x2="1460.89" y2="948.6" gradientTransform="translate(976.88 -932.78) rotate(45)" xlink:href="#linear-gradient-10"/><linearGradient id="linear-gradient-76" x1="1559.69" y1="709.92" x2="1600.58" y2="709.92" xlink:href="#linear-gradient-7"/><linearGradient id="linear-gradient-77" x1="1605.23" y1="711.66" x2="1637.68" y2="711.66" xlink:href="#linear-gradient-7"/><linearGradient id="linear-gradient-78" x1="1643.79" y1="711.66" x2="1676.24" y2="711.66" xlink:href="#linear-gradient-7"/><linearGradient id="linear-gradient-79" x1="2155.88" y1="95.78" x2="1988.82" y2="352.36" gradientTransform="translate(740.71 -1435.79) rotate(45)" xlink:href="#linear-gradient-10"/><linearGradient id="linear-gradient-80" x1="2049.26" y1="175.25" x2="2064.76" y2="175.25" xlink:href="#linear-gradient-7"/><linearGradient id="linear-gradient-81" x1="2072.1" y1="174.28" x2="2097.23" y2="174.28" xlink:href="#linear-gradient-7"/><linearGradient id="linear-gradient-82" x1="2102" y1="174.28" x2="2107.29" y2="174.28" xlink:href="#linear-gradient-7"/><linearGradient id="linear-gradient-83" x1="2110.87" y1="174.28" x2="2138.49" y2="174.28" xlink:href="#linear-gradient-7"/><linearGradient id="linear-gradient-84" x1="2143.07" y1="175.25" x2="2158.57" y2="175.25" xlink:href="#linear-gradient-7"/><linearGradient id="linear-gradient-85" x1="2183.94" y1="262.58" x2="1979.54" y2="576.52" xlink:href="#linear-gradient-10"/><linearGradient id="linear-gradient-86" x1="2216.3" y1="440.09" x2="2239.86" y2="440.09" xlink:href="#linear-gradient-7"/><linearGradient id="linear-gradient-87" x1="2246.14" y1="439.44" x2="2270.38" y2="439.44" xlink:href="#linear-gradient-7"/><linearGradient id="linear-gradient-88" x1="2276.51" y1="440.09" x2="2300.07" y2="440.09" xlink:href="#linear-gradient-7"/><linearGradient id="linear-gradient-89" x1="10213.36" y1="1324.56" x2="9846.57" y2="1562.32" gradientTransform="matrix(-1, 0, 0, 1, 10626.31, 0)" xlink:href="#linear-gradient-10"/><linearGradient id="linear-gradient-90" x1="530.17" y1="1119.99" x2="481.49" y2="1337.8" xlink:href="#linear-gradient-6"/><linearGradient id="linear-gradient-91" x1="286.84" y1="1273.6" x2="274.53" y2="1477.93" xlink:href="#linear-gradient-10"/><linearGradient id="linear-gradient-92" x1="35.95" y1="1305.39" x2="249.55" y2="1567.03" xlink:href="#linear-gradient-10"/><linearGradient id="linear-gradient-93" x1="70.82" y1="1283.55" x2="280.13" y2="1539.93" xlink:href="#linear-gradient-10"/><linearGradient id="linear-gradient-94" x1="1405.47" y1="-9435.81" x2="1234.57" y2="-9270.58" gradientTransform="matrix(-1.39, -0.07, -0.07, 1.39, -11644.68, -215.95)" xlink:href="#linear-gradient-7"/><linearGradient id="linear-gradient-95" x1="4246.65" y1="-12462.22" x2="4075.76" y2="-12296.99" gradientTransform="matrix(0.65, -1.23, -1.23, -0.65, 1885.74, -7927.84)" xlink:href="#linear-gradient-7"/><linearGradient id="linear-gradient-96" x1="6163.84" y1="1539.16" x2="6176.6" y2="1840.17" gradientTransform="translate(-5408.16)" xlink:href="#linear-gradient-10"/><linearGradient id="linear-gradient-97" x1="6251.09" y1="1535.46" x2="6263.85" y2="1836.47" gradientTransform="translate(-5408.16)" xlink:href="#linear-gradient-10"/><linearGradient id="linear-gradient-98" x1="6213.16" y1="1537.07" x2="6225.92" y2="1838.08" gradientTransform="translate(-5408.16)" xlink:href="#linear-gradient-10"/><linearGradient id="linear-gradient-99" x1="6198.51" y1="1244.62" x2="6174.99" y2="1418.56" gradientTransform="translate(-5408.16)" xlink:href="#linear-gradient-10"/><linearGradient id="linear-gradient-100" x1="6076.23" y1="1512.85" x2="6161.87" y2="1512.85" gradientTransform="translate(-5408.16)" xlink:href="#linear-gradient-3"/><linearGradient id="linear-gradient-101" x1="6142.21" y1="1348.16" x2="6118.81" y2="1509.84" gradientTransform="translate(-5408.16)" xlink:href="#linear-gradient-3"/><linearGradient id="linear-gradient-102" x1="6080.5" y1="1487.04" x2="6103.68" y2="1487.04" gradientTransform="translate(-5408.16)" gradientUnits="userSpaceOnUse"><stop offset="0" stop-color="#c4421b"/><stop offset="1" stop-color="#5c0e16"/></linearGradient><linearGradient id="linear-gradient-103" x1="6210.55" y1="1495.88" x2="6279.7" y2="1495.88" gradientTransform="translate(-5408.16)" xlink:href="#linear-gradient-3"/><linearGradient id="linear-gradient-104" x1="6258.12" y1="1364.94" x2="6234.72" y2="1526.61" gradientTransform="translate(-5408.16)" xlink:href="#linear-gradient-3"/><linearGradient id="linear-gradient-105" x1="5952.37" y1="1382.48" x2="6135.81" y2="1382.48" gradientTransform="translate(-5408.16)" xlink:href="#linear-gradient-7"/><linearGradient id="linear-gradient-106" x1="6190.26" y1="1488.99" x2="6217.93" y2="1488.99" xlink:href="#linear-gradient-102"/><linearGradient id="linear-gradient-107" x1="6119" y1="1306.05" x2="5917.61" y2="1534.38" gradientTransform="translate(-5408.16)" xlink:href="#linear-gradient-7"/><linearGradient id="linear-gradient-108" x1="6015.16" y1="1079.62" x2="6084.1" y2="1079.62" xlink:href="#linear-gradient-102"/><linearGradient id="_24-2" x1="5898.16" y1="1184.35" x2="6166.06" y2="1184.35" gradientTransform="translate(-5408.16)" xlink:href="#_24"/><linearGradient id="_24-3" x1="645.81" y1="1111.65" x2="627.47" y2="1177.99" xlink:href="#_24"/><linearGradient id="linear-gradient-109" x1="6157.73" y1="1235.57" x2="6221.63" y2="1235.57" xlink:href="#linear-gradient-102"/><linearGradient id="linear-gradient-110" x1="5664.01" y1="3457.97" x2="5597.45" y2="3546.01" gradientTransform="translate(-5406.5 -1579.8) rotate(-8.21)" xlink:href="#linear-gradient-102"/><linearGradient id="linear-gradient-111" x1="5613.18" y1="3479.21" x2="5692.68" y2="3479.21" gradientTransform="translate(-5406.5 -1579.8) rotate(-8.21)" xlink:href="#linear-gradient-7"/><linearGradient id="linear-gradient-112" x1="701.88" y1="977.58" x2="587.88" y2="1151.57" gradientTransform="matrix(1, 0, 0, 1, 0, 0)" xlink:href="#linear-gradient-102"/></defs><path class="cls-3" d="M2236.2,361.79c-26.1-19.65-54.4-37.59-65.36-67.44-9.33-25.4-3.62-54-9.83-80.3-8.34-35.36-37.15-62.46-68.27-81.23C2027.36,93.37,1948.11,82,1871.92,86.93s-150.46,25.29-224.1,45.5C1534.16,163.63,1420.3,190.91,1311.7,236s-199.32,61.83-315,31.52c-133.64-35-267.6-132.38-409.22-111.12-73,11-141.64,57.76-171.21,125.43-12.54,28.71-18.43,60.91-37.42,85.82C345.23,411.76,280.45,420.8,243.3,462c-31.63,35.07-37,87.83-25.4,133.6,10.84,42.92,36.54,76.51,54.94,115.78,14.62,31.21,40,60,50.83,92.65,11.79,35.55.91,74.2-10,110.05-18.3,60.31-52.88,115.91-54.41,179.52-1.6,66.75,22.52,129.65,69.2,177.58,19.77,20.3,74.94,20.47,100.42,24.17,74.09,10.76,148.8,17.51,223.36,23.91,181.81,15.6,370.05,38,551.87,29.41,67.89-3.19,135.35,6,203.16,5.38,64.62-.57,129.59-8.07,194.33-10.19,138.16-4.53,277.68-5.31,413.28-35.4,38.23-8.48,75.91-19.24,113.43-30.47,65.75-19.68,136.74-45.11,171.92-104,34.94-58.54,24-132.44,12-199.55-12.36-69-33.3-141.69-37.58-211.66-3.57-58.53-26.27-120.24-19.31-179.43,7.67-55.21,51.47-116.35,26-172.27C2272.1,390.51,2254.7,375.72,2236.2,361.79Z" transform="translate(-133.97 -80.96)"/><path class="cls-4" d="M2247.07,747.07c-67.64-64.6-181.44-73.07-166.74-187.79,4.34-33.93,18.22-66.06,28.88-98.77,11.13-34.13,13.86-64.78,9.81-92.15-14.82-100-120.23-156.43-237.39-180.13-93.8-19-190.26-24.87-286.08-22.93-67.22,1.37-134.26,6.57-201,13.64-87.73,9.28-166.59,22.68-255.67,18.74A1692.93,1692.93,0,0,1,867.11,163.5c-79-16.53-156.9-38.77-237.42-46.33-95.15-8.94-330,19.22-281.41,160.2,8.78,25.47,14.25,54.1-17,69.33C308,358,277.83,353.88,252.86,362.19c-47.89,15.94-88.34,51.87-105.53,96.68-19.85,51.75-10.22,108.72.33,162.75,14.41,73.71,71.25,129.79,84.81,202.92,13.9,75-36.24,121.21-70.94,182.16-53.53,94-24.92,218.55,49.84,297.88,46.75,49.61,110.29,84.35,178.25,106H1641.39c90.72,0,186.4.51,274.59-25.78s182.08-89.38,206.75-177.19c10.55-37.54,7.33-77.29,15.43-115.34,10.14-47.6,38-91.5,69.51-129.72,29.35-35.57,67.65-52.69,77-101.84C2292.45,820.19,2278,776.63,2247.07,747.07Z" transform="translate(-133.97 -80.96)"/><g class="cls-5"><path class="cls-6" d="M156.46,809.26c-3.66,73.32-7.49,500.87,393.07,576.54,0,0,75-280.82-383.47-581.44A6.21,6.21,0,0,0,156.46,809.26Z" transform="translate(-133.97 -80.96)"/><path class="cls-7" d="M200,869.72c7.51,22.89,16,45.54,24.73,68s18.15,44.74,27.93,66.81,20.07,43.9,30.86,65.49,22,42.94,34,63.88c23.8,41.94,49.94,82.59,79.36,120.7,3.57,4.84,7.5,9.41,11.24,14.12l5.67,7c1.89,2.34,3.91,4.56,5.86,6.85,4,4.53,7.82,9.14,11.85,13.59l12.29,13.19a542.13,542.13,0,0,0,53.07,48.49l.05,0a4,4,0,0,1-5,6.24h0a550.41,550.41,0,0,1-53.5-49.67L426.1,1301c-4-4.53-7.9-9.22-11.86-13.82-2-2.33-4-4.6-5.87-7l-5.67-7.13c-3.74-4.78-7.66-9.42-11.22-14.33-29.38-38.67-55.33-79.76-78.9-122.07-11.85-21.13-22.91-42.68-33.6-64.4s-20.82-43.72-30.43-65.93-18.8-44.61-27.47-67.2-16.89-45.34-24.27-68.44a1.69,1.69,0,0,1,3.21-1Z" transform="translate(-133.97 -80.96)"/></g><g class="cls-8"><path class="cls-9" d="M2291.9,956.66c-6.23,67.92-57.39,461.1-406.47,465,0,0-27.81-270.11,399-471.09C2288.13,948.83,2292.31,952.22,2291.9,956.66Z" transform="translate(-133.97 -80.96)"/><path class="cls-10" d="M2250.49,1006.63c-9,19.64-18.68,38.85-28.68,57.94s-20.45,37.92-31.26,56.56-22.07,37-33.72,55.16-23.69,36-36.31,53.53-25.6,34.75-39.35,51.41-27.86,33-43,48.54c-30,31.16-63.09,59.71-100.39,82.4a4.92,4.92,0,1,1-5.12-8.41l0,0,.09,0c36.51-21.66,69.43-49.34,99.37-79.81,15.09-15.14,29.27-31.2,43.06-47.57s26.89-33.36,39.62-50.61,24.92-34.91,36.7-52.84,23.19-36.12,34.18-54.56,21.59-37.12,31.77-56,20.07-38,29.19-57.37v0a2.09,2.09,0,0,1,3.79,1.76Z" transform="translate(-133.97 -80.96)"/></g><g class="cls-11"><path class="cls-12" d="M2189.34,604c18,89.13,101.41,612.1-375.28,778.54,0,0-143.55-330.15,362.63-782.77A7.69,7.69,0,0,1,2189.34,604Z" transform="translate(-133.97 -80.96)"/><path class="cls-7" d="M2151.15,686.64C2146.6,717,2140.75,747,2134.36,777s-13.58,59.72-21.49,89.3-16.55,59-26,88.13c-2.41,7.27-4.67,14.59-7.21,21.82l-7.53,21.72c-5.28,14.38-10.45,28.81-16.18,43-5.47,14.32-11.56,28.39-17.52,42.52l-9.4,21c-3.07,7-6.58,13.86-9.85,20.8-13.39,27.6-27.76,54.79-44,80.91l-6,9.84-6.34,9.63-6.35,9.64-3.17,4.81-3.36,4.69-13.5,18.72-14.32,18.13a525.5,525.5,0,0,1-64.39,66.35,4.72,4.72,0,0,1-6.13-7.17l0,0,.06,0a516,516,0,0,0,63.67-64.67l14.25-17.76,13.46-18.39,3.36-4.6,3.17-4.74,6.34-9.47,6.35-9.48,6-9.7c16.23-25.74,30.68-52.61,44.19-79.91,3.3-6.87,6.83-13.63,9.93-20.59l9.51-20.8c6-14,12.18-28,17.73-42.16,5.8-14.11,11.06-28.44,16.43-42.72l7.65-21.57c2.58-7.18,4.89-14.45,7.35-21.68q14.4-43.46,26.55-87.64T2129.79,776c6.59-29.81,12.66-59.8,17.41-89.9v0a2,2,0,0,1,3.94.61Z" transform="translate(-133.97 -80.96)"/></g><path class="cls-13" d="M316.88,243.69c-37.64,123.4-227.32,850.49,423,1151,0,0,248.09-446.53-404.54-1155.28A10.91,10.91,0,0,0,316.88,243.69Z" transform="translate(-133.97 -80.96)"/><path class="cls-7" d="M364,365.49c2.52,43.23,6.86,86.43,12,129.46s11.47,86,18.79,128.7c14.67,85.44,33.39,170.23,57.6,253.45s54,164.87,92.2,242.52c9.49,19.44,19.72,38.5,30.43,57.28s22.07,37.17,34.15,55.07a697.4,697.4,0,0,0,81.28,100.49l0,0a4.07,4.07,0,0,1-5.81,5.69v0a705.43,705.43,0,0,1-81.76-102q-18.15-27.18-34.18-55.68c-10.7-19-20.91-38.21-30.37-57.81-38.12-78.29-67.53-160.48-91.52-244S404.6,710.08,390.28,624.41q-10.71-64.26-18.24-129c-5-43.14-9.14-86.36-11.48-129.78a1.72,1.72,0,1,1,3.44-.18Z" transform="translate(-133.97 -80.96)"/><path class="cls-14" d="M1928.17,1315.83a25.75,25.75,0,0,1-25.68,25.65H514a25.75,25.75,0,0,1-25.68-25.65L476.8,517.92c0-14.11,16.62-41.66,47.09-39.59l1356.95-35.11a64.7,64.7,0,0,1,66.39,66.18Z" transform="translate(-133.97 -80.96)"/><path class="cls-15" d="M1902.82,1291.22a24.36,24.36,0,0,1-24.29,24.29h-1331a24.36,24.36,0,0,1-24.29-24.29l-10.9-724.35c1.28-43.59,39.5-59.26,62.67-58.33l1300.55-34.9a45.43,45.43,0,0,1,46.62,46.54Z" transform="translate(-133.97 -80.96)"/><path class="cls-16" d="M537.61,945.83a2.28,2.28,0,0,1-2.29-2.26l-.87-58.74a2.3,2.3,0,0,1,4.59-.07l.86,58.74a2.29,2.29,0,0,1-2.26,2.33Z" transform="translate(-133.97 -80.96)"/><path class="cls-16" d="M535.49,801.88a2.3,2.3,0,0,1-2.29-2.26l-3.3-225c.07-15.12,4.73-27.21,13.86-36,16.58-15.9,42.52-15.1,43.61-15.06l415.3-11.14a2.25,2.25,0,0,1,2.35,2.23,2.3,2.3,0,0,1-2.23,2.35L587.36,528.21c-1.18-.05-25.23-.79-40.43,13.78-8.2,7.85-12.39,18.83-12.45,32.62l3.31,224.94a2.31,2.31,0,0,1-2.26,2.33Z" transform="translate(-133.97 -80.96)"/><g class="cls-17"><path class="cls-18" d="M617.54,1150c1.18-50.75.74-500.22-2.17-539s57.55-46.1,150.36-50.47,876-21.67,896.13-23.3c45.33-3.68,54.71,64.07,50.17,211.14-3.4,110.5-9,292.52-11.65,376.23a46.19,46.19,0,0,1-46.08,44.77c-188.46.51-910.76,2.58-958.84,4C640.13,1175,617.07,1170.16,617.54,1150Z" transform="translate(-133.97 -80.96)"/></g><path class="cls-19" d="M2005.75,1407.71H438.92a35.15,35.15,0,0,1-35.05-35h0a35.15,35.15,0,0,1,35.05-35.05H2005.75a35.15,35.15,0,0,1,35,35.05h0A35.15,35.15,0,0,1,2005.75,1407.71Z" transform="translate(-133.97 -80.96)"/><path class="cls-20" d="M653.43,433.37l19.79,71.3a34.68,34.68,0,0,1-4.5,28.42c-14,21-48.07,59-120.4,78.31-73.45,19.66-115-.56-132.94-13.89A36.79,36.79,0,0,1,402,578.11L380.31,502.6Z" transform="translate(-133.97 -80.96)"/><path class="cls-21" d="M496.83,341.6l205.74,57.63a13.76,13.76,0,0,1,5.24,23.7C667,457.81,574.34,539.05,539.24,586.23A13.73,13.73,0,0,1,523,590.71L314.79,504.54A13.76,13.76,0,0,1,311,481.49C351.35,446,454.13,357.26,487.54,342.27A13.64,13.64,0,0,1,496.83,341.6Z" transform="translate(-133.97 -80.96)"/><path class="cls-22" d="M501.28,447.88s-109.68,69.19-118,85,8.47,87.67,8.47,87.67c-17.27,60.81-19.83,126.85,9.34,161.4,0,0,36-80,19.9-113.68s-22.26-47.53-22.26-47.53-14.05-76.59-9.61-87.55C389.08,533.18,510.59,452.26,501.28,447.88Z" transform="translate(-133.97 -80.96)"/><path class="cls-16" d="M674.89,418.31,569.59,522.18l-26.32,26-6.58,6.5-3.29,3.22a19.3,19.3,0,0,1-3.4,2.63,19.71,19.71,0,0,1-16.64,1.81l-70.12-23.49a1.06,1.06,0,0,0-.68,2l69.94,24a22.47,22.47,0,0,0,19-1.93,22.16,22.16,0,0,0,3.92-3l3.33-3.22,6.63-6.44,26.52-25.77L677.94,421.42a2.18,2.18,0,0,0-3-3.12Z" transform="translate(-133.97 -80.96)"/><path class="cls-16" d="M399.74,657.49l.2.22.25.29.49.58.95,1.28c.62.86,1.17,1.8,1.76,2.7l1.57,2.87c.48,1,.91,2,1.37,3a31.63,31.63,0,0,1,1.22,3.07c.37,1,.78,2.07,1.11,3.12l.9,3.2a32.49,32.49,0,0,1,.82,3.23l.65,3.28a30.57,30.57,0,0,1,.57,3.29c.27,2.22.57,4.44.8,6.67l.32,6.72c0,.56.07,1.12.07,1.68l0,1.68-.07,3.38c0,4.5-.58,9-.95,13.47-.07,1.13-.25,2.24-.43,3.36l-.53,3.35c-.36,2.23-.68,4.46-1.08,6.69-1,4.41-1.9,8.85-3,13.25L403,761v0a.77.77,0,0,0,.52.94.76.76,0,0,0,.93-.51l4-13.07c1.2-4.4,2.23-8.85,3.35-13.29.46-2.23.85-4.49,1.27-6.74l.62-3.37c.21-1.13.43-2.25.53-3.4.49-4.55,1.23-9.09,1.32-13.69l.17-3.44.08-1.73c0-.57,0-1.15,0-1.72l-.16-6.91c-.18-2.3-.43-4.6-.64-6.9-.07-1.16-.32-2.3-.5-3.44l-.6-3.43c-.16-1.15-.49-2.27-.76-3.4l-.86-3.38c-.32-1.12-.73-2.22-1.09-3.33a32.59,32.59,0,0,0-1.21-3.3c-.46-1.08-.89-2.17-1.39-3.24L407,660.48c-.63-1-1.2-2.06-1.89-3.06l-1.05-1.49-.58-.73-.3-.37-.37-.41a2.18,2.18,0,1,0-3.23,2.92l0,0Z" transform="translate(-133.97 -80.96)"/><path class="cls-16" d="M396.39,685.79v4.28l0,4.83-.12,9.67-.33,19.35-.78,38.71a1.18,1.18,0,0,0,2.36.08L399.26,724l.82-19.35.38-9.69.16-4.85.06-2.44,0-1.23c0-.53,0-1.16-.1-1.72a2.12,2.12,0,0,0-4.23.19Z" transform="translate(-133.97 -80.96)"/><g class="cls-23"><path class="cls-24" d="M626.06,311.17c-7.53-37.14,30.73-93.63,111.87-53.35.64-17.93,92.9-81.29,147.51,31.17,5.31-28.83,76.82-20.58,93.46,26,25.45-14,94,39.74,10.68,57-106.36,22-352.85,38.86-402.39-21.92S626.06,311.17,626.06,311.17Z" transform="translate(-133.97 -80.96)"/><path class="cls-24" d="M1098.72,406.84c-4.16-20.53,17-51.75,61.84-29.48.35-9.92,51.34-44.94,81.53,17.23,2.93-15.94,42.46-11.38,51.65,14.37,14.07-7.73,51.94,22,5.91,31.49-58.79,12.17-195,21.48-222.41-12.11S1098.72,406.84,1098.72,406.84Z" transform="translate(-133.97 -80.96)"/></g><rect class="cls-25" x="1916.77" y="1324.2" width="12.55" height="135.68"/><path class="cls-26" d="M1870.72,1454.32h104.64a2.62,2.62,0,0,1,2.62,2.62v5.55a0,0,0,0,1,0,0H1868.1a0,0,0,0,1,0,0v-5.55A2.62,2.62,0,0,1,1870.72,1454.32Z"/><rect class="cls-27" x="1856.14" y="1293.79" width="138.16" height="39.18" rx="13.49"/><path class="cls-28" d="M1964.39,1314.69s-18.64,2.89-39.6,16.9a10.47,10.47,0,0,0-4.62,10c2.51,19.88,12.83,84.23,46.86,147.07a15.82,15.82,0,0,1,1.52,10.86l-5.91,27.51-11,10.28h28.24l18.8-50.88-8-2.54a15.22,15.22,0,0,1-10.63-14.24l-.94-54.59c.81-24.32-14.91-41.1-14.91-41.1l45.1-2.19Z" transform="translate(-133.97 -80.96)"/><path class="cls-29" d="M1940.65,1542.27c-2.57,3.36,27.68,7.81,43,.44,0,0,21.19-36.86,21.19-55.84,0,0-1.68-3.87-14.12-3,0,0-7.12,43.65-14.63,48.53s-21,.5-21,.5S1944.44,1537.3,1940.65,1542.27Z" transform="translate(-133.97 -80.96)"/><path class="cls-30" d="M2003.59,1374.75c-.24-.41-48.55-5.81-48.55-5.81s1.58,14.7-3.36,34.92-75.89,107.84-75.89,107.84l7.44,23.58c-23,8-45.62,9.29-67.88,4.08l46.1-27.66s43.14-147,69.57-173.25l48.43-16.75Z" transform="translate(-133.97 -80.96)"/><path class="cls-31" d="M2112,1289.21s27.84,41.4,30.12,60.29-7.62,26.56-36.83,27.83-107.19,1.24-107.19,1.24l-66.55-56.87s48.5-17.31,61.11-22.2S2112,1289.21,2112,1289.21Z" transform="translate(-133.97 -80.96)"/><path class="cls-32" d="M1880.42,1527.34s8,7.76,2.6,16.39c0,0-63.44,11.24-80.66,6.14,0,0,3.57-8.16,23-17.46l-1.43,1.1a2.32,2.32,0,0,0,1.53,4.16C1838.21,1536.94,1864.66,1534.6,1880.42,1527.34Z" transform="translate(-133.97 -80.96)"/><path class="cls-33" d="M1999.33,1092.59c0,3.82,34.31,144.88,34.31,144.88l97.76,28.75a43.92,43.92,0,0,0,49.57-18.73h0a88.37,88.37,0,0,0-27.75-121.89l-13.85-8.7a259.9,259.9,0,0,1-74.93-71.47l-5.21-7.48Z" transform="translate(-133.97 -80.96)"/><path class="cls-34" d="M2036.67,1283.73s-32.42-30.87-48.38-51.32a43.39,43.39,0,0,1-7.34-39c7.28-24.54,20.23-50,21.41-53.92,1.81-6.06,38.16-5.81,38.16-5.81s71.53,46.42,99.63,125l-31.56,9.83s-18.68-31.33-37.13-51.25c0,0,31.93,42.18,33.05,59.44Z" transform="translate(-133.97 -80.96)"/><path class="cls-35" d="M1998,1105.56c.37,1.26,9.86,32.71,10.6,33.36s20.81,1.73,30.25-4.72l-16-33.54Z" transform="translate(-133.97 -80.96)"/><path class="cls-36" d="M2013.55,1039.5s-17.13,7.23-28.77,32-3,36.18,8,37.74,27.26,1.33,44.54-14.65S2035.81,1030.93,2013.55,1039.5Z" transform="translate(-133.97 -80.96)"/><path class="cls-37" d="M2025.68,1081.35s12.92-36.2-19.19-36.63l-7.55,5.28s-11.78-20.08,7.55-29.66,48.18-1.05,56.41,25,3.41,42.87-10.27,55.33-19.33-1.67-19.33-1.67,7.45-11.65,4.42-17.89-10,1.29-10,1.29Z" transform="translate(-133.97 -80.96)"/><path class="cls-38" d="M2029.28,1085.39s6.53-18.66,15.24-11.23-7.08,17.23-13.26,20.41Z" transform="translate(-133.97 -80.96)"/><path class="cls-39" d="M1970.63,1286l23.81-23,33,13.92s32.8,5.08,51.57,0l18.77-5.08,42.42-13.21,6.66,18.83a11.35,11.35,0,0,1-4.14,13,75.66,75.66,0,0,1-10.71,6.67c-5.59,2.44-137.71-1.69-137.71-1.69Z" transform="translate(-133.97 -80.96)"/><path class="cls-16" d="M2165.84,1229.2a.71.71,0,0,0,.37-.1c12.05-7.25,13.21-23.5,13.15-30.15a77,77,0,0,0-10-37.17c-11.5-20.26-31.29-34-50.43-47.23l-3.94-2.73c-19.32-13.44-40.66-29.75-49.3-53.26a.71.71,0,0,0-.91-.42.72.72,0,0,0-.42.91c8.79,23.89,30.32,40.37,49.82,53.93l3.94,2.73c19,13.17,38.67,26.78,50,46.77a75.54,75.54,0,0,1,9.81,36.49c.06,6.4-1,22-12.46,28.92a.71.71,0,0,0,.36,1.31Z" transform="translate(-133.97 -80.96)"/><path class="cls-16" d="M2157.92,1208.21a.71.71,0,0,0,.69-.56c2.61-13.27,2.21-25.14-1.18-35.28-6.12-18.32-22.29-31.58-35.69-41.09-2.67-1.89-5.38-3.76-8.1-5.63-12.23-8.42-24.89-17.13-34-28.93a.71.71,0,0,0-1-.13.72.72,0,0,0-.13,1c9.27,12,22,20.74,34.34,29.22,2.71,1.87,5.42,3.73,8.09,5.62,13.22,9.39,29.17,22.46,35.16,40.39,3.31,9.9,3.69,21.53,1.13,34.55a.71.71,0,0,0,.56.83Z" transform="translate(-133.97 -80.96)"/><path class="cls-40" d="M2060.76,1296.84h-.32l-138.16-.15a6.19,6.19,0,1,1,0-12.37l138.17.15a6.18,6.18,0,0,1,.3,12.36Z" transform="translate(-133.97 -80.96)"/><path class="cls-41" d="M1798.08,1171.4h115.06A21.94,21.94,0,0,1,1933,1184l53.19,112.8h-143a13.33,13.33,0,0,1-12.4-8.43L1789.53,1184A9.19,9.19,0,0,1,1798.08,1171.4Z" transform="translate(-133.97 -80.96)"/><path class="cls-42" d="M1879.14,1229.23c2.5,7.75.65,15.27-4.11,16.81s-10.65-3.51-13.15-11.25-.65-15.27,4.12-16.81S1876.65,1221.48,1879.14,1229.23Z" transform="translate(-133.97 -80.96)"/><path class="cls-43" d="M2253.86,1301.89a5.06,5.06,0,0,0-1.2-4.42,5.84,5.84,0,0,0-4.39-1.94H1671.72a6.68,6.68,0,0,0-5.52,2.83,5.82,5.82,0,0,0-.43,5.9l6.25,12.67a8.8,8.8,0,0,0,7.94,4.77h564.35a6.53,6.53,0,0,0,6.5-5Z" transform="translate(-133.97 -80.96)"/><path class="cls-44" d="M1704,1569a5.06,5.06,0,0,1-2-.42,5.23,5.23,0,0,1-2.65-6.8l106.12-252.39a5,5,0,0,1,6.64-2.71,5.22,5.22,0,0,1,2.65,6.8l-106.11,252.39A5.05,5.05,0,0,1,1704,1569Z" transform="translate(-133.97 -80.96)"/><path class="cls-45" d="M1823.58,1569a5.05,5.05,0,0,1-4.65-3.13l-106.11-252.39a5.22,5.22,0,0,1,2.65-6.8,5,5,0,0,1,6.64,2.71l106.11,252.39a5.22,5.22,0,0,1-2.64,6.8A5.09,5.09,0,0,1,1823.58,1569Z" transform="translate(-133.97 -80.96)"/><path class="cls-46" d="M2121.9,1569a5.06,5.06,0,0,1-2-.42,5.23,5.23,0,0,1-2.65-6.8l106.11-252.39a5,5,0,0,1,6.65-2.71,5.23,5.23,0,0,1,2.65,6.8l-106.11,252.39A5.06,5.06,0,0,1,2121.9,1569Z" transform="translate(-133.97 -80.96)"/><path class="cls-47" d="M2241.44,1569a5,5,0,0,1-4.65-3.13l-106.12-252.39a5.23,5.23,0,0,1,2.65-6.8,5,5,0,0,1,6.65,2.71l106.11,252.39a5.23,5.23,0,0,1-2.65,6.8A5,5,0,0,1,2241.44,1569Z" transform="translate(-133.97 -80.96)"/><circle class="cls-48" cx="1322.4" cy="287" r="101.34"/><circle class="cls-49" cx="1323.21" cy="286.02" r="84.8"/><path class="cls-50" d="M1420.21,341.25a16.47,16.47,0,0,1-.67,4.89,10.16,10.16,0,0,1-2,3.71,8.69,8.69,0,0,1-3.3,2.35,11.88,11.88,0,0,1-4.6.82,20.18,20.18,0,0,1-2.35-.14,21.29,21.29,0,0,1-2.42-.46l.31-3.55a1.16,1.16,0,0,1,.37-.79,1.33,1.33,0,0,1,.94-.3,4,4,0,0,1,1,.16,6.62,6.62,0,0,0,1.54.15,6.42,6.42,0,0,0,2.24-.36,3.87,3.87,0,0,0,1.64-1.17,5.37,5.37,0,0,0,1-2.08,12,12,0,0,0,.34-3.09V320.56h6Z" transform="translate(-133.97 -80.96)"/><path class="cls-51" d="M1453.76,352.67h-4.62a2,2,0,0,1-1.28-.39,2.23,2.23,0,0,1-.72-1l-2.4-6.55h-13.3l-2.39,6.55a2.17,2.17,0,0,1-.7.93,1.94,1.94,0,0,1-1.28.43h-4.64L1435,320.56h6.11ZM1433,340.54h10.23l-3.9-10.68c-.18-.47-.38-1-.59-1.67s-.43-1.35-.64-2.1c-.2.75-.41,1.46-.61,2.11s-.39,1.22-.58,1.71Z" transform="translate(-133.97 -80.96)"/><path class="cls-52" d="M1450.16,320.56H1455a2,2,0,0,1,1.27.38,2.29,2.29,0,0,1,.73,1l7.55,19.59q.38.94.72,2.1c.23.76.45,1.56.65,2.4a28.76,28.76,0,0,1,1.27-4.5l7.53-19.59a2.28,2.28,0,0,1,.71-.93,1.92,1.92,0,0,1,1.26-.42h4.82l-13,32.11h-5.39Z" transform="translate(-133.97 -80.96)"/><path class="cls-53" d="M1509.31,352.67h-4.62a2,2,0,0,1-1.27-.39,2.09,2.09,0,0,1-.72-1l-2.4-6.55H1487l-2.4,6.55a2.09,2.09,0,0,1-.7.93,1.92,1.92,0,0,1-1.28.43H1478l12.61-32.11h6.11Zm-20.78-12.13h10.23l-3.9-10.68c-.18-.47-.38-1-.59-1.67s-.43-1.35-.63-2.1c-.21.75-.41,1.46-.61,2.11s-.4,1.22-.59,1.71Z" transform="translate(-133.97 -80.96)"/><path class="cls-54" d="M1424.49,379.69a1.74,1.74,0,0,1-.56.69,1.47,1.47,0,0,1-.77.19,2,2,0,0,1-1-.34c-.37-.23-.8-.48-1.31-.77a10.8,10.8,0,0,0-1.76-.76,7.43,7.43,0,0,0-2.39-.35,7.27,7.27,0,0,0-2.16.3,4.48,4.48,0,0,0-1.56.84,3.35,3.35,0,0,0-.94,1.27,4.17,4.17,0,0,0-.31,1.64,2.83,2.83,0,0,0,.63,1.88,5.07,5.07,0,0,0,1.68,1.29,15.56,15.56,0,0,0,2.37,1c.89.28,1.8.58,2.72.89a26.73,26.73,0,0,1,2.72,1.11,9.83,9.83,0,0,1,2.38,1.6,7.59,7.59,0,0,1,1.68,2.37,8.22,8.22,0,0,1,.63,3.4,11,11,0,0,1-.75,4.07,9.43,9.43,0,0,1-2.17,3.31,10.27,10.27,0,0,1-3.5,2.22,12.88,12.88,0,0,1-4.73.81,15.24,15.24,0,0,1-3-.3,15.93,15.93,0,0,1-2.85-.86,14.66,14.66,0,0,1-2.55-1.33,12.11,12.11,0,0,1-2.12-1.73l1.73-2.86a2.14,2.14,0,0,1,.59-.53,1.43,1.43,0,0,1,.76-.21,2.16,2.16,0,0,1,1.2.46c.43.3.94.64,1.52,1a11.41,11.41,0,0,0,2.07,1,8,8,0,0,0,2.85.45,5.83,5.83,0,0,0,4-1.21,4.33,4.33,0,0,0,1.4-3.47,3.27,3.27,0,0,0-.63-2.07,5.06,5.06,0,0,0-1.68-1.34,12.59,12.59,0,0,0-2.37-.92c-.89-.25-1.8-.53-2.71-.82a23.1,23.1,0,0,1-2.71-1.07,8.64,8.64,0,0,1-2.38-1.62,7.36,7.36,0,0,1-1.67-2.5,9.35,9.35,0,0,1-.64-3.69,8.84,8.84,0,0,1,2.75-6.38,10.18,10.18,0,0,1,3.29-2.06,12,12,0,0,1,4.46-.78,15,15,0,0,1,5.24.89,11.7,11.7,0,0,1,4.09,2.49Z" transform="translate(-133.97 -80.96)"/><path class="cls-55" d="M1446.81,388a2.49,2.49,0,0,1-.48.49,1.08,1.08,0,0,1-.68.18,1.52,1.52,0,0,1-.82-.26c-.26-.17-.58-.36-.95-.58a7.46,7.46,0,0,0-1.32-.57,6.09,6.09,0,0,0-1.9-.26,5.89,5.89,0,0,0-2.53.52,4.79,4.79,0,0,0-1.81,1.5,6.81,6.81,0,0,0-1.08,2.37,12.51,12.51,0,0,0-.35,3.14,12.75,12.75,0,0,0,.38,3.24,7,7,0,0,0,1.13,2.39,4.78,4.78,0,0,0,1.77,1.46,5.31,5.31,0,0,0,2.36.5,6,6,0,0,0,2.12-.32,6.38,6.38,0,0,0,1.36-.71c.37-.26.69-.5,1-.71a1.47,1.47,0,0,1,.92-.32,1.12,1.12,0,0,1,1,.51l1.57,2a9.66,9.66,0,0,1-2,1.78,10.88,10.88,0,0,1-2.21,1.16,11.15,11.15,0,0,1-2.37.61,16.53,16.53,0,0,1-2.42.18,10.19,10.19,0,0,1-4-.79,9.27,9.27,0,0,1-3.25-2.3,11,11,0,0,1-2.2-3.7,14.25,14.25,0,0,1-.81-5,14.53,14.53,0,0,1,.72-4.65,10.52,10.52,0,0,1,2.12-3.71,9.75,9.75,0,0,1,3.46-2.45,11.82,11.82,0,0,1,4.76-.89,11.25,11.25,0,0,1,4.47.82,11,11,0,0,1,3.45,2.35Z" transform="translate(-133.97 -80.96)"/><path class="cls-56" d="M1452,406V383.17h3.22a1.78,1.78,0,0,1,1.18.31,1.81,1.81,0,0,1,.44,1.07l.34,2.75A10.84,10.84,0,0,1,1460,384a6,6,0,0,1,3.69-1.22,4.74,4.74,0,0,1,2.79.78l-.71,4.11a.82.82,0,0,1-.29.56,1,1,0,0,1-.6.17,3.54,3.54,0,0,1-.91-.16,6.24,6.24,0,0,0-1.53-.15,4.63,4.63,0,0,0-2.93.94,7.26,7.26,0,0,0-2.06,2.77V406Z" transform="translate(-133.97 -80.96)"/><path class="cls-57" d="M1476.78,376.53a3,3,0,0,1-.29,1.34,3.59,3.59,0,0,1-3.26,2.11,3.46,3.46,0,0,1-2.44-1,3.73,3.73,0,0,1-.75-1.08,3.34,3.34,0,0,1-.27-1.34,3.52,3.52,0,0,1,.27-1.37,3.62,3.62,0,0,1,.75-1.11,3.57,3.57,0,0,1,1.1-.75,3.38,3.38,0,0,1,1.34-.27,3.54,3.54,0,0,1,1.38.27,3.79,3.79,0,0,1,1.12.75,3.48,3.48,0,0,1,.76,1.11A3.21,3.21,0,0,1,1476.78,376.53Zm-.82,6.64V406h-5.48V383.17Z" transform="translate(-133.97 -80.96)"/><path class="cls-58" d="M1482.16,413.39V383.17h3.35a1.59,1.59,0,0,1,.91.25,1.15,1.15,0,0,1,.49.75l.44,2.11a11.42,11.42,0,0,1,3.17-2.55,8.58,8.58,0,0,1,4.18-1,7.47,7.47,0,0,1,3.41.78,7.61,7.61,0,0,1,2.66,2.25,10.7,10.7,0,0,1,1.73,3.64,18.26,18.26,0,0,1,.62,5,15.52,15.52,0,0,1-.69,4.72,11.6,11.6,0,0,1-2,3.78,9.19,9.19,0,0,1-3.08,2.5,9,9,0,0,1-4.06.9,8.17,8.17,0,0,1-3.27-.59,8,8,0,0,1-2.41-1.63v9.32Zm10.65-26.31a5.62,5.62,0,0,0-2.92.72,8.63,8.63,0,0,0-2.25,2v10.22a5.28,5.28,0,0,0,2,1.61,6.17,6.17,0,0,0,2.37.45,5.33,5.33,0,0,0,2.25-.46,4.5,4.5,0,0,0,1.71-1.43,7,7,0,0,0,1.08-2.4,13.91,13.91,0,0,0,.37-3.43,14.89,14.89,0,0,0-.32-3.39,6.33,6.33,0,0,0-.92-2.25,3.65,3.65,0,0,0-1.45-1.27A4.5,4.5,0,0,0,1492.81,387.08Z" transform="translate(-133.97 -80.96)"/><path class="cls-59" d="M1514.75,406.31a6,6,0,0,1-4.55-1.68,6.42,6.42,0,0,1-1.6-4.63V387.28h-2.31a1.13,1.13,0,0,1-.77-.29,1.11,1.11,0,0,1-.32-.86V384l3.67-.6,1.15-6.22a1.11,1.11,0,0,1,.41-.68,1.28,1.28,0,0,1,.81-.25h2.84v7.17h6v3.91h-6v12.35a2.39,2.39,0,0,0,.54,1.66,1.79,1.79,0,0,0,1.42.6,2.6,2.6,0,0,0,.85-.12,4.31,4.31,0,0,0,.6-.26l.46-.25a.75.75,0,0,1,.4-.12.65.65,0,0,1,.4.12,2,2,0,0,1,.33.36l1.64,2.67a8.46,8.46,0,0,1-2.75,1.51A10.28,10.28,0,0,1,1514.75,406.31Z" transform="translate(-133.97 -80.96)"/><path class="cls-60" d="M1184.68,1266a31.24,31.24,0,0,1-31.24,31.24c-17.25,0-34.26-13.08-34.26-30.33s17-32.14,34.26-32.14A31.24,31.24,0,0,1,1184.68,1266Z" transform="translate(-133.97 -80.96)"/><path class="cls-61" d="M1147.76,1285.17h0a4.15,4.15,0,0,1-4.1-3.71l-2.82-26.31a4.16,4.16,0,0,1,4.45-4.58l2.81.22a4.15,4.15,0,0,1,3.83,4.14V1281A4.15,4.15,0,0,1,1147.76,1285.17Z" transform="translate(-133.97 -80.96)"/><path class="cls-61" d="M1156.7,1254.53v26.52a4.16,4.16,0,0,0,4.1,4.15h.67a4.14,4.14,0,0,0,4.19-4l1-26.53a4.15,4.15,0,0,0-4.14-4.3h-1.63A4.15,4.15,0,0,0,1156.7,1254.53Z" transform="translate(-133.97 -80.96)"/><path class="cls-62" d="M1250.47,1266a23.81,23.81,0,0,1-23.81,23.81c-13.14,0-26.1-10-26.1-23.12s13-24.49,26.1-24.49A23.81,23.81,0,0,1,1250.47,1266Z" transform="translate(-133.97 -80.96)"/><path class="cls-61" d="M1216.8,1255.7v21.21a3.31,3.31,0,0,0,3.28,3.31h.53a3.31,3.31,0,0,0,3.35-3.2l.77-21.21a3.32,3.32,0,0,0-3.31-3.43h-1.3A3.32,3.32,0,0,0,1216.8,1255.7Z" transform="translate(-133.97 -80.96)"/><path class="cls-61" d="M1229.56,1255l-1.13,22.2a1.78,1.78,0,0,0,3,1.33l10.74-11a1.78,1.78,0,0,0,.07-2.4l-9.61-11.15A1.78,1.78,0,0,0,1229.56,1255Z" transform="translate(-133.97 -80.96)"/><path class="cls-63" d="M1057.41,1266a23.81,23.81,0,0,0,23.8,23.81c13.15,0,26.11-10,26.11-23.12s-13-24.49-26.11-24.49A23.81,23.81,0,0,0,1057.41,1266Z" transform="translate(-133.97 -80.96)"/><path class="cls-61" d="M1091.08,1255.7v21.21a3.32,3.32,0,0,1-3.28,3.31h-.53a3.33,3.33,0,0,1-3.36-3.2l-.76-21.21a3.31,3.31,0,0,1,3.31-3.43h1.3A3.32,3.32,0,0,1,1091.08,1255.7Z" transform="translate(-133.97 -80.96)"/><path class="cls-61" d="M1078.32,1255l1.13,22.2a1.78,1.78,0,0,1-3,1.33l-10.74-11a1.78,1.78,0,0,1-.07-2.4l9.61-11.15A1.78,1.78,0,0,1,1078.32,1255Z" transform="translate(-133.97 -80.96)"/><path class="cls-61" d="M967.4,1204l.66,4.39c.61,4,5.67,7.09,11.71,7.09H1615.7c6.5,0,11.77-3.53,11.77-7.87h0c0-4.32-5.19-7.83-11.65-7.87l-636.59-4.39C972.22,1195.25,966.71,1199.29,967.4,1204Z" transform="translate(-133.97 -80.96)"/><path class="cls-64" d="M1137.37,1209.54c-.95-4.78-2.12-9.62-3.25-14.48l-503.41-3.16c-9-.06-16.06,4.66-15.16,10.12l.84,5.13c.77,4.7,7.26,8.28,15,8.28h507.38C1138.24,1213.36,1137.74,1211.38,1137.37,1209.54Z" transform="translate(-133.97 -80.96)"/><path class="cls-16" d="M1155.57,1203.78a14.63,14.63,0,1,1-14.63-14.63A14.63,14.63,0,0,1,1155.57,1203.78Z" transform="translate(-133.97 -80.96)"/><circle class="cls-65" cx="1866.28" cy="353.01" r="158.37" transform="translate(163.04 1342.09) rotate(-45)"/><circle class="cls-49" cx="1865.35" cy="355.21" r="133.65" transform="translate(161.21 1342.08) rotate(-45)"/><path class="cls-66" d="M1797.79,434V272.05h28.35V434Z" transform="translate(-133.97 -80.96)"/><path class="cls-67" d="M1910.09,434h-30V298.52h-31V272.05h92v26.47h-31Z" transform="translate(-133.97 -80.96)"/><g class="cls-68"><path class="cls-16" d="M1606,219.3a2.78,2.78,0,0,1-2.67-2c-.43-1.45-.83-2.93-1.19-4.41a2.78,2.78,0,0,1,5.4-1.33c.34,1.4.72,2.8,1.13,4.18a2.79,2.79,0,0,1-1.89,3.45A3.06,3.06,0,0,1,1606,219.3Z" transform="translate(-133.97 -80.96)"/><path class="cls-16" d="M1602.38,200.87a2.77,2.77,0,0,1-2.76-2.49c-.31-3-.49-6-.55-9.06a2.8,2.8,0,0,1,2.74-2.83,2.76,2.76,0,0,1,2.83,2.73c0,2.87.22,5.75.51,8.59a2.78,2.78,0,0,1-2.48,3.05Zm.21-23.14-.34,0a2.79,2.79,0,0,1-2.43-3.09c.36-3,.85-6,1.46-9a2.78,2.78,0,0,1,5.44,1.12c-.57,2.79-1,5.65-1.38,8.49A2.78,2.78,0,0,1,1602.59,177.73Zm5.28-22.53a2.77,2.77,0,0,1-2.61-3.72c1-2.84,2.16-5.66,3.41-8.4a2.78,2.78,0,1,1,5.06,2.32c-1.19,2.59-2.28,5.26-3.24,8A2.77,2.77,0,0,1,1607.87,155.2Zm10.19-20.78a2.81,2.81,0,0,1-1.49-.44,2.77,2.77,0,0,1-.85-3.84c1.62-2.54,3.37-5,5.21-7.43a2.78,2.78,0,1,1,4.41,3.38c-1.74,2.27-3.39,4.63-4.93,7A2.79,2.79,0,0,1,1618.06,134.42Zm14.56-18a2.78,2.78,0,0,1-1.95-4.76c2.14-2.11,4.4-4.16,6.72-6.09a2.78,2.78,0,1,1,3.55,4.27c-2.19,1.83-4.33,3.77-6.36,5.78A2.81,2.81,0,0,1,1632.62,116.42Zm18.17-14.33a2.78,2.78,0,0,1-1.47-5.14c2.56-1.6,5.22-3.1,7.9-4.46a2.78,2.78,0,1,1,2.52,5c-2.54,1.3-5.06,2.72-7.48,4.23A2.83,2.83,0,0,1,1650.79,102.09Zm97.36-6.41a2.73,2.73,0,0,1-1.14-.25c-2.6-1.18-5.28-2.26-8-3.2a2.78,2.78,0,0,1,1.85-5.25c2.84,1,5.68,2.14,8.42,3.38a2.78,2.78,0,0,1-1.15,5.32Zm-76.48-3.54a2.78,2.78,0,0,1-.9-5.41c2.85-1,5.77-1.86,8.68-2.59a2.78,2.78,0,1,1,1.36,5.39c-2.76.7-5.53,1.52-8.23,2.45A2.65,2.65,0,0,1,1671.67,92.14Zm54.46-3.57a2.67,2.67,0,0,1-.56-.06c-2.79-.56-5.65-1-8.49-1.34a2.78,2.78,0,1,1,.64-5.52c3,.34,6,.82,9,1.41a2.78,2.78,0,0,1-.54,5.51Zm-31.88-1.48a2.78,2.78,0,0,1-.3-5.54c3-.33,6-.52,9-.59h.06a2.78,2.78,0,0,1,.07,5.56c-2.87.06-5.75.25-8.58.55A1.51,1.51,0,0,1,1694.25,87.09Z" transform="translate(-133.97 -80.96)"/><path class="cls-16" d="M1764.55,105a2.83,2.83,0,0,1-1.59-.49c-1.17-.82-2.38-1.63-3.6-2.4a2.78,2.78,0,0,1,3-4.7c1.28.82,2.56,1.67,3.8,2.53a2.78,2.78,0,0,1-1.59,5.06Z" transform="translate(-133.97 -80.96)"/></g><g class="cls-68"><path class="cls-16" d="M1807.81,173.82a2.79,2.79,0,0,1-2.75-2.35c-.22-1.43-.48-2.86-.77-4.25a2.78,2.78,0,0,1,5.45-1.11c.3,1.47.58,3,.82,4.5a2.79,2.79,0,0,1-2.32,3.18A3.11,3.11,0,0,1,1807.81,173.82Z" transform="translate(-133.97 -80.96)"/><path class="cls-16" d="M1705.6,293.74c-1.18,0-2.41,0-3.63-.06a2.78,2.78,0,0,1,.09-5.56h.1c1.14,0,2.27.06,3.41.06h0c1.66,0,3.35,0,5-.13a2.78,2.78,0,0,1,.28,5.56C1709.14,293.69,1707.35,293.74,1705.6,293.74ZM1688,292.26a2.56,2.56,0,0,1-.47,0c-2.92-.49-5.86-1.12-8.73-1.85a2.78,2.78,0,1,1,1.39-5.39c2.72.7,5.5,1.29,8.27,1.76a2.78,2.78,0,0,1-.46,5.52Zm36.75-.31a2.79,2.79,0,0,1-.52-5.52c2.76-.52,5.53-1.16,8.24-1.92a2.78,2.78,0,0,1,1.49,5.36c-2.86.79-5.78,1.48-8.69,2A3.15,3.15,0,0,1,1724.77,292ZM1666.12,286a2.86,2.86,0,0,1-1.06-.21c-2.74-1.13-5.47-2.38-8.11-3.74a2.78,2.78,0,1,1,2.54-4.94c2.5,1.28,5.08,2.47,7.68,3.53a2.78,2.78,0,0,1-1.05,5.36Zm80.41-.74a2.78,2.78,0,0,1-1.11-5.33c2.58-1.11,5.14-2.35,7.61-3.68a2.78,2.78,0,1,1,2.63,4.9c-2.61,1.4-5.31,2.71-8,3.88A2.68,2.68,0,0,1,1746.53,285.27ZM1766.31,274a2.78,2.78,0,0,1-1.64-5c2.27-1.65,4.5-3.42,6.63-5.25a2.78,2.78,0,1,1,3.63,4.21c-2.24,1.94-4.6,3.8-7,5.54A2.78,2.78,0,0,1,1766.31,274Zm16.85-15.31a2.75,2.75,0,0,1-1.84-.7,2.78,2.78,0,0,1-.25-3.92c1.87-2.11,3.66-4.32,5.34-6.57a2.78,2.78,0,1,1,4.45,3.32c-1.76,2.38-3.66,4.71-5.62,6.93A2.77,2.77,0,0,1,1783.16,258.68Zm13.11-18.62a2.74,2.74,0,0,1-1.34-.35,2.78,2.78,0,0,1-1.09-3.77c1.35-2.46,2.62-5,3.76-7.58a2.78,2.78,0,1,1,5.08,2.26c-1.2,2.71-2.54,5.4-4,8A2.79,2.79,0,0,1,1796.27,240.06ZM1805,219a2.87,2.87,0,0,1-.77-.11,2.78,2.78,0,0,1-1.9-3.45c.78-2.69,1.45-5.45,2-8.21a2.78,2.78,0,1,1,5.45,1.09c-.58,2.91-1.29,5.83-2.11,8.67A2.77,2.77,0,0,1,1805,219Zm3.89-22.44h-.18a2.78,2.78,0,0,1-2.6-2.95c.13-2.12.2-4.27.2-6.38,0-.69,0-1.39,0-2.08a2.78,2.78,0,0,1,2.72-2.84h.06a2.78,2.78,0,0,1,2.78,2.72c0,.73,0,1.47,0,2.2,0,2.23-.07,4.49-.21,6.73A2.78,2.78,0,0,1,1808.88,196.57Z" transform="translate(-133.97 -80.96)"/><path class="cls-16" d="M1646.07,275.05a2.78,2.78,0,0,1-1.59-.51c-1.25-.87-2.49-1.78-3.68-2.7a2.78,2.78,0,1,1,3.38-4.41c1.14.87,2.31,1.73,3.49,2.56a2.78,2.78,0,0,1-1.6,5.06Z" transform="translate(-133.97 -80.96)"/></g><path class="cls-69" d="M1649.51,244a1.23,1.23,0,0,0,1.39.38l14.2-5.22a66.29,66.29,0,0,0,18.81,10.13l3.47,14.72a1.26,1.26,0,0,0,1.08,1l18.07,1.83a1.25,1.25,0,0,0,1.25-.72l6.35-13.73a66.06,66.06,0,0,0,20.45-6.15l12.87,8a1.27,1.27,0,0,0,1.45-.1L1763,242.54a1.23,1.23,0,0,0,.38-1.39l-5.22-14.21a66.1,66.1,0,0,0,10.13-18.8l14.72-3.47a1.23,1.23,0,0,0,1-1.08l1.83-18.07a1.22,1.22,0,0,0-.71-1.25l-13.73-6.35a66.2,66.2,0,0,0-6.15-20.46l8-12.87a1.23,1.23,0,0,0-.09-1.44l-11.48-14.06a1.23,1.23,0,0,0-1.39-.38L1746,133.93a66.15,66.15,0,0,0-18.81-10.13l-3.46-14.72a1.26,1.26,0,0,0-1.09-1l-18.06-1.83a1.24,1.24,0,0,0-1.25.72l-6.35,13.73a66.12,66.12,0,0,0-20.46,6.15l-12.87-8a1.25,1.25,0,0,0-1.44.1l-14.07,11.48a1.24,1.24,0,0,0-.38,1.39l5.23,14.21a65.6,65.6,0,0,0-10.13,18.8l-14.73,3.47a1.26,1.26,0,0,0-.95,1.08l-1.83,18.07a1.24,1.24,0,0,0,.72,1.25l13.73,6.35a66.2,66.2,0,0,0,6.15,20.46l-8,12.87a1.23,1.23,0,0,0,.1,1.44Z" transform="translate(-133.97 -80.96)"/><path class="cls-70" d="M1705.49,206a19.49,19.49,0,1,1,2.88-.21A20.14,20.14,0,0,1,1705.49,206Zm.07-32.25a13.61,13.61,0,0,0-1.9.14,12.79,12.79,0,0,0,3.73,25.3h0a12.79,12.79,0,0,0-1.83-25.44Z" transform="translate(-133.97 -80.96)"/><path class="cls-70" d="M1705.84,231.18c-1.51,0-3-.08-4.56-.23h0a45.57,45.57,0,0,1-9.36-2,1.11,1.11,0,0,1-.77-1,1.41,1.41,0,0,1,0-.35,1.12,1.12,0,0,1,1.41-.71,42.75,42.75,0,0,0,55.68-36.31c.14-1.46.22-2.91.22-4.35a42.7,42.7,0,0,0-85.18-4.26,41.85,41.85,0,0,0-.22,4.33,42.53,42.53,0,0,0,4,18.09,1.14,1.14,0,0,1,.1.47,1.1,1.1,0,0,1-.64,1,1.12,1.12,0,0,1-1.48-.53,45.06,45.06,0,0,1-4.24-19c0-1.51.08-3,.23-4.55a44.92,44.92,0,0,1,89.62,4.48,44.12,44.12,0,0,1-.23,4.57A45,45,0,0,1,1705.84,231.18Z" transform="translate(-133.97 -80.96)"/><path class="cls-71" d="M1197.78,896c-8.56-21.88-21.31-38.85-35.31-55.59a46.77,46.77,0,0,0-43.19-16.14c-76.38,12.07-181.47,22.57-228.18,28.46a66.65,66.65,0,0,0-42,22.71C809,921.84,724.1,1044,805.6,1172.54a4.66,4.66,0,0,0,3.94,2.15h59.3l4.28-6.6c-17.25-38.42-14.84-80.52,4.46-126.74a4.68,4.68,0,0,1,8.79.4h0a805.76,805.76,0,0,1,29.35,128.92,4.66,4.66,0,0,0,4.62,4h181.17a4.66,4.66,0,0,0,4.59-3.87c16.71-95.29,61.42-198.27,76.07-230.54a29.21,29.21,0,0,1,14.46-14.56q3-1.37,5.94-2.78a4.68,4.68,0,0,0,2.46-5.55C1202.92,910.2,1200.53,903.05,1197.78,896Z" transform="translate(-133.97 -80.96)"/><path class="cls-72" d="M1358.94,797.72a10,10,0,0,1,.42-14.74l523-466.64a4.87,4.87,0,0,1,5.35-.76h0a4.88,4.88,0,0,1,1.19,8L1372.69,797.91a10,10,0,0,1-13.75-.19Z" transform="translate(-133.97 -80.96)"/><path class="cls-73" d="M875,1018.08c-15.47-44.52-12.24-96.14-11.2-108.27a2.59,2.59,0,0,1,2.87-2.35h0a2.58,2.58,0,0,1,2.29,2.79c-1,11.72-4.23,62.47,10.92,106.09a2.59,2.59,0,0,1-1.55,3.3h0A2.58,2.58,0,0,1,875,1018.08Z" transform="translate(-133.97 -80.96)"/><path class="cls-74" d="M1370,849.45c-72.68,26.57-235.78-25.11-235.78-25.11l-2.44,122.14c124,39.22,204.73,27.8,257.22-5.11C1392.3,904,1381.06,871.41,1370,849.45Z" transform="translate(-133.97 -80.96)"/><path class="cls-75" d="M1485.76,718.85l-30.42-6s-8.29,96.78-76,132.56a74.81,74.81,0,0,1-9.26,4.06c11,22,22.26,54.52,19,91.92C1495.69,874.5,1485.76,718.85,1485.76,718.85Z" transform="translate(-133.97 -80.96)"/><path class="cls-76" d="M1456.89,721.27l-1.55-8.44s-6.34-20.61,10.44-40.89c24.26-29.32,41.37-20.83,41.37-20.83s-.61,8.56-.53,14.12c.07,4.49,3.69,6.23,7,3.19l41.37-38s11.07,59.94-73.83,99.66Z" transform="translate(-133.97 -80.96)"/><path class="cls-77" d="M968.54,750.39l-5.46,95.12a5.84,5.84,0,0,0,4.4,6c12.07,3.05,45.43,9.11,74.47-7.42a9.47,9.47,0,0,0,4.33-10.82L1022,747.82Z" transform="translate(-133.97 -80.96)"/><path class="cls-78" d="M1044.15,653.51s26.6,61.11,28.39,93.18,8.7,52.88-28.39,59.34-68.33-12-85.25-44c0,0-26.52-49.23-20.57-69.39S1044.15,653.51,1044.15,653.51Z" transform="translate(-133.97 -80.96)"/><path class="cls-79" d="M971.57,739.1l2.11-.93a5.1,5.1,0,0,0,2.49-7c-5.23-10.1-15.43-33.25-2.26-38.66,17-7,84.21-20.67,98.72-44.52,13.94-22.93,1.58-52.53-17-61a2.56,2.56,0,0,0-3.34,1.09l-1.55,2.93a2.52,2.52,0,0,1-4.65-.48h0a2.51,2.51,0,0,0-4.54-.65c-4.46,7.14-16.49,18.71-48.69,24.65-45.75,8.45-76,27-76.75,58.58a2.53,2.53,0,0,1-3.9,2.08c-3.38-2.06-8.79-3-16,3-12.56,10.56-7.42,38,20.12,60.51a2.5,2.5,0,0,1-.12,4c-5,3.25-12.44,11,6.85,21.29,19.95,10.67,34.85,9.79,40.59,8.85a2.5,2.5,0,0,0,2-3l-6.12-27.79A2.52,2.52,0,0,1,962,739.1Z" transform="translate(-133.97 -80.96)"/><path class="cls-80" d="M972.72,745s-10.15-39-27.65-28.09,9.08,43.74,23.15,45.2Z" transform="translate(-133.97 -80.96)"/><circle class="cls-81" cx="2150.82" cy="758.2" r="125.4" transform="translate(-40.13 1661.97) rotate(-45)"/><circle class="cls-49" cx="2017.85" cy="676.02" r="104.94"/><path class="cls-82" d="M2059.42,749.05l23.43-12.21V742a2.08,2.08,0,0,1-.29,1.08,2.45,2.45,0,0,1-1,.85l-10.74,5.5a9.57,9.57,0,0,1-1.43.6,16.41,16.41,0,0,1-1.62.46c.58.14,1.11.29,1.62.46a9.61,9.61,0,0,1,1.43.61l10.74,5.53a2.51,2.51,0,0,1,1,.84,2.13,2.13,0,0,1,.29,1.08v5.21L2059.42,752Z" transform="translate(-133.97 -80.96)"/><path class="cls-83" d="M2093.53,770.47v-44h7.31V743.4a15.47,15.47,0,0,1,3.9-2.72,11.33,11.33,0,0,1,5-1,10.91,10.91,0,0,1,4.41.84,8.68,8.68,0,0,1,3.21,2.37,10.26,10.26,0,0,1,1.95,3.64,15.19,15.19,0,0,1,.67,4.65v19.32h-7.31V751.15a6.47,6.47,0,0,0-1.29-4.3,4.74,4.74,0,0,0-3.86-1.52,7.65,7.65,0,0,0-3.55.85,13,13,0,0,0-3.13,2.34v22Z" transform="translate(-133.97 -80.96)"/><path class="cls-84" d="M2137.14,771a8,8,0,0,1-6.07-2.24,8.57,8.57,0,0,1-2.13-6.17V745.59h-3.07a1.52,1.52,0,0,1-1-.38,1.5,1.5,0,0,1-.42-1.16v-2.89l4.88-.8,1.54-8.29a1.42,1.42,0,0,1,.54-.91,1.74,1.74,0,0,1,1.08-.33h3.79v9.56h8v5.2h-8V762a3.23,3.23,0,0,0,.71,2.22,2.4,2.4,0,0,0,1.89.8,3.63,3.63,0,0,0,1.14-.16,8,8,0,0,0,.8-.34l.61-.34a1,1,0,0,1,.53-.17.82.82,0,0,1,.53.17,2.1,2.1,0,0,1,.44.48l2.19,3.55a10.87,10.87,0,0,1-3.66,2A13.48,13.48,0,0,1,2137.14,771Z" transform="translate(-133.97 -80.96)"/><path class="cls-85" d="M2150.06,770.47V740.12h4.47a1.78,1.78,0,0,1,1.86,1.33l.48,2.25a18.29,18.29,0,0,1,1.67-1.63,11.12,11.12,0,0,1,1.86-1.27,9.45,9.45,0,0,1,2.13-.84,9.35,9.35,0,0,1,2.5-.31,7.06,7.06,0,0,1,4.72,1.55,9.32,9.32,0,0,1,2.77,4.13,9.13,9.13,0,0,1,1.77-2.59,9.58,9.58,0,0,1,2.34-1.76,10.64,10.64,0,0,1,2.71-1,13.31,13.31,0,0,1,2.88-.32,12,12,0,0,1,4.47.77,8.61,8.61,0,0,1,3.28,2.24,10,10,0,0,1,2,3.61,15.84,15.84,0,0,1,.69,4.88v19.32h-7.3V751.15a6.48,6.48,0,0,0-1.28-4.36,4.64,4.64,0,0,0-3.72-1.46,5.71,5.71,0,0,0-2.09.38,5.17,5.17,0,0,0-1.69,1.11,5,5,0,0,0-1.13,1.82,7,7,0,0,0-.42,2.51v19.32h-7.34V751.15a6.62,6.62,0,0,0-1.22-4.43,4.58,4.58,0,0,0-3.63-1.39,5.88,5.88,0,0,0-2.94.78,9.81,9.81,0,0,0-2.56,2.15v22.21Z" transform="translate(-133.97 -80.96)"/><path class="cls-86" d="M2207.66,726.51v44h-7.31v-44Z" transform="translate(-133.97 -80.96)"/><path class="cls-87" d="M2218.78,764.26v-5.21a2,2,0,0,1,.3-1.08,2.44,2.44,0,0,1,1-.84l10.74-5.53a13.83,13.83,0,0,1,3-1.07,16.2,16.2,0,0,1-1.61-.46,9.57,9.57,0,0,1-1.43-.6l-10.74-5.5a2.38,2.38,0,0,1-1-.85,2,2,0,0,1-.3-1.08v-5.2l23.43,12.21v3Z" transform="translate(-133.97 -80.96)"/><circle class="cls-88" cx="1750.56" cy="754.41" r="103.58"/><circle class="cls-49" cx="1751.38" cy="753.41" r="86.68"/><path class="cls-89" d="M1832.59,841.71v16.58h-8.77V811.2h15.35a26.83,26.83,0,0,1,8.17,1.1,15.72,15.72,0,0,1,5.7,3.1,12,12,0,0,1,3.32,4.75,16.57,16.57,0,0,1,1.08,6.06,16.74,16.74,0,0,1-1.14,6.27,13,13,0,0,1-3.42,4.9,15.88,15.88,0,0,1-5.7,3.19,25.37,25.37,0,0,1-8,1.14Zm0-6.84h6.58a13.3,13.3,0,0,0,4.2-.6,7.9,7.9,0,0,0,3-1.72,7.15,7.15,0,0,0,1.76-2.74,10.54,10.54,0,0,0,.59-3.6,9.51,9.51,0,0,0-.59-3.42,6.82,6.82,0,0,0-1.76-2.61,7.91,7.91,0,0,0-3-1.64,13.94,13.94,0,0,0-4.2-.57h-6.58Z" transform="translate(-133.97 -80.96)"/><path class="cls-90" d="M1904,858.29h-8.83V837.71h-22.08v20.58h-8.82V811.2h8.82v20.25h22.08V811.2H1904Z" transform="translate(-133.97 -80.96)"/><path class="cls-91" d="M1922.55,841.71v16.58h-8.77V811.2h15.35a26.83,26.83,0,0,1,8.17,1.1,15.72,15.72,0,0,1,5.7,3.1,12,12,0,0,1,3.32,4.75,16.57,16.57,0,0,1,1.08,6.06,16.74,16.74,0,0,1-1.14,6.27,13,13,0,0,1-3.42,4.9,15.88,15.88,0,0,1-5.7,3.19,25.37,25.37,0,0,1-8,1.14Zm0-6.84h6.58a13.3,13.3,0,0,0,4.2-.6,7.9,7.9,0,0,0,3-1.72,7.15,7.15,0,0,0,1.76-2.74,10.54,10.54,0,0,0,.59-3.6,9.51,9.51,0,0,0-.59-3.42,6.82,6.82,0,0,0-1.76-2.61,7.91,7.91,0,0,0-3-1.64,13.94,13.94,0,0,0-4.2-.57h-6.58Z" transform="translate(-133.97 -80.96)"/><circle class="cls-92" cx="1614.4" cy="712.81" r="95.4" transform="translate(-165.15 1269.37) rotate(-45)"/><circle class="cls-49" cx="1615.16" cy="711.89" r="79.84" transform="translate(766.8 2244.98) rotate(-89.91)"/><path class="cls-93" d="M1595.53,722.62a1.64,1.64,0,0,1,1.26.56l3.53,3.82a19.32,19.32,0,0,1-7.2,5.55,24.75,24.75,0,0,1-10.26,1.93,24.23,24.23,0,0,1-9.62-1.83,21.12,21.12,0,0,1-7.3-5.08,22.3,22.3,0,0,1-4.63-7.78,29,29,0,0,1-1.62-9.87,26.49,26.49,0,0,1,1.8-9.92,22.37,22.37,0,0,1,12.85-12.84,26.91,26.91,0,0,1,10-1.81,23.69,23.69,0,0,1,9.36,1.71,22,22,0,0,1,6.86,4.54l-3,4.16a2.82,2.82,0,0,1-.68.7,2,2,0,0,1-1.15.29,2.65,2.65,0,0,1-1.56-.59,19.74,19.74,0,0,0-2-1.3,16.1,16.1,0,0,0-3.11-1.3,15.93,15.93,0,0,0-4.77-.6,16.23,16.23,0,0,0-6.23,1.18,14.07,14.07,0,0,0-4.89,3.38,15.64,15.64,0,0,0-3.19,5.33,20.64,20.64,0,0,0-1.14,7.07,21.14,21.14,0,0,0,1.14,7.21,15.87,15.87,0,0,0,3.11,5.32,13.4,13.4,0,0,0,4.62,3.31,14.35,14.35,0,0,0,5.72,1.14,23.83,23.83,0,0,0,3.31-.2,13.72,13.72,0,0,0,2.72-.63,11.84,11.84,0,0,0,2.36-1.11,14.85,14.85,0,0,0,2.21-1.68,3.12,3.12,0,0,1,.7-.48A1.77,1.77,0,0,1,1595.53,722.62Z" transform="translate(-133.97 -80.96)"/><path class="cls-94" d="M1624.75,695v13.63h12.93v6.08h-12.93v13.7h-6.65v-13.7h-12.87v-6.08h12.87V695Z" transform="translate(-133.97 -80.96)"/><path class="cls-95" d="M1663.3,695v13.63h12.94v6.08H1663.3v13.7h-6.64v-13.7h-12.87v-6.08h12.87V695Z" transform="translate(-133.97 -80.96)"/><circle class="cls-96" cx="2103.51" cy="176.22" r="71.27" transform="translate(357.53 1458.06) rotate(-45)"/><circle class="cls-49" cx="2104.07" cy="175.52" r="59.64" transform="translate(358.19 1458.25) rotate(-45)"/><path class="cls-97" d="M2049.26,174.26l15.5-8.09v3.45a1.33,1.33,0,0,1-.2.71,1.55,1.55,0,0,1-.64.56l-7.11,3.64a5.76,5.76,0,0,1-.95.4c-.33.11-.68.22-1.06.31.38.09.73.19,1.06.3a5.76,5.76,0,0,1,.95.4l7.11,3.66a1.55,1.55,0,0,1,.64.56,1.33,1.33,0,0,1,.2.71v3.45l-15.5-8.1Z" transform="translate(-133.97 -80.96)"/><path class="cls-98" d="M2097.23,174.28a15.31,15.31,0,0,1-1,5.71,12.81,12.81,0,0,1-7.44,7.4,15.9,15.9,0,0,1-5.85,1h-10.8v-28.3h10.8a15.9,15.9,0,0,1,5.85,1,13.24,13.24,0,0,1,4.53,2.92,13.1,13.1,0,0,1,2.91,4.47A15.36,15.36,0,0,1,2097.23,174.28Zm-5.38,0a12.93,12.93,0,0,0-.63-4.18,8.87,8.87,0,0,0-1.78-3.13,7.69,7.69,0,0,0-2.81-2,9.58,9.58,0,0,0-3.73-.69h-5.5v19.93h5.5a9.58,9.58,0,0,0,3.73-.69,7.67,7.67,0,0,0,2.81-2,9,9,0,0,0,1.78-3.13A13,13,0,0,0,2091.85,174.28Z" transform="translate(-133.97 -80.96)"/><path class="cls-99" d="M2107.29,188.43H2102v-28.3h5.29Z" transform="translate(-133.97 -80.96)"/><path class="cls-100" d="M2110.87,160.13h4.25a1.75,1.75,0,0,1,1.11.33,2,2,0,0,1,.65.86l6.65,17.26c.23.56.44,1.18.64,1.85s.39,1.38.58,2.13a24.83,24.83,0,0,1,1.11-4l6.64-17.26a2.06,2.06,0,0,1,.62-.82,1.7,1.7,0,0,1,1.12-.37h4.25l-11.43,28.3h-4.76Z" transform="translate(-133.97 -80.96)"/><path class="cls-101" d="M2143.07,184.32v-3.45a1.33,1.33,0,0,1,.19-.71,1.59,1.59,0,0,1,.65-.56l7.1-3.66a9.18,9.18,0,0,1,2-.7c-.38-.09-.73-.2-1.07-.31a6.15,6.15,0,0,1-.95-.4l-7.1-3.64a1.59,1.59,0,0,1-.65-.56,1.33,1.33,0,0,1-.19-.71v-3.45l15.5,8.09v2Z" transform="translate(-133.97 -80.96)"/><circle class="cls-102" cx="2119.86" cy="361" r="87.21"/><circle class="cls-49" cx="2120.55" cy="360.15" r="72.98"/><path class="cls-103" d="M2216.3,438.59l23.56-12.29v5.24a2,2,0,0,1-.3,1.08,2.32,2.32,0,0,1-1,.85l-10.8,5.53a8.42,8.42,0,0,1-1.44.61,16.41,16.41,0,0,1-1.62.46c.57.14,1.12.3,1.62.47a9.29,9.29,0,0,1,1.44.61l10.8,5.56a2.32,2.32,0,0,1,1,.85,2,2,0,0,1,.3,1.08v5.24l-23.56-12.32Z" transform="translate(-133.97 -80.96)"/><path class="cls-104" d="M2253.16,460.21a4.18,4.18,0,0,1-.69,1.19,3.84,3.84,0,0,1-.95.85,4.44,4.44,0,0,1-1.13.52,4,4,0,0,1-1.16.18h-3.09l17.37-44.44a4.22,4.22,0,0,1,1.46-1.92,3.83,3.83,0,0,1,2.29-.67h3.12Z" transform="translate(-133.97 -80.96)"/><path class="cls-105" d="M2276.51,453.88v-5.24a2,2,0,0,1,.3-1.08,2.32,2.32,0,0,1,1-.85l10.8-5.56a14,14,0,0,1,3.06-1.08,15.67,15.67,0,0,1-1.62-.46,8.42,8.42,0,0,1-1.44-.61l-10.8-5.53a2.32,2.32,0,0,1-1-.85,2,2,0,0,1-.3-1.08V426.3l23.56,12.29v3Z" transform="translate(-133.97 -80.96)"/><path class="cls-16" d="M1964.32,527.64l51.52,70.55-22.57,16.54a2.44,2.44,0,0,0,.79,4.32l74.76,20.74a3,3,0,0,0,3.78-3.08L2067.81,567a2.27,2.27,0,0,0-3.68-1.63l-20.58,16.41-59.06-68.07a3.72,3.72,0,0,0-5-.58L1965,523.54A2.92,2.92,0,0,0,1964.32,527.64Z" transform="translate(-133.97 -80.96)"/><path class="cls-16" d="M1894.15,544.35l-3.91,95.58,24.2-.42A2.11,2.11,0,0,1,1916,643l-42.42,51.87a2.59,2.59,0,0,1-4.21-.29L1838.08,643a2,2,0,0,1,1.8-3l22.69,1.32,2.76-96.93a3.05,3.05,0,0,1,3.05-3h22.94A2.83,2.83,0,0,1,1894.15,544.35Z" transform="translate(-133.97 -80.96)"/><path class="cls-16" d="M1774,519.85,1723.05,593l19.23,11.78a2,2,0,0,1-.47,3.5l-59.31,19.55a2.41,2.41,0,0,1-3.16-2.34l1.18-56.21a1.83,1.83,0,0,1,2.9-1.44l17.17,12.39,50.69-74.82a2.85,2.85,0,0,1,3.89-.8l18,11.48A2.63,2.63,0,0,1,1774,519.85Z" transform="translate(-133.97 -80.96)"/><path class="cls-16" d="M1666.92,387.58l-48.54,5,3.33,20.61A1.82,1.82,0,0,1,1619,415l-49.49-29.83a2.22,2.22,0,0,1-.27-3.62l40.16-33.08a1.69,1.69,0,0,1,2.76,1.16l1.66,19.53,49.88-5.74a1.63,1.63,0,0,1,1.8,1.33l3.73,19.84A2.58,2.58,0,0,1,1666.92,387.58Z" transform="translate(-133.97 -80.96)"/><path class="cls-16" d="M2040.23,389.07l55.82,5.33.89-24a2.09,2.09,0,0,1,3.49-1.39l49,44.76A2.56,2.56,0,0,1,2149,418l-52.7,28.21a1.94,1.94,0,0,1-2.85-1.93l2.53-22.38-57.5-4.77a1.89,1.89,0,0,1-1.73-1.9L2037,392A3,3,0,0,1,2040.23,389.07Z" transform="translate(-133.97 -80.96)"/><path class="cls-106" d="M267.12,1395.55H669.84v-70H267.12C275.74,1325.56,275.74,1395.55,267.12,1395.55Z" transform="translate(-133.97 -80.96)"/><path class="cls-107" d="M669.84,1378v-32c0-11.29-8-20.44-17.77-20.44H268.81c-7.72,0-14-5.44-14-12.14a4,4,0,0,1,4.25-3.69H678c9.61,0,24.86,13.12,24.86,29.29v44.74c0,15.25-14.81,27.62-23.87,27.62H261.29c-3.57,0-6.46-2.51-6.46-5.6,0-5.65,5.28-10.23,11.78-10.23h388C663,1395.55,669.84,1387.71,669.84,1378Z" transform="translate(-133.97 -80.96)"/><path class="cls-16" d="M658.67,1340.92H281.06a1,1,0,1,1,0-2H658.67a1,1,0,1,1,0,2Z" transform="translate(-133.97 -80.96)"/><path class="cls-16" d="M658.67,1351.31H281.06a1,1,0,1,1,0-2H658.67a1,1,0,1,1,0,2Z" transform="translate(-133.97 -80.96)"/><path class="cls-16" d="M658.67,1361.7H281.06a1,1,0,1,1,0-2H658.67a1,1,0,0,1,0,2Z" transform="translate(-133.97 -80.96)"/><path class="cls-16" d="M658.67,1372.09H281.06a1,1,0,1,1,0-2H658.67a1,1,0,0,1,0,2Z" transform="translate(-133.97 -80.96)"/><path class="cls-16" d="M658.67,1382.48H281.06a1,1,0,1,1,0-2H658.67a1,1,0,1,1,0,2Z" transform="translate(-133.97 -80.96)"/><rect class="cls-108" x="11.2" y="1329.67" width="537.49" height="116.95" rx="21.39"/><rect class="cls-109" x="71.94" y="1343.11" width="63.14" height="90.07" rx="7.24"/><rect class="cls-110" x="144.37" y="1343.11" width="23.69" height="90.07" rx="5.89"/><path class="cls-111" d="M721.88,1252.32h.29l127.59-.13a5.7,5.7,0,1,0,0-11.4l-127.58.13a5.7,5.7,0,0,0-.28,11.39Z" transform="translate(-133.97 -80.96)"/><path class="cls-112" d="M899.17,1127.37c0,.09-.09.18-.13.27l-53.68,115.74a5.7,5.7,0,1,0,10.34,4.8l53.68-115.75a5.7,5.7,0,0,0-10.21-5.06Z" transform="translate(-133.97 -80.96)"/><path class="cls-113" d="M778.69,1258.73c-.56,2.31-53.8,202-67.29,252.59a9.15,9.15,0,0,0,8.76,11.56h0a9.1,9.1,0,0,0,8.8-7l59.09-239.6Z" transform="translate(-133.97 -80.96)"/><path class="cls-114" d="M807.84,1258.73c.56,2.31,53.79,202,67.29,252.59a9.15,9.15,0,0,1-8.76,11.56h0a9.1,9.1,0,0,1-8.8-7l-59.09-239.6Z" transform="translate(-133.97 -80.96)"/><path class="cls-115" d="M810.06,1252.2H776.9v26.62a6.89,6.89,0,0,0,6.85,6.93h4.55v59.81a5.22,5.22,0,0,0,5.18,5.25h0a5.22,5.22,0,0,0,5.18-5.25v-59.81H801a9.14,9.14,0,0,0,9.09-9.19Z" transform="translate(-133.97 -80.96)"/><path class="cls-116" d="M695.38,1245.8H880.51a5.69,5.69,0,0,1,5.5,4.31l2.58,10.13a5.73,5.73,0,0,1-5.53,7.18l-190-1.1a5.73,5.73,0,0,1-5.47-7.15l2.25-9A5.68,5.68,0,0,1,695.38,1245.8Z" transform="translate(-133.97 -80.96)"/><path class="cls-117" d="M702.5,1513.21c-21,0-30.29-1.8-34.44-3.45a8,8,0,0,0,7.76,6.17H750.1a3.61,3.61,0,0,0,3.48-4.56C745.11,1512.05,727.13,1513.21,702.5,1513.21Z" transform="translate(-133.97 -80.96)"/><path class="cls-118" d="M753.58,1511.37a3.42,3.42,0,0,0-.61-1.26c-5.66-7.23-17-18.57-32.48-18.35-22.65.31-30.55,2.77-48.15.13l-4.15,13.77a7.85,7.85,0,0,0-.13,4.1c4.15,1.65,13.44,3.45,34.44,3.45C727.13,1513.21,745.11,1512.05,753.58,1511.37Z" transform="translate(-133.97 -80.96)"/><path class="cls-119" d="M677.44,1477.06l-5.1,17.34s11.29,5.14,21.22,1l2-15Z" transform="translate(-133.97 -80.96)"/><path class="cls-120" d="M831.38,1502.29c-16.36,13.15-24.73,17.57-29,18.9a8,8,0,0,0,9.89-.07l57.9-46.53a3.6,3.6,0,0,0-.12-5.72C863.88,1474.7,850.58,1486.86,831.38,1502.29Z" transform="translate(-133.97 -80.96)"/><path class="cls-121" d="M870.06,1468.87a3.73,3.73,0,0,0-1.27-.6c-8.91-2.06-24.84-3.74-36.76,6.11-17.46,14.44-22.08,21.29-37.45,30.27l5.35,13.27a7.76,7.76,0,0,0,2.46,3.27c4.26-1.33,12.63-5.75,29-18.9C850.58,1486.86,863.88,1474.7,870.06,1468.87Z" transform="translate(-133.97 -80.96)"/><path class="cls-122" d="M568.41,1279.57s125.7,10.26,151.48,22.4-21,182.27-21,182.27-7,3.38-22.64-1.47c0,0,16-125.56,4.1-152.78l-136.1-22.26Z" transform="translate(-133.97 -80.96)"/><path class="cls-123" d="M782.1,1480.75c1.16,1.06,12.48,23.9,12.48,23.9s12.61-2.73,15.18-10.71l-11.34-20.61Z" transform="translate(-133.97 -80.96)"/><path class="cls-124" d="M492.7,1278.52a63.52,63.52,0,0,0-3.93,23c.23,18.12,14.79,32.81,32.89,33.72l148.6,6.77a7.13,7.13,0,0,1,6.57,5.36c3.5,13.51,20.57,55,104,137.75a6.73,6.73,0,0,0,8.32.91l11.88-7.5a2.75,2.75,0,0,0,.9-3.7L715.4,1327a33.47,33.47,0,0,0-20.34-15.09l-126.65-32.37Z" transform="translate(-133.97 -80.96)"/><path class="cls-125" d="M665.09,1051s-41.87,24.83-58.1,38.47l33.55,18.72s18.13-20.94,35.4-29.67Z" transform="translate(-133.97 -80.96)"/><path class="cls-126" d="M490,1279.57s40.11,9.77,78.41,0c0,0,53.58-72,74.31-91.64,0,0,39.66,52.88,115.17,55.25l-5.94-7.61s-57.06-24.25-75.1-65.75-25.28-59.2-41.69-70c-10.22-6.75-16.34-11.35-19.5-13.87a5.24,5.24,0,0,0-6-.38C592.24,1096.16,510.29,1152.28,490,1279.57Z" transform="translate(-133.97 -80.96)"/><path class="cls-127" d="M640.14,1184.65a160.75,160.75,0,0,1-19.89-35.27l.93-.36a159.38,159.38,0,0,0,19.76,35Z" transform="translate(-133.97 -80.96)"/><path class="cls-128" d="M749.57,1236.21l8.28-2.21,25.15-5.82a11.64,11.64,0,0,1,8.84,1.49l21.63,13.6-59.72-.1Z" transform="translate(-133.97 -80.96)"/><path class="cls-129" d="M705.84,1031.49c.12.86-11.48,57.7-11.48,57.7l-32.31-7.31,3-55.5S703.74,1017,705.84,1031.49Z" transform="translate(-133.97 -80.96)"/><path class="cls-130" d="M672.31,1038.74l-3.86,29.1a4.13,4.13,0,0,0,0,1.11c.33,2.28,2,10,9.86,7.83,7.11-2,13.63-3.75,18.14-2.37a4.1,4.1,0,0,1,2.82,4.74,177.87,177.87,0,0,1-7.44,26.48,4.09,4.09,0,0,1-5,2.42c-6.13-1.79-18.94-5.92-28.48-11.66a4.1,4.1,0,0,1-2-3.68c.31-7.35,1.17-29.68.45-35.94-.68-5.87-7.89-9.39-11-10.65a4.07,4.07,0,0,1-2.25-2.25c-1.45-3.64-3.45-12,7.15-15.5a4.1,4.1,0,0,0,2.6-5.31c-1.57-4.37-2.23-11,6-14.71s14.56.71,17.92,4.32a4.1,4.1,0,0,0,5.23.61,3.26,3.26,0,0,1,3.69.13,4,4,0,0,0,5.72-1.73c2-4.1,6.06-8.49,14.22-7.09,14.48,2.48,16.12,18.52,12.3,27.93s-19.36,5.82-27.16,1.08c-5.93-3.61-13.62.17-17,2.19A4.06,4.06,0,0,0,672.31,1038.74Z" transform="translate(-133.97 -80.96)"/><path class="cls-131" d="M655.53,1067.38s6-16.67-.17-20.75-15.17-2-13.18,10.11C644.67,1071.76,655.53,1067.38,655.53,1067.38Z" transform="translate(-133.97 -80.96)"/><path class="cls-16" d="M1359.07,978.13l1.59,2.54a.53.53,0,0,1-.9.57h0l-1.54-2.58a.5.5,0,0,1,.86-.52Z" transform="translate(-133.97 -80.96)"/><path class="cls-16" d="M1364.42,986.56l1.64,2.52a.63.63,0,0,1-.19.88.62.62,0,0,1-.88-.18h0l-1.59-2.56a.61.61,0,0,1,1-.65Z" transform="translate(-133.97 -80.96)"/><path class="cls-16" d="M1369.92,994.9l1.68,2.48a.73.73,0,0,1-1.21.83h0l-1.64-2.52a.71.71,0,0,1,.2-1A.72.72,0,0,1,1369.92,994.9Z" transform="translate(-133.97 -80.96)"/><path class="cls-16" d="M1375.58,1003.13l1.73,2.44h0a.81.81,0,0,1-1.33.94h0l-1.7-2.48a.79.79,0,0,1,.21-1.1.77.77,0,0,1,1.08.2Z" transform="translate(-133.97 -80.96)"/><path class="cls-16" d="M1381.43,1011.21l1.81,2.39h0a.89.89,0,0,1-.17,1.25.9.9,0,0,1-1.26-.17h0l-1.78-2.43a.89.89,0,0,1,.19-1.22.87.87,0,0,1,1.21.18Z" transform="translate(-133.97 -80.96)"/><path class="cls-16" d="M1387.52,1019.11l1.87,2.33h0a1,1,0,0,1-1.52,1.22v0l-1.84-2.37a1,1,0,0,1,.16-1.34,1,1,0,0,1,1.33.16Z" transform="translate(-133.97 -80.96)"/><path class="cls-16" d="M1393.85,1026.81l2,2.27h0a1.05,1.05,0,1,1-1.6,1.37h0l-1.92-2.32a1,1,0,0,1,.13-1.45,1,1,0,0,1,1.44.12Z" transform="translate(-133.97 -80.96)"/><path class="cls-16" d="M1400.42,1034.3l2,2.2h0a1.13,1.13,0,0,1-.08,1.59,1.11,1.11,0,0,1-1.58-.07h0l-2-2.24a1.11,1.11,0,0,1,1.64-1.49Z" transform="translate(-133.97 -80.96)"/><path class="cls-16" d="M1407.23,1041.56l2.1,2.13h0a1.17,1.17,0,0,1-1.67,1.65h0l-2.09-2.17a1.16,1.16,0,0,1,1.65-1.62Z" transform="translate(-133.97 -80.96)"/><path class="cls-16" d="M1414.31,1048.56l2.18,2h0a1.22,1.22,0,1,1-1.67,1.78h0l-2.18-2.09a1.21,1.21,0,0,1,1.66-1.75Z" transform="translate(-133.97 -80.96)"/><path class="cls-16" d="M1421.67,1055.26l2.26,1.94h0a1.27,1.27,0,0,1-1.66,1.93h0l-2.27-2a1.26,1.26,0,0,1,1.65-1.9Z" transform="translate(-133.97 -80.96)"/><path class="cls-16" d="M1429.32,1061.61l2.35,1.83h0a1.32,1.32,0,0,1-1.62,2.08h0l-2.36-1.88a1.3,1.3,0,0,1,1.61-2.05Z" transform="translate(-133.97 -80.96)"/><path class="cls-16" d="M1437.26,1067.58l2.44,1.7v0a1.36,1.36,0,0,1-1.56,2.24h0l-2.46-1.76a1.35,1.35,0,0,1,1.56-2.21Z" transform="translate(-133.97 -80.96)"/><path class="cls-16" d="M1445.5,1073.11l2.53,1.56,0,0a1.42,1.42,0,1,1-1.5,2.41h0l-2.55-1.62a1.4,1.4,0,0,1,1.48-2.38Z" transform="translate(-133.97 -80.96)"/><path class="cls-16" d="M1454,1078.15l2.62,1.4,0,0a1.46,1.46,0,1,1-1.38,2.58h0l-2.65-1.46a1.44,1.44,0,0,1-.57-2,1.47,1.47,0,0,1,2-.58Z" transform="translate(-133.97 -80.96)"/><path class="cls-16" d="M1462.86,1082.63l2.7,1.23,0,0a1.51,1.51,0,1,1-1.25,2.75h0l-2.74-1.28a1.5,1.5,0,0,1,1.25-2.73Z" transform="translate(-133.97 -80.96)"/><path class="cls-16" d="M1472,1086.52l2.79,1,0,0a1.53,1.53,0,1,1-1.08,2.87h0l-2.84-1.07a1.53,1.53,0,0,1,1.08-2.86Z" transform="translate(-133.97 -80.96)"/><path class="cls-16" d="M1481.3,1089.74l2.84.82h0a1.55,1.55,0,1,1-.86,3h0l-2.91-.85a1.55,1.55,0,0,1,.87-3Z" transform="translate(-133.97 -80.96)"/><path class="cls-16" d="M1490.86,1092.22l2.9.59h0a1.57,1.57,0,1,1-.62,3.07h0l-3-.61a1.56,1.56,0,0,1,.63-3.06Z" transform="translate(-133.97 -80.96)"/><path class="cls-16" d="M1500.58,1093.9l2.94.35h0a1.58,1.58,0,1,1-.37,3.14h0l-3-.37a1.58,1.58,0,0,1,.38-3.13Z" transform="translate(-133.97 -80.96)"/><path class="cls-16" d="M1510.4,1094.78l3,.11h0a1.6,1.6,0,1,1-.12,3.19h0l-3-.12a1.6,1.6,0,0,1,.13-3.19Z" transform="translate(-133.97 -80.96)"/><path class="cls-16" d="M1520.27,1094.88l3-.12h0a1.61,1.61,0,1,1,.13,3.22h0l-3,.11a1.61,1.61,0,1,1-.12-3.21Z" transform="translate(-133.97 -80.96)"/><path class="cls-16" d="M1530.13,1094.24l2.95-.32h0a1.63,1.63,0,0,1,.36,3.25h0l-3,.32a1.62,1.62,0,0,1-.35-3.23Z" transform="translate(-133.97 -80.96)"/><path class="cls-16" d="M1539.93,1092.93l2.92-.51h0a1.65,1.65,0,0,1,.57,3.25h0l-3,.51a1.64,1.64,0,1,1-.56-3.23Z" transform="translate(-133.97 -80.96)"/><path class="cls-16" d="M1549.64,1091l2.89-.69h0a1.67,1.67,0,0,1,.77,3.24h0l-2.94.69a1.66,1.66,0,1,1-.76-3.23Z" transform="translate(-133.97 -80.96)"/><path class="cls-16" d="M1559.23,1088.53l2.85-.85h0a1.68,1.68,0,0,1,2.08,1.14,1.66,1.66,0,0,1-1.13,2.08h0l-2.9.85a1.68,1.68,0,0,1-.94-3.22Z" transform="translate(-133.97 -80.96)"/><path class="cls-16" d="M1568.69,1085.55l2.81-1h0a1.7,1.7,0,1,1,1.12,3.2h0l-2.86,1a1.69,1.69,0,1,1-1.1-3.2Z" transform="translate(-133.97 -80.96)"/><path class="cls-16" d="M1578,1082.13l2.77-1.1h0a1.7,1.7,0,0,1,1.26,3.16l-2.81,1.12a1.7,1.7,0,0,1-1.26-3.16h0Z" transform="translate(-133.97 -80.96)"/><path class="cls-16" d="M1587.18,1078.34l2.73-1.2h0a1.69,1.69,0,1,1,1.37,3.09l-2.75,1.22a1.69,1.69,0,0,1-1.38-3.09h0Z" transform="translate(-133.97 -80.96)"/><path class="cls-16" d="M1596.22,1074.21l2.68-1.3h0a1.67,1.67,0,0,1,1.46,3l-2.71,1.32a1.67,1.67,0,1,1-1.47-3h0Z" transform="translate(-133.97 -80.96)"/><path class="cls-16" d="M1605.12,1069.77l2.64-1.39h0a1.66,1.66,0,1,1,1.54,2.94l-2.66,1.41a1.66,1.66,0,0,1-1.56-2.94h0Z" transform="translate(-133.97 -80.96)"/><path class="cls-16" d="M1613.88,1065.05l2.61-1.46h0a1.65,1.65,0,1,1,1.61,2.87l-2.62,1.48a1.65,1.65,0,1,1-1.62-2.87h0Z" transform="translate(-133.97 -80.96)"/><path class="cls-16" d="M1622.53,1060.11l2.58-1.52h0a1.63,1.63,0,0,1,1.66,2.81l-2.59,1.54a1.64,1.64,0,0,1-1.67-2.82h0Z" transform="translate(-133.97 -80.96)"/><path class="cls-16" d="M1631.09,1055l2.54-1.56h0a1.62,1.62,0,0,1,1.7,2.75l-2.56,1.58a1.62,1.62,0,1,1-1.7-2.76h0Z" transform="translate(-133.97 -80.96)"/><path class="cls-16" d="M1639.56,1049.72l2.53-1.6h0a1.6,1.6,0,0,1,1.72,2.71l-2.54,1.61a1.61,1.61,0,1,1-1.73-2.71h0Z" transform="translate(-133.97 -80.96)"/><path class="cls-16" d="M1648,1044.35l2.52-1.62a1.59,1.59,0,1,1,1.73,2.67l-2.52,1.63a1.59,1.59,0,0,1-1.73-2.67Z" transform="translate(-133.97 -80.96)"/><path class="cls-16" d="M1656.37,1038.92l2.51-1.64a1.58,1.58,0,0,1,1.73,2.64l-2.51,1.65a1.59,1.59,0,0,1-1.74-2.65Z" transform="translate(-133.97 -80.96)"/><path class="cls-16" d="M1664.74,1033.45l2.51-1.64a1.56,1.56,0,1,1,1.71,2.61l-2.51,1.65a1.55,1.55,0,0,1-2.16-.45,1.56,1.56,0,0,1,.44-2.17Z" transform="translate(-133.97 -80.96)"/><path class="cls-16" d="M1673.12,1028l2.51-1.64a1.55,1.55,0,1,1,1.69,2.6l-2.51,1.64a1.55,1.55,0,1,1-1.7-2.6Z" transform="translate(-133.97 -80.96)"/><path class="cls-16" d="M1681.52,1022.55l2.54-1.61a1.53,1.53,0,1,1,1.65,2.58l-2.52,1.62a1.54,1.54,0,1,1-1.67-2.58Z" transform="translate(-133.97 -80.96)"/><path class="cls-16" d="M1690,1017.19l2.55-1.59a1.52,1.52,0,0,1,1.6,2.59h0l-2.53,1.59h0a1.52,1.52,0,1,1-1.62-2.58Z" transform="translate(-133.97 -80.96)"/><path class="cls-16" d="M1698.53,1012l2.58-1.54a1.48,1.48,0,1,1,1.53,2.54h0l-2.56,1.55h0a1.5,1.5,0,0,1-1.55-2.56Z" transform="translate(-133.97 -80.96)"/><path class="cls-16" d="M1707.17,1006.86l2.62-1.49a1.44,1.44,0,0,1,1.44,2.5h0l-2.59,1.5h0a1.46,1.46,0,0,1-1.46-2.52Z" transform="translate(-133.97 -80.96)"/><path class="cls-16" d="M1715.93,1002l2.65-1.43a1.4,1.4,0,0,1,1.35,2.46h0l-2.62,1.44h0a1.42,1.42,0,1,1-1.37-2.48Z" transform="translate(-133.97 -80.96)"/><path class="cls-16" d="M1724.82,997.28l2.71-1.34a1.36,1.36,0,0,1,1.22,2.44h0l-2.66,1.34h0a1.37,1.37,0,0,1-1.24-2.45Z" transform="translate(-133.97 -80.96)"/><path class="cls-16" d="M1733.93,993l2.8-1.17a1.32,1.32,0,0,1,1,2.42h0l-2.72,1.18h0a1.33,1.33,0,0,1-1.06-2.44Z" transform="translate(-133.97 -80.96)"/><path class="cls-16" d="M1743.36,989.32l2.9-.92a1.26,1.26,0,0,1,1.6.82,1.29,1.29,0,0,1-.82,1.61h0l-2.81.92,0,0a1.29,1.29,0,0,1-1.63-.83,1.27,1.27,0,0,1,.82-1.62Z" transform="translate(-133.97 -80.96)"/><path class="cls-16" d="M1753.14,986.63l3-.57a1.24,1.24,0,0,1,.47,2.43h0l-2.9.57h-.05a1.25,1.25,0,0,1-1.46-1,1.23,1.23,0,0,1,1-1.46Z" transform="translate(-133.97 -80.96)"/><path class="cls-16" d="M1763.24,985.28l3.06-.08a1.19,1.19,0,0,1,.07,2.38h-.06l-2.94.11h-.06a1.21,1.21,0,1,1-.08-2.41Z" transform="translate(-133.97 -80.96)"/><path class="cls-16" d="M1773.44,985.7l3,.52a1.15,1.15,0,0,1-.38,2.27H1776l-2.89-.47h-.07a1.18,1.18,0,0,1-1-1.34,1.16,1.16,0,0,1,1.34-1Z" transform="translate(-133.97 -80.96)"/><path class="cls-16" d="M1783.35,988.1l2.87,1.08a1.11,1.11,0,0,1-.77,2.08l-.06,0-2.76-1-.05,0a1.11,1.11,0,0,1-.67-1.44,1.12,1.12,0,0,1,1.44-.67Z" transform="translate(-133.97 -80.96)"/><path class="cls-16" d="M1792.64,992.26l2.63,1.54a1,1,0,0,1-1,1.8l0,0-2.57-1.46,0,0a1.06,1.06,0,0,1,1.05-1.85Z" transform="translate(-133.97 -80.96)"/><path class="cls-16" d="M1801.1,997.86l2.37,1.92a1,1,0,0,1-1.21,1.51l0,0-2.33-1.83,0,0a1,1,0,0,1-.17-1.39,1,1,0,0,1,1.39-.16Z" transform="translate(-133.97 -80.96)"/><path class="cls-16" d="M1808.64,1004.63l2.06,2.22a.89.89,0,0,1,0,1.26.9.9,0,0,1-1.26,0l0,0-2.05-2.14,0,0a.91.91,0,1,1,1.32-1.26Z" transform="translate(-133.97 -80.96)"/><path class="cls-16" d="M1815.16,1012.35l1.76,2.47a.82.82,0,0,1-1.33,1l0,0-1.75-2.4,0,0a.84.84,0,1,1,1.36-1Z" transform="translate(-133.97 -80.96)"/><path class="cls-16" d="M1820.62,1020.84l1.42,2.67a.75.75,0,0,1-.31,1,.74.74,0,0,1-1-.3v0l-1.43-2.61,0,0a.77.77,0,0,1,.31-1,.76.76,0,0,1,1,.3Z" transform="translate(-133.97 -80.96)"/><path class="cls-16" d="M1824.94,1030l1.06,2.83a.66.66,0,0,1-.39.86.67.67,0,0,1-.86-.38v0l-1.08-2.76v0a.69.69,0,1,1,1.29-.5Z" transform="translate(-133.97 -80.96)"/><path class="cls-16" d="M1828,1039.55l.67,3a.58.58,0,0,1-.44.71.59.59,0,0,1-.71-.44v0l-.71-2.89v0a.6.6,0,0,1,.45-.74.61.61,0,0,1,.74.45Z" transform="translate(-133.97 -80.96)"/><path class="cls-16" d="M1829.83,1049.46l.26,3a.52.52,0,0,1-1,.11v0l-.31-3v0a.55.55,0,0,1,.49-.6.54.54,0,0,1,.59.48Z" transform="translate(-133.97 -80.96)"/></svg>